<?xml version="1.0" encoding="UTF-8"?>
<!DOCTYPE svg PUBLIC "-//W3C//DTD SVG 1.1//EN" "http://www.w3.org/Graphics/SVG/1.1/DTD/svg11.dtd">
<!-- Creator: CorelDRAW 2018 (64 Bit Versão de avaliação) -->
<svg xmlns="http://www.w3.org/2000/svg" xml:space="preserve" width="297mm" height="210mm" version="1.1" style="shape-rendering:geometricPrecision; text-rendering:geometricPrecision; image-rendering:optimizeQuality; fill-rule:evenodd; clip-rule:evenodd"
viewBox="0 0 29700 21000"
 xmlns:xlink="http://www.w3.org/1999/xlink">
 <defs>
  <style type="text/css">
   <![CDATA[
    .fil0 {fill:#1BA1AC}
    .fil1 {fill:#727375}
    .fil2 {fill:#90BD24}
   ]]>
  </style>
 </defs>
 <g id="Camada_x0020_1">
  <metadata id="CorelCorpID_0Corel-Layer"/>
  <g id="_2386049040">
   <path class="fil0" d="M14282.9 5453.99c3205.79,-715.97 5831.01,3199.83 3644.52,5961.61 -521.51,658.81 -1157.5,1153.5 -2296.39,1396.71 -1119.01,238.98 -2245.32,-154.78 -2946.38,-685.25 -2380.22,-1801.01 -1922.43,-5886.74 1598.25,-6673.07zm5477.02 6483.04l376.89 1137.84 1664.76 -489.27c-54.07,-472.7 -489.11,-1635.99 -652.48,-2161.94 -355.65,-1145.37 -951.72,-3252.18 -1481.67,-4195.47 -1628.16,-2897.88 -6625.69,-3950.98 -9256.64,-224.37 -2945.33,4172.04 1083.38,9964.78 6176.72,8407.5 1128.72,-345.19 1874,-881.38 2553.37,-1657.23 247.2,-282.3 391.28,-572.88 619.05,-817.06z"/>
   <path class="fil1" d="M16603.69 19320.5c-215.11,-1629.51 1092.95,-1452.74 1194.25,-701.36 230.03,1705.88 -1104.24,1383.07 -1194.25,701.36zm1198.02 -1311.97c-91.21,-58.82 -45.79,-28.09 -124.13,-92.49 -277.69,-228.29 -559.01,-392.79 -1022.52,-124.13 -685.17,397.16 -672.07,1830.32 -67.79,2294.96 411.62,316.48 924.39,200.57 1145.9,-136.25l91.96 117.49c6.03,7.01 91.06,101 92.27,101.76 489.72,301.12 333.74,-883.56 333.74,-1487.09l-10.17 -2359.28c-80.74,-233.78 -387.06,-221.58 -437,60.03 -47.6,268.51 1.96,1272.43 -2.26,1625z"/>
   <path class="fil1" d="M21639.64 19384.3c-346.01,-1523.62 1028.85,-1624.02 1170.3,-810.96 281.69,1619.73 -1010.47,1514.96 -1170.3,810.96zm1187.09 -2869.64l-4.89 1483.85c-137.61,-78.56 -494.69,-558.26 -1139.34,-214.58 -1156.67,616.71 -221.82,3566.63 1121.71,2139.34 69,163.14 54.38,311.9 280.72,291.94 314.98,-27.87 185.81,-1141.6 185.66,-1404.84l-0.61 -2231.99c0.68,-223.02 49.49,-369.89 -184.53,-401.07 -290.73,-38.64 -258.11,124.2 -258.72,337.35z"/>
   <path class="fil1" d="M8889.27 18789.28c-81.04,-738.57 629.97,-998.87 1033.97,-583.34 130.91,134.59 355.21,555.17 -91.81,591.47 -255.18,20.72 -671.46,-4.59 -942.16,-8.13zm8.21 307.3c742.57,-13.48 2062.45,260.3 1522.56,-877.99 -296.3,-624.69 -1198.46,-727.12 -1712.59,-209.91 -444.38,447.17 -388.79,1585.3 64.02,1985.17 483.85,427.2 1856.83,328.99 1632.83,-226.94 -320.63,-170.82 -452.59,259.17 -1054.38,93.1 -344.88,-95.13 -519.1,-372.15 -452.44,-763.43z"/>
   <path class="fil1" d="M19199.02 19294.37c312.12,-212.4 543.2,-213.46 1026.36,-193.27 -13.18,387.96 -98.06,680.12 -467.8,780.98 -487.46,132.93 -614.67,-158.93 -558.56,-587.71zm1413.05 848.76c128.49,-252.84 89.03,-1344.51 31.26,-1693.01 -81.8,-493.33 -462.91,-781.13 -995.04,-781.73 -892.14,-0.9 -1025.61,656.48 -329.51,434.29 618.13,-197.26 886.04,121.11 898.85,706.63 -697.6,41.51 -1621.61,-10.39 -1487.09,895.32 107.4,722.75 1014.54,682.91 1427.58,243.42l82.78 122.62c29.98,38.72 38.19,75.4 92.34,107.86 246.44,147.55 277.47,-34.5 278.83,-35.4z"/>
   <path class="fil1" d="M24265.92 18781.97c-68.92,-734.12 631.4,-987.72 1031.94,-584.09 94.07,94.75 161.78,203.28 163.06,364.69 2.87,352.27 -453.94,266.78 -1195,219.4zm7.31 312.73c339.31,-7.23 1346.92,94.9 1534.54,-120.96 329.97,-379.69 -140.4,-982.38 -313.63,-1100.71 -493.26,-336.9 -1695.12,-404.31 -1688.57,1129.1 2.41,581.46 110.19,887.03 528.97,1116.3 974.01,533.4 1934.02,-355.66 1313.55,-403.56 -0.6,0 -1568.28,628.23 -1374.86,-620.17z"/>
   <path class="fil1" d="M5258.54 19107.27c109.52,721.56 -660.69,1001.06 -945.85,686.08 -195.37,-215.79 -54.98,-515.48 146.65,-615.5 203.81,-101.15 545.23,-98.67 799.2,-70.58zm-1257.82 -982c334.87,170.52 1263.02,-565.64 1273.72,667.32 -731.65,124.96 -1594.05,-40.37 -1487.85,899.46 89.33,790.62 1039.4,677.71 1459,217.89 129.7,229.35 23.2,372.91 420.28,281.32 160.5,-416.06 87.67,-1848.92 -143.86,-2177.01 -354.23,-501.92 -1717.04,-459.97 -1521.29,111.02z"/>
   <path class="fil1" d="M11311.44 18498.78c42.33,-868.8 930.86,-261.81 1112.6,-354.83 189.73,-97.23 105.37,-235.29 0.53,-326.65 -185.66,-161.79 -1343.76,-363.72 -1496.35,436.54 -176.7,926.95 814.49,715.83 1156.36,1041.81 283.95,270.69 95.21,603.67 -342.77,615.2 -398.21,10.54 -548.47,-179.56 -659.94,-197.86 -361.15,-59.43 -69.75,-31.64 -190.41,43.91 -109.36,368 393.62,504.86 786.1,513.22 384.28,8.13 757.18,-88.35 889.14,-446.34 366.95,-995.33 -886.28,-926.34 -1255.26,-1325z"/>
   <path class="fil1" d="M12977.64 19730.01c-62.97,310.91 27.64,357.08 320.4,456.58 620.1,210.74 1543.43,67.26 1386.01,-799.66 -84.66,-465.99 -500.11,-502.9 -946.98,-661.52 -571.89,-202.98 -363.33,-716.81 170.37,-694.89 280.11,11.53 490.4,228.67 643.52,77.73 380.51,-375.16 -1004.97,-724.34 -1430.6,-88.88 -786.55,1174.52 1550.96,955.57 1131.14,1705.89 -276.2,493.72 -976.36,-89.93 -1273.86,4.75z"/>
   <path class="fil1" d="M8012.71 18207.29c290.06,-681.03 -1443.62,-805.98 -1721.7,125.64 -186.94,626.19 -214.73,2010.92 1110.12,1936.89 828.73,-46.25 889.59,-667.18 421.41,-548.1 -213.98,54.38 -240.42,180.47 -589.07,143.48 -941.18,-99.79 -526.25,-1526.25 -364.17,-1655.95 451.16,-361.15 818.42,66.66 1143.41,-1.96z"/>
   <path class="fil1" d="M15191.02 20085.74c56.34,196.95 369.44,222.94 429.77,-65.3l-4.6 -2162.62c-35.17,-109.74 -22.22,-172.86 -238.68,-154.93 -300.67,24.85 -197.94,279.43 -197.86,916.17 0,238.46 -30.36,1321.01 11.37,1466.68z"/>
   <path class="fil1" d="M15171.81 16564.75l-53.32 284.78c234.09,194.02 275.36,173.53 519.7,65.9l0.97 -332.38c-136.02,-55.13 -334.64,-123.97 -467.35,-18.3z"/>
   <ellipse class="fil2" cx="8858.92" cy="2758.85" rx="1992.78" ry="2067.67"/>
  </g>
 </g>
</svg>
