<?xml version="1.0" encoding="UTF-8"?>
<!DOCTYPE svg PUBLIC "-//W3C//DTD SVG 1.1//EN" "http://www.w3.org/Graphics/SVG/1.1/DTD/svg11.dtd">
<!-- Creator: CorelDRAW 2018 (64 Bit Versão de avaliação) -->
<svg xmlns="http://www.w3.org/2000/svg" xml:space="preserve" width="297mm" height="210mm" version="1.1" style="shape-rendering:geometricPrecision; text-rendering:geometricPrecision; image-rendering:optimizeQuality; fill-rule:evenodd; clip-rule:evenodd"
viewBox="0 0 29700 21000"
 xmlns:xlink="http://www.w3.org/1999/xlink">
 <defs>
  <style type="text/css">
   <![CDATA[
    .fil1 {fill:#0F4A96}
    .fil0 {fill:#EC017B}
    .fil2 {fill:#0F4A96;fill-rule:nonzero}
    .fil3 {fill:#EC017B;fill-rule:nonzero}
   ]]>
  </style>
 </defs>
 <g id="Camada_x0020_1">
  <metadata id="CorelCorpID_0Corel-Layer"/>
  <g id="_1553843776">
   <path class="fil0" d="M3170.71 9333.33c453.75,-449.19 1190.52,-449.19 1644.27,0 455.4,450.82 455.4,1180.16 0,1629.35 -453.75,449.22 -1190.52,449.22 -1644.27,0 -455.4,-449.19 -455.4,-1178.53 0,-1629.35z"/>
   <path class="fil0" d="M3291.05 13187.76c105.72,106.27 201.68,202.86 307.39,260.84 139.86,75.66 282.99,104.64 424.49,99.82 144.75,-4.84 286.25,-45.08 424.49,-130.43 86.19,-54.74 156.12,-130.4 247.22,-220.57l0 998.23 -1403.59 0 0 -1007.89z"/>
   <path class="fil1" d="M802.66 9627.96l136.63 -135.25 1780.9 1763c816.45,935.43 1888.24,587.67 2338.75,210.91 561.11,-531.31 787.19,-1220.41 417.98,-2006.1 -447.26,-745.45 -931.91,-867.82 -1501.16,-898.4l1075.04 -1054.58 2141.97 2120.42c320.42,317.18 320.42,837.22 0,1154.4l-2611.99 2585.73c-320.4,317.16 -845.73,317.16 -1166.12,0l-2612 -2585.73c-320.39,-317.18 -346.42,-811.46 0,-1154.4zm473.28 -468.53l2138.72 -2117.21c320.39,-317.16 845.72,-317.16 1166.12,0 45.53,45.08 89.46,88.56 131.75,132.04l-1863.86 1845.1c-474.91,462.09 -491.17,957.97 -510.68,1184.98 0,0 -1029.51,-1012.7 -1062.05,-1044.91z"/>
   <path class="fil2" d="M10904.21 12875.4c21.14,24.16 47.17,45.08 79.7,62.79 30.89,17.72 66.68,27.38 107.33,27.38 47.17,0 84.57,-11.27 112.22,-33.8 27.65,-20.95 42.28,-51.53 42.28,-93.4 0,-38.63 -13,-69.22 -39.02,-88.53 -24.4,-19.34 -63.43,-37.06 -113.85,-56.37l-40.65 -16.09c-55.31,-19.34 -100.84,-45.08 -136.61,-77.29 -37.42,-33.82 -55.31,-75.66 -55.31,-130.41 0,-54.74 21.14,-98.21 63.42,-128.79 42.28,-32.22 95.96,-48.32 159.39,-48.32 50.42,0 91.09,6.45 123.61,20.95 32.53,14.47 63.42,35.4 91.07,62.77l-45.54 51.53c-19.51,-17.72 -43.91,-33.82 -69.93,-48.3 -26.02,-14.5 -58.54,-22.55 -97.59,-22.55 -42.28,0 -76.42,9.66 -104.07,28.98 -27.66,19.34 -42.29,45.08 -42.29,75.68 0,38.64 16.26,67.61 47.17,88.56 30.89,20.92 63.42,38.64 95.94,49.9l68.33 28.98c68.3,25.76 115.47,53.13 141.49,83.71 24.38,29 37.4,67.64 37.4,115.93 0,64.4 -22.77,114.32 -68.31,149.75 -47.16,33.79 -102.47,51.5 -169.15,51.5 -27.65,0 -52.04,-1.6 -74.81,-4.81 -22.77,-4.84 -43.91,-9.66 -63.43,-17.72 -21.14,-8.05 -39.02,-19.31 -56.93,-32.21 -17.88,-12.87 -34.14,-27.37 -52.03,-45.08l60.17 -54.74zm746.51 -565.12l78.08 0 0 708.42 -78.08 0 0 -708.42zm460.28 565.12c21.15,24.16 48.8,45.08 79.68,62.79 30.91,17.72 66.68,27.38 108.99,27.38 45.53,0 82.93,-11.27 112.21,-33.8 27.66,-20.95 40.66,-51.53 40.66,-93.4 0,-38.63 -11.38,-69.22 -37.4,-88.53 -26.03,-19.34 -65.07,-37.06 -115.47,-56.37l-39.05 -16.09c-55.28,-19.34 -102.45,-45.08 -138.24,-77.29 -37.4,-33.82 -55.31,-75.66 -55.31,-130.41 0,-54.74 21.17,-98.21 63.45,-128.79 42.28,-32.22 95.96,-48.32 159.38,-48.32 50.42,0 91.08,6.45 123.61,20.95 32.52,14.47 63.42,35.4 91.08,62.77l-45.54 51.53c-19.51,-17.72 -42.28,-33.82 -69.94,-48.3 -26.02,-14.5 -58.56,-22.55 -97.58,-22.55 -40.66,0 -76.45,9.66 -104.1,28.98 -27.63,19.34 -42.28,45.08 -42.28,75.68 0,38.64 16.25,67.61 47.16,88.56 30.91,20.92 63.43,38.64 95.96,49.9l68.31 28.98c69.93,25.76 117.1,53.13 141.5,83.71 24.39,29 37.42,67.64 37.42,115.93 0,64.4 -22.8,114.32 -68.33,149.75 -45.54,33.79 -102.45,51.5 -169.13,51.5 -26.03,0 -52.05,-1.6 -74.82,-4.81 -22.77,-4.84 -43.91,-9.66 -63.42,-17.72 -19.54,-8.05 -39.05,-19.31 -56.94,-32.21 -16.25,-12.87 -34.16,-27.37 -50.42,-45.08l58.56 -54.74zm1214.92 -499.11l-222.83 0 0 642.41 -76.42 0 0 -642.41 -222.83 0 0 -66.01 522.08 0 0 66.01zm686.34 -3.22l-304.13 0 0 241.52 242.31 0 0 59.56 -242.31 0 0 281.76 318.76 0 0 62.79 -396.84 0 0 -708.42 382.21 0 0 62.79zm676.58 645.63l-71.57 0 -182.15 -532.93 0 532.93 -76.44 0 0 -708.42 79.68 0 214.69 629.52 211.43 -629.52 79.7 0 0 708.42 -78.08 0 0 -532.93 -177.26 532.93zm730.25 -296.23l208.18 0 -102.47 -323.63 -105.71 323.63zm74.8 -412.19l74.82 0 237.45 708.42 -86.19 0 -76.45 -241.49 -240.71 0 -76.42 241.49 -78.08 0 245.58 -708.42zm637.55 565.12c22.77,24.16 48.79,45.08 79.7,62.79 30.91,17.72 68.31,27.38 108.96,27.38 47.17,0 84.59,-11.27 112.22,-33.8 27.65,-20.95 42.3,-51.53 42.3,-93.4 0,-38.63 -13.02,-69.22 -39.05,-88.53 -26.02,-19.34 -65.05,-37.06 -115.47,-56.37l-39.03 -16.09c-55.3,-19.34 -100.84,-45.08 -138.24,-77.29 -37.42,-33.82 -55.3,-75.66 -55.3,-130.41 0,-54.74 21.14,-98.21 63.42,-128.79 42.31,-32.22 95.96,-48.32 161.03,-48.32 48.8,0 89.45,6.45 121.97,20.95 34.16,14.47 63.44,35.4 91.09,62.77l-45.56 51.53c-19.51,-17.72 -42.28,-33.82 -68.3,-48.3 -27.63,-14.5 -60.17,-22.55 -97.57,-22.55 -42.3,0 -78.07,9.66 -105.73,28.98 -27.65,19.34 -40.65,45.08 -40.65,75.68 0,38.64 14.63,67.61 45.54,88.56 32.51,20.92 63.42,38.64 97.59,49.9l66.67 28.98c69.94,25.76 117.1,53.13 141.5,83.71 26.03,29 37.4,67.64 37.4,115.93 0,64.4 -22.77,114.32 -68.31,149.75 -45.54,33.79 -102.47,51.5 -169.15,51.5 -26.02,0 -52.02,-1.6 -73.19,-4.81 -22.77,-4.84 -45.54,-9.66 -65.05,-17.72 -19.51,-8.05 -39.02,-19.31 -55.28,-32.21 -17.91,-12.87 -35.79,-27.37 -52.05,-45.08l58.54 -54.74zm1102.69 -505.54l0 590.89 58.56 0c86.2,0 152.88,-27.37 200.04,-78.9 48.79,-53.14 73.19,-130.41 73.19,-231.84 0,-90.16 -22.77,-159.4 -68.31,-207.7 -45.53,-48.31 -113.84,-72.45 -203.29,-72.45l-60.19 0zm76.45 -59.58c113.84,0 198.43,30.61 255.34,91.77 55.31,62.79 82.96,144.91 82.96,249.57 0,117.53 -29.28,209.3 -87.84,272.1 -60.17,62.79 -144.73,94.98 -255.34,94.98l-147.99 0 0 -708.42 152.87 0zm1070.16 62.79l-304.14 0 0 241.52 242.34 0 0 59.56 -242.34 0 0 281.76 317.16 0 0 62.79 -395.21 0 0 -708.42 382.19 0 0 62.79zm699.37 289.81l76.42 0c58.56,0 104.1,-14.5 138.26,-41.87 34.15,-27.37 52.03,-64.4 52.03,-109.48 0,-49.9 -14.63,-85.32 -42.28,-107.87 -27.65,-22.53 -73.19,-33.8 -134.99,-33.8l-89.44 0 0 293.02zm0 57.96l0 297.86 -76.45 0 0 -708.42 193.55 0c73.19,0 130.1,17.71 169.12,53.14 40.68,37.02 60.19,86.95 60.19,152.95 0,54.74 -22.77,101.43 -68.3,143.3 -47.17,40.24 -113.85,61.17 -200.06,61.17l-78.05 0zm751.39 -410.56l0 431.5c0,94.99 16.26,156.17 48.8,181.94 32.51,25.74 78.05,38.63 138.24,38.63 63.42,0 112.21,-12.89 144.75,-38.63 32.51,-25.77 48.77,-86.95 48.77,-180.33l0 -433.11 76.45 0 0 428.27c0,117.53 -22.77,194.83 -69.94,233.46 -47.16,38.64 -115.47,57.95 -204.92,57.95 -89.44,0 -154.52,-19.31 -196.8,-57.95 -42.28,-40.24 -63.42,-117.53 -63.42,-231.85l0 -429.88 78.07 0zm892.89 57.98l0 251.15 71.57 0c61.79,0 110.58,-11.27 143.1,-33.82 32.54,-20.92 48.79,-53.11 48.79,-94.98 0,-40.24 -13,-70.85 -37.4,-91.77 -24.39,-19.32 -71.56,-30.58 -141.49,-30.58l-84.57 0zm0 309.12l0 283.37 123.59 0c53.68,0 95.96,-11.29 125.24,-33.82 29.28,-22.53 43.91,-54.74 43.91,-96.61 0,-45.08 -14.63,-82.11 -43.91,-109.48 -29.28,-28.98 -78.07,-43.46 -146.38,-43.46l-102.45 0zm128.48 -367.1c66.68,0 118.73,16.11 156.12,45.08 37.42,30.59 55.31,74.06 55.31,132.04 0,45.08 -13,78.87 -40.65,104.64 -27.66,24.16 -61.8,40.26 -102.48,48.29l0 1.63c48.8,4.82 89.45,22.53 125.24,54.74 34.15,30.58 52.05,77.27 52.05,135.25 0,57.95 -21.14,103.03 -65.07,136.85 -42.28,33.79 -104.08,49.9 -183.78,49.9l-201.66 0 0 -708.42 204.92 0zm985.59 708.42l-400.09 0 0 -708.42 78.07 0 0 645.63 322.02 0 0 62.79zm304.14 -708.42l78.07 0 0 708.42 -78.07 0 0 -708.42zm953.08 606.99c-58.56,75.67 -135.01,112.69 -234.2,112.69 -94.33,0 -167.52,-35.42 -217.94,-106.24 -48.8,-70.85 -74.82,-159.41 -74.82,-265.68 0,-104.64 27.65,-191.59 81.33,-260.81 55.28,-70.84 128.47,-104.66 221.17,-104.66 86.2,0 154.52,25.76 201.69,78.9l-50.42 51.53c-37.42,-43.48 -89.45,-66.03 -154.52,-66.03 -63.42,0 -115.47,25.76 -156.13,77.29 -40.65,51.51 -60.17,122.35 -60.17,212.52 0,91.77 19.52,167.46 56.92,227.01 39.02,61.19 91.07,91.78 157.75,91.78 71.56,0 131.75,-30.59 180.55,-91.78l48.79 43.48zm323.65 -606.99l78.05 0 0 708.42 -78.05 0 0 -708.42zm513.94 59.58l0 590.89 58.54 0c84.58,0 151.26,-27.37 200.05,-78.9 48.8,-53.14 71.57,-130.41 71.57,-231.84 0,-90.16 -21.15,-159.4 -66.68,-207.7 -45.54,-48.31 -113.85,-72.45 -203.32,-72.45l-60.16 0zm74.81 -59.58c115.48,0 200.04,30.61 255.35,91.77 56.91,62.79 84.56,144.91 84.56,249.57 0,117.53 -29.28,209.3 -87.82,272.1 -60.17,62.79 -144.75,94.98 -256.97,94.98l-148.01 0 0 -708.42 152.89 0zm805.05 412.19l208.2 0 -102.47 -323.63 -105.73 323.63zm74.82 -412.19l74.82 0 237.46 708.42 -86.19 0 -76.45 -241.49 -240.71 0 -76.45 241.49 -78.05 0 245.57 -708.42zm691.23 59.58l0 590.89 58.54 0c84.59,0 151.26,-27.37 200.06,-78.9 48.79,-53.14 71.56,-130.41 71.56,-231.84 0,-90.16 -22.77,-159.4 -66.68,-207.7 -45.56,-48.31 -113.86,-72.45 -203.31,-72.45l-60.17 0zm74.82 -59.58c115.47,0 200.04,30.61 255.34,91.77 56.91,62.79 84.56,144.91 84.56,249.57 0,117.53 -29.28,209.3 -89.44,272.1 -58.56,62.79 -143.13,94.98 -255.34,94.98l-148.01 0 0 -708.42 152.89 0zm1071.79 62.79l-305.77 0 0 241.52 243.97 0 0 59.56 -243.97 0 0 281.76 318.77 0 0 62.79 -395.21 0 0 -708.42 382.21 0 0 62.79z"/>
   <path class="fil3" d="M10616.33 11035.11c0,-492.66 -437.49,-788.9 -751.39,-858.14l0 -9.66c289.5,-64.4 637.55,-305.91 637.55,-769.6 0,-502.33 -408.21,-877.46 -1234.43,-877.46 -413.12,0 -767.67,78.87 -975.85,193.2l0 3104.16c234.2,123.96 582.27,193.2 1014.88,193.2 782.3,0 1309.24,-301.07 1309.24,-975.7zm-722.11 -1597.14c0,408.95 -203.29,616.65 -811.56,600.54l-193.55 -4.84 0 -1098.05c113.84,-40.24 229.32,-59.56 378.95,-59.56 413.1,0 626.16,186.76 626.16,561.91zm89.45 1587.49c0,437.94 -287.86,600.54 -696.09,600.54 -169.15,0 -289.51,-19.32 -398.47,-64.4l0 -1217.19 193.55 -4.82c647.29,-14.5 901.01,217.36 901.01,685.87zm1647.54 -2933.48l-608.27 0 0 3868.91 608.27 0 0 -3868.91zm1174.26 458.85c0,-167.43 -144.76,-301.07 -333.42,-301.07 -185.41,0 -335.04,133.64 -335.04,301.07 0,162.62 149.63,296.26 335.04,296.26 188.66,0 333.42,-133.64 333.42,-296.26zm-30.91 753.5l-606.64 0 0 2656.56 606.64 0 0 -2656.56zm2628.25 2656.56l0 -1891.79c0,-429.88 -263.46,-813.06 -1065.27,-813.06 -453.77,0 -796.94,72.45 -1050.65,191.59l0 2513.26 606.64 0 0 -2252.45c115.47,-43.45 219.55,-74.06 417.98,-74.06 383.82,0 483.03,227.02 483.03,444.38l0 1882.13 608.27 0zm2701.45 0l-1034.39 -1439.37 925.43 -1217.19 -618.04 0 -850.61 1202.69 -9.75 0 0 -2415.04 -603.38 0 0 3868.91 603.38 0 0 -1355.65 9.75 0 896.15 1355.65 681.46 0z"/>
   <path class="fil2" d="M20742.28 11035.11c0,-492.66 -439.12,-788.92 -753.02,-858.14l0 -9.66c289.5,-64.4 637.55,-305.91 637.55,-769.6 0,-502.33 -408.24,-877.48 -1234.45,-877.48 -413.1,0 -767.65,78.89 -975.83,193.22l0 3104.14c234.2,123.98 582.25,193.22 1014.88,193.22 782.28,0 1310.87,-301.09 1310.87,-975.7zm-722.12 -1597.16c0,408.95 -204.94,616.65 -811.58,600.56l-195.15 -4.84 0 -1098.05c115.47,-40.24 229.31,-59.56 378.93,-59.56 413.12,0 627.8,186.76 627.8,561.89zm89.45 1587.51c0,437.92 -289.5,600.54 -697.72,600.54 -169.15,0 -287.87,-19.32 -398.46,-64.4l0 -1217.19 195.15 -4.82c647.32,-14.5 901.03,217.36 901.03,685.87zm3026.72 -389.64c0,-793.74 -357.81,-1379.81 -1115.72,-1379.81 -751.39,0 -1114.07,586.07 -1114.07,1379.81 0,782.48 362.68,1374.99 1114.07,1374.99 753.03,0 1115.72,-592.51 1115.72,-1374.99zm-601.78 -4.82c0,502.33 -79.68,970.86 -513.94,970.86 -417.98,0 -512.31,-468.53 -512.31,-970.86 0,-508.77 84.59,-996.62 512.31,-996.62 434.26,0 513.94,487.85 513.94,996.62zm2813.69 1186.59l0 -1645.46c0,-685.86 -439.15,-916.12 -992.11,-916.12 -422.86,0 -746.51,117.54 -920.55,201.28l139.87 344.53c164.27,-78.88 413.12,-162.6 671.72,-162.6 313.88,0 533.45,94.99 533.45,439.54l0 143.29c-818.07,78.88 -1499.53,280.16 -1499.53,980.52 0,511.99 364.3,808.24 1096.18,808.24 417.98,0 756.28,-78.9 970.97,-193.22zm-567.62 -215.73c-91.08,43.46 -224.45,74.06 -364.32,74.06 -352.93,0 -562.74,-148.14 -562.74,-492.69 0,-483.01 352.93,-606.97 927.06,-676.21l0 1094.84zm2234.67 -2341c-676.6,-20.93 -1014.87,53.13 -1294.61,186.75l0 2513.28 608.27 0 0 -2242.79c138.24,-78.88 362.67,-88.54 567.61,-19.32l118.73 -437.92zm2132.2 2556.73l0 -3725.63 -608.27 0 0 1236.51c-118.73,-33.8 -253.73,-48.3 -403.35,-48.3 -696.09,0 -1174.26,516.83 -1174.26,1384.63 0,843.66 457.01,1346.01 1249.08,1346.01 417.98,0 722.12,-74.08 936.8,-193.22zm-608.27 -251.15c-69.93,45.08 -169.15,59.56 -313.9,59.56 -468.4,0 -661.95,-394.45 -661.95,-995 0,-561.9 178.92,-1011.12 707.49,-1011.12 94.33,0 183.78,9.68 268.36,35.43l0 1911.13z"/>
  </g>
 </g>
</svg>
