<?xml version="1.0" encoding="UTF-8"?>
<!DOCTYPE svg PUBLIC "-//W3C//DTD SVG 1.1//EN" "http://www.w3.org/Graphics/SVG/1.1/DTD/svg11.dtd">
<!-- Creator: CorelDRAW 2017 -->
<svg xmlns="http://www.w3.org/2000/svg" xml:space="preserve" width="297mm" height="210mm" version="1.1" style="shape-rendering:geometricPrecision; text-rendering:geometricPrecision; image-rendering:optimizeQuality; fill-rule:evenodd; clip-rule:evenodd"
viewBox="0 0 29700 21000"
 xmlns:xlink="http://www.w3.org/1999/xlink">
 <defs>
  <style type="text/css">
   <![CDATA[
    .fil5 {fill:#00AFEF}
    .fil4 {fill:#012965}
    .fil3 {fill:#0E85C3}
    .fil2 {fill:#00AFEF;fill-rule:nonzero}
    .fil0 {fill:#3E4095;fill-rule:nonzero}
    .fil1 {fill:#012965;fill-rule:nonzero}
   ]]>
  </style>
   <mask id="id0">
  <linearGradient id="id1" gradientUnits="userSpaceOnUse" x1="19766" y1="11824" x2="19778" y2="9713">
   <stop offset="0" style="stop-opacity:1; stop-color:white"/>
   <stop offset="1" style="stop-opacity:0; stop-color:white"/>
  </linearGradient>
    <rect style="fill:url(#id1)" x="15611" y="8691" width="11178" height="2959"/>
   </mask>
   <mask id="id2">
  <linearGradient id="id3" gradientUnits="userSpaceOnUse" x1="4819" y1="12196" x2="4843" y2="9545">
   <stop offset="0" style="stop-opacity:1; stop-color:white"/>
   <stop offset="1" style="stop-opacity:0; stop-color:white"/>
  </linearGradient>
    <rect style="fill:url(#id3)" x="2987" y="8731" width="5303" height="2875"/>
   </mask>
   <mask id="id4">
  <linearGradient id="id5" gradientUnits="userSpaceOnUse" x1="15906" y1="14270" x2="15895" y2="13757">
   <stop offset="0" style="stop-opacity:1; stop-color:white"/>
   <stop offset="1" style="stop-opacity:0; stop-color:white"/>
  </linearGradient>
    <rect style="fill:url(#id5)" x="954" y="13796" width="27742" height="510"/>
   </mask>
   <mask id="id6">
  <linearGradient id="id7" gradientUnits="userSpaceOnUse" x1="5791" y1="7594" x2="5781" y2="7413">
   <stop offset="0" style="stop-opacity:1; stop-color:white"/>
   <stop offset="1" style="stop-opacity:0; stop-color:white"/>
  </linearGradient>
    <rect style="fill:url(#id7)" x="3710" y="7420" width="3854" height="193"/>
   </mask>
 </defs>
 <g id="Camada_x0020_1">
  <metadata id="CorelCorpID_0Corel-Layer"/>
  <polygon class="fil0" points="1463,13015 1463,13552 1346,13552 1346,13015 1027,13015 1027,12930 1784,12930 1784,13015 "/>
  <path id="1" class="fil0" d="M2549 12930l0 535 509 0 0 -535 115 0 0 474c0,57 -11,96 -34,117 -23,20 -66,31 -129,31l-414 0c-63,0 -106,-10 -129,-31 -23,-21 -34,-60 -34,-116l0 -474 116 0z"/>
  <path id="2" class="fil0" d="M4358 13015l-251 0 0 450 251 0c113,0 193,-18 240,-53 47,-35 70,-94 70,-175 0,-79 -24,-135 -71,-170 -48,-35 -127,-52 -239,-52zm16 -84c64,0 118,4 160,11 42,8 78,20 108,37 45,26 80,62 106,108 26,46 39,96 39,151 0,58 -13,110 -38,157 -25,46 -61,83 -107,110 -29,16 -64,29 -107,36 -43,8 -96,12 -161,12l-384 0 0 -621 384 0z"/>
  <path id="3" class="fil0" d="M5643 13465l578 0 0 -450 -578 0 0 450zm-116 -388c0,-56 11,-95 34,-115 23,-21 66,-31 130,-31l483 0c63,0 106,10 129,31 23,21 34,59 34,116l0 328c0,57 -11,96 -34,117 -23,20 -65,31 -129,31l-483 0c-64,0 -107,-10 -130,-31 -23,-21 -34,-59 -34,-116l0 -328z"/>
  <path id="4" class="fil0" d="M8673 13011l-401 0 0 217 401 0c29,0 48,-5 59,-15 11,-10 16,-27 16,-51l0 -86c0,-24 -5,-41 -16,-51 -11,-10 -30,-15 -59,-15zm-517 541l0 -621 563 0c52,0 90,9 113,29 23,19 35,50 35,92l0 139c0,42 -12,72 -35,92 -23,19 -61,29 -113,29l-447 0 0 242 -116 0z"/>
  <path id="5" class="fil0" d="M9603 13319l376 0 -189 -318 -188 318zm-253 232l381 -621 125 0 388 621 -128 0 -89 -153 -473 0 -89 153 -115 0z"/>
  <path id="6" class="fil0" d="M11441 13011l-401 0 0 218 401 0c29,0 49,-5 60,-14 11,-9 16,-26 16,-49l0 -91c0,-23 -5,-40 -16,-50 -11,-10 -30,-14 -59,-14zm-517 541l0 -621 563 0c52,0 90,9 113,29 23,19 35,50 35,92l0 139c0,42 -12,72 -35,92 -23,19 -61,29 -113,29l-103 0 319 242 -173 0 -284 -242 -205 0 0 242 -116 0z"/>
  <path id="7" class="fil0" d="M12549 13319l376 0 -189 -318 -188 318zm-253 232l381 -621 125 0 388 621 -128 0 -89 -153 -473 0 -89 153 -115 0z"/>
  <path id="8" class="fil0" d="M15473 13015l-484 0 0 450 484 0 0 -155 116 22 0 73c0,57 -11,96 -34,117 -22,20 -65,31 -128,31l-391 0c-63,0 -107,-10 -130,-31 -23,-20 -34,-59 -34,-116l0 -328c0,-57 12,-95 34,-116 23,-21 66,-31 130,-31l391 0c63,0 106,10 128,31 22,20 34,59 34,116l0 59 -116 19 0 -141z"/>
  <path id="9" class="fil0" d="M16456 13465l578 0 0 -450 -578 0 0 450zm-116 -388c0,-56 11,-95 34,-115 23,-21 66,-31 130,-31l483 0c63,0 106,10 129,31 23,21 34,59 34,116l0 328c0,57 -11,96 -34,117 -23,20 -65,31 -129,31l-483 0c-64,0 -107,-10 -130,-31 -23,-21 -34,-59 -34,-116l0 -328z"/>
  <path id="10" class="fil0" d="M17956 13552l0 -621 73 0 522 416c12,9 25,21 38,34 13,13 27,28 41,44 -4,-20 -6,-41 -8,-63 -2,-22 -3,-52 -3,-90l0 -341 107 0 0 621 -65 0 -536 -432c-2,-2 -7,-5 -12,-9 -27,-21 -46,-41 -59,-60 3,19 5,39 6,60 1,21 2,47 2,75l0 366 -107 0z"/>
  <path id="11" class="fil0" d="M19911 13015l-251 0 0 450 251 0c113,0 193,-18 240,-53 47,-35 70,-94 70,-175 0,-79 -24,-135 -71,-170 -48,-35 -127,-52 -239,-52zm16 -84c64,0 118,4 160,11 42,8 78,20 108,37 45,26 80,62 106,108 26,46 39,96 39,151 0,58 -13,110 -38,157 -25,46 -61,83 -107,110 -29,16 -64,29 -107,36 -43,8 -96,12 -161,12l-384 0 0 -621 384 0z"/>
  <path id="12" class="fil0" d="M21196 13465l578 0 0 -450 -578 0 0 450zm-116 -388c0,-56 11,-95 34,-115 23,-21 66,-31 130,-31l483 0c63,0 106,10 129,31 23,21 34,59 34,116l0 328c0,57 -11,96 -34,117 -23,20 -65,31 -129,31l-483 0c-64,0 -107,-10 -130,-31 -23,-21 -34,-59 -34,-116l0 -328z"/>
  <path id="13" class="fil0" d="M22790 13042c2,12 3,25 4,38 1,13 1,31 1,53l0 419 -99 0 0 -621 95 0 339 404 317 -404 107 0 0 621 -107 0 0 -419c0,-6 1,-19 2,-42 2,-22 3,-39 3,-50 -9,16 -16,30 -23,41 -7,11 -13,20 -18,26l-267 346 -30 0 -277 -336c0,0 -2,-2 -3,-4 -20,-25 -35,-49 -44,-72z"/>
  <path id="14" class="fil0" d="M24371 13552l0 -621 116 0 0 621 -116 0zm-32 -688l138 -205 118 0 -186 205 -70 0z"/>
  <path id="15" class="fil0" d="M25303 13552l0 -621 73 0 522 416c12,9 25,21 38,34 13,13 27,28 41,44 -4,-20 -6,-41 -8,-63 -2,-22 -3,-52 -3,-90l0 -341 107 0 0 621 -65 0 -536 -432c-2,-2 -7,-5 -12,-9 -27,-21 -46,-41 -59,-60 3,19 5,39 6,60 1,21 2,47 2,75l0 366 -107 0z"/>
  <polygon id="16" class="fil0" points="26890,13552 26890,12930 27006,12930 27006,13552 "/>
  <path id="17" class="fil0" d="M27929 13465l578 0 0 -450 -578 0 0 450zm-116 -388c0,-56 11,-95 34,-115 23,-21 66,-31 130,-31l483 0c63,0 106,10 129,31 23,21 34,59 34,116l0 328c0,57 -11,96 -34,117 -23,20 -65,31 -129,31l-483 0c-64,0 -107,-10 -130,-31 -23,-21 -34,-59 -34,-116l0 -328z"/>
  <path class="fil1" d="M15627 9503l576 0 0 2104 -576 0 0 -2104zm256 -252l-272 0 380 -560 580 0 -688 560z"/>
  <path id="1" class="fil1" d="M17242 11607l-552 0 0 -2108 1044 0c195,0 356,23 484,68 128,45 227,125 296,238 69,113 104,269 104,466l0 1336 -564 0 0 -1264c0,-43 -2,-83 -6,-122 -4,-39 -13,-80 -26,-124 -13,-44 -45,-77 -96,-98 -51,-21 -129,-32 -236,-32l-448 0 0 1640z"/>
  <path id="2" class="fil1" d="M20478 8731l564 0 0 2875 -1072 0c-203,0 -353,-25 -450,-76 -97,-51 -160,-86 -188,-106 -28,-20 -66,-53 -114,-100 -48,-47 -94,-109 -138,-186 -44,-77 -79,-161 -104,-252 -25,-91 -38,-184 -38,-280l0 -44c0,-299 63,-528 190,-688 127,-160 257,-263 392,-308 135,-45 295,-68 482,-68l476 0 0 -768zm-176 2428l176 0 0 -1200 -128 -4 -156 0 -276 12c-64,0 -140,36 -228,108 -67,67 -111,145 -132,234 -21,89 -32,191 -32,306 0,112 14,205 42,278 28,73 83,136 164,188 81,52 223,78 426,78l72 0 72 0z"/>
  <path id="3" class="fil1" d="M21526 9499l576 0 0 2108 -576 0 0 -2108zm0 -768l576 0 0 524 -576 0 0 -524z"/>
  <path id="4" class="fil1" d="M23665 11155l72 0 584 0 0 452 -748 0c-157,0 -303,-18 -438,-54 -135,-36 -254,-103 -358,-200 -104,-97 -183,-218 -236,-362 -53,-144 -80,-288 -80,-432 0,-101 11,-198 32,-290 21,-92 57,-185 108,-278 51,-93 108,-175 172,-244 93,-91 189,-149 286,-176 97,-27 189,-45 274,-56 85,-11 165,-16 240,-16l748 0 0 456 -584 0 -56 0 -72 0c-136,0 -263,35 -382,106 -119,71 -178,237 -178,498 0,256 61,419 184,490 123,71 267,106 432,106z"/>
  <path id="5" class="fil1" d="M26477 11355c-101,93 -205,159 -312,198 -107,39 -196,65 -268,78 -72,13 -147,20 -224,20 -147,0 -293,-26 -440,-78 -147,-52 -269,-125 -366,-218 -97,-93 -167,-195 -210,-306 -43,-111 -71,-201 -84,-272 -13,-71 -20,-146 -20,-226 0,-152 21,-281 62,-386 41,-105 80,-186 116,-242 36,-56 92,-122 168,-198 76,-76 184,-140 324,-192 140,-52 290,-78 450,-78 152,0 298,25 438,74 140,49 249,112 328,188 79,76 137,143 174,200 37,57 76,137 116,240 40,103 60,234 60,394 0,152 -26,298 -78,438 -52,140 -130,262 -234,366zm-992 -192c21,11 49,19 82,24 33,5 66,8 98,8 115,0 219,-33 312,-100 93,-67 155,-148 186,-244 31,-96 46,-193 46,-292 0,-141 -26,-265 -78,-370 -52,-105 -135,-182 -250,-230 -75,-27 -143,-40 -204,-40 -69,0 -141,15 -216,44 -72,35 -132,79 -180,132 -48,53 -85,119 -110,196 -25,77 -38,167 -38,268 0,136 29,259 86,368 57,109 146,188 266,236z"/>
  <path class="fil2" style="mask:url(#id0)" d="M15627 9503l576 0 0 2104 -576 0 0 -2104zm256 -252l-272 0 380 -560 580 0 -688 560zm1360 2356l-552 0 0 -2108 1044 0c195,0 356,23 484,68 128,45 227,125 296,238 69,113 104,269 104,466l0 1336 -564 0 0 -1264c0,-43 -2,-83 -6,-122 -4,-39 -13,-80 -26,-124 -13,-44 -45,-77 -96,-98 -51,-21 -129,-32 -236,-32l-448 0 0 1640zm3235 -2875l564 0 0 2875 -1072 0c-203,0 -353,-25 -450,-76 -97,-51 -160,-86 -188,-106 -28,-20 -66,-53 -114,-100 -48,-47 -94,-109 -138,-186 -44,-77 -79,-161 -104,-252 -25,-91 -38,-184 -38,-280l0 -44c0,-299 63,-528 190,-688 127,-160 257,-263 392,-308 135,-45 295,-68 482,-68l476 0 0 -768zm-176 2428l176 0 0 -1200 -128 -4 -156 0 -276 12c-64,0 -140,36 -228,108 -67,67 -111,145 -132,234 -21,89 -32,191 -32,306 0,112 14,205 42,278 28,73 83,136 164,188 81,52 223,78 426,78l72 0 72 0zm1224 -1660l576 0 0 2108 -576 0 0 -2108zm0 -768l576 0 0 524 -576 0 0 -524zm2140 2424l72 0 584 0 0 452 -748 0c-157,0 -303,-18 -438,-54 -135,-36 -254,-103 -358,-200 -104,-97 -183,-218 -236,-362 -53,-144 -80,-288 -80,-432 0,-101 11,-198 32,-290 21,-92 57,-185 108,-278 51,-93 108,-175 172,-244 93,-91 189,-149 286,-176 97,-27 189,-45 274,-56 85,-11 165,-16 240,-16l748 0 0 456 -584 0 -56 0 -72 0c-136,0 -263,35 -382,106 -119,71 -178,237 -178,498 0,256 61,419 184,490 123,71 267,106 432,106zm2811 200c-101,93 -205,159 -312,198 -107,39 -196,65 -268,78 -72,13 -147,20 -224,20 -147,0 -293,-26 -440,-78 -147,-52 -269,-125 -366,-218 -97,-93 -167,-195 -210,-306 -43,-111 -71,-201 -84,-272 -13,-71 -20,-146 -20,-226 0,-152 21,-281 62,-386 41,-105 80,-186 116,-242 36,-56 92,-122 168,-198 76,-76 184,-140 324,-192 140,-52 290,-78 450,-78 152,0 298,25 438,74 140,49 249,112 328,188 79,76 137,143 174,200 37,57 76,137 116,240 40,103 60,234 60,394 0,152 -26,298 -78,438 -52,140 -130,262 -234,366zm-992 -192c21,11 49,19 82,24 33,5 66,8 98,8 115,0 219,-33 312,-100 93,-67 155,-148 186,-244 31,-96 46,-193 46,-292 0,-141 -26,-265 -78,-370 -52,-105 -135,-182 -250,-230 -75,-27 -143,-40 -204,-40 -69,0 -141,15 -216,44 -72,35 -132,79 -180,132 -48,53 -85,119 -110,196 -25,77 -38,167 -38,268 0,136 29,259 86,368 57,109 146,188 266,236z"/>
  <path class="fil3" d="M13480 10470c217,808 -545,1330 -1203,1608l-353 141c-55,32 -34,20 -63,44 2935,-102 3965,-2512 1540,-4214 -885,-576 -1929,-925 -892,-1790 -593,16 -2008,644 -2348,1295 -404,775 913,1412 1461,1604 728,256 1635,479 1858,1311z"/>
  <path class="fil4" d="M10597 11767c1116,470 2524,-71 2362,-1055 -81,-494 -598,-774 -1153,-568 -452,168 -836,527 -1424,404 -309,-139 -531,-242 -734,-633 -218,-419 -162,-689 -173,-1204 -180,109 -248,674 -253,924 -18,984 487,1767 1376,2132z"/>
  <path class="fil4" d="M13939 7117c-426,-68 -497,28 -912,41 -693,22 -591,-1174 333,-650 184,104 452,372 579,609z"/>
  <path class="fil1" d="M4311 11607l-1324 0 0 -2875 1312 0c299,0 543,47 732,142 189,95 324,218 404,370 80,152 136,289 168,410 32,121 48,254 48,398l0 176c0,504 -105,843 -315,1018 -210,175 -385,279 -524,312 -140,33 -307,50 -501,50zm-20 -2376l-700 0 0 1876 700 0c123,0 223,-9 300,-26 77,-17 149,-61 216,-130 80,-91 131,-202 154,-334 23,-132 34,-281 34,-446 0,-160 -11,-307 -34,-440 -23,-133 -69,-240 -138,-320 -69,-80 -134,-127 -194,-142 -60,-15 -117,-25 -170,-30 -53,-5 -109,-8 -168,-8z"/>
  <path id="1" class="fil1" d="M6571 11607l-552 0 0 -2108 936 0c171,0 299,24 384,72 85,48 140,113 164,196 24,83 36,197 36,344l0 140 0 128 -528 0 0 -168c0,-109 -7,-182 -20,-218 -13,-36 -39,-61 -76,-74 -35,-5 -65,-9 -92,-12 -27,-3 -71,-4 -132,-4l-120 0 0 1704z"/>
  <polygon id="2" class="fil1" points="8290,11607 7814,11607 7814,11107 8290,11107 "/>
  <path class="fil2" style="mask:url(#id2)" d="M4311 11607l-1324 0 0 -2875 1312 0c299,0 543,47 732,142 189,95 324,218 404,370 80,152 136,289 168,410 32,121 48,254 48,398l0 176c0,504 -105,843 -315,1018 -210,175 -385,279 -524,312 -140,33 -307,50 -501,50zm-20 -2376l-700 0 0 1876 700 0c123,0 223,-9 300,-26 77,-17 149,-61 216,-130 80,-91 131,-202 154,-334 23,-132 34,-281 34,-446 0,-160 -11,-307 -34,-440 -23,-133 -69,-240 -138,-320 -69,-80 -134,-127 -194,-142 -60,-15 -117,-25 -170,-30 -53,-5 -109,-8 -168,-8zm2280 2376l-552 0 0 -2108 936 0c171,0 299,24 384,72 85,48 140,113 164,196 24,83 36,197 36,344l0 140 0 128 -528 0 0 -168c0,-109 -7,-182 -20,-218 -13,-36 -39,-61 -76,-74 -35,-5 -65,-9 -92,-12 -27,-3 -71,-4 -132,-4l-120 0 0 1704zm1720 0l-476 0 0 -500 476 0 0 500z"/>
  <rect class="fil4" x="964" y="13806" width="27722" height="490"/>
  <polygon class="fil5" style="mask:url(#id4)" points="964,14296 28686,14296 28686,13806 964,13806 "/>
  <rect class="fil4" x="3720" y="7430" width="3834" height="173"/>
  <polygon class="fil5" style="mask:url(#id6)" points="3720,7603 7554,7603 7554,7430 3720,7430 "/>
  <polygon class="fil0" points="3777,7134 3777,6339 3923,6339 3923,7014 4526,7014 4526,7134 "/>
  <path id="1" class="fil0" d="M4732 7014l647 0 0 -557 -647 0 0 557zm-146 -486c0,-73 13,-123 40,-149 27,-27 76,-40 150,-40l559 0c73,0 123,13 150,40 27,27 40,76 40,149l0 419c0,73 -13,122 -40,148 -27,26 -77,39 -151,39l-559 0c-74,0 -125,-13 -151,-39 -26,-26 -39,-75 -39,-149l0 -419z"/>
  <path id="2" class="fil0" d="M5861 7134c-75,0 -125,-13 -151,-39 -26,-26 -39,-76 -39,-148l0 -154 146 -30 0 251 411 0 0 -675 146 0 0 608c0,73 -13,122 -40,148 -27,26 -77,39 -151,39l-323 0z"/>
  <path id="3" class="fil0" d="M6457 7134l448 -795 134 0 459 795 -159 0 -101 -186 -535 0 -99 186 -146 0zm307 -300l411 0 -206 -379 -205 379z"/>
 </g>
</svg>
