<?xml version="1.0" encoding="UTF-8"?>
<!DOCTYPE svg PUBLIC "-//W3C//DTD SVG 1.1//EN" "http://www.w3.org/Graphics/SVG/1.1/DTD/svg11.dtd">
<!-- Creator: CorelDRAW 2018 (64 Bit Versão de avaliação) -->
<svg xmlns="http://www.w3.org/2000/svg" xml:space="preserve" width="400px" height="300px" version="1.1" style="shape-rendering:geometricPrecision; text-rendering:geometricPrecision; image-rendering:optimizeQuality; fill-rule:evenodd; clip-rule:evenodd"
viewBox="0 0 29700 21000"
 xmlns:xlink="http://www.w3.org/1999/xlink">
 <defs>
  <style type="text/css">
   <![CDATA[
    .fil1 {fill:#373435}
    .fil0 {fill:#ED3237}
   ]]>
  </style>
 </defs>
 <g id="Camada_x0020_1">
  <metadata id="CorelCorpID_0Corel-Layer"/>
  <g id="_2382914624">
   <path class="fil0" d="M1890.69 5136.18l802.06 0c155.21,0 282.21,134.58 282.21,299.08l0 649.49c0,164.5 -127,299.09 -282.21,299.09l-802.06 0c-155.21,0 -282.21,-134.59 -282.21,-299.09l0 -649.49c0,-164.5 127,-299.08 282.21,-299.08z"/>
   <path class="fil1" d="M1511.93 7973.12l0 5168.87c19.2,589.17 198.65,876.33 787.22,876.33l6817.56 0c1153.59,-17.33 1297.17,-651.06 1277.37,-1589.28l0 -3594.45c-2.48,-472.82 106.44,-1250.13 -1232.81,-1217.95l-3683.55 0 0 -1886.34c-12.39,-243.84 97.77,-580.51 -315.64,-564.42l-738.94 0c-318.14,9.45 -297.31,42.85 -326.77,505.01l0 6357.1c-13.63,194.35 91.57,284.68 315.63,271.09l727.8 0c231.46,-13.31 266.73,-61.58 280.34,-280.35l0 -3510.9 3139.58 0c549.35,3.07 435.27,75.43 459.82,796.43l-14.23 3399.56c-14.85,209.18 89.12,403.51 -356.47,393.61l-5432.52 0c-305.72,6.19 -329.24,-102.73 -337.9,-505.01l0 -4515.35c-26,-261.83 90.33,-472.32 -267.36,-464.14l-750.08 3.71c-283.45,7.43 -336.67,-11.14 -349.05,356.48z"/>
   <path class="fil1" d="M13854.84 13914.35c-205.31,879.1 -94.21,1019.58 -698.09,1024.86l-1366.49 -14.85c-275.09,-15.17 -403.19,69.63 -430.73,222.79l-59.42 475.3c-40.53,150.07 67.78,239.81 393.61,241.37l2168.52 -3.26c1082.6,-1.61 1209.06,-1028.75 1373.94,-1886.8l1247.66 -6030.35c81.12,-398 -57.53,-415.29 -237.65,-415.89l-787.21 -14.85c-191.86,6.19 -261.17,-9.9 -386.18,475.3l-958.03 5064.9c-435.9,0 -634.23,100.59 -809.49,-542.14l-1113.98 -4359.38c-113.88,-356.47 -170.81,-527.28 -460.45,-505l-705.52 0c-309.44,-32.18 -321.82,284.68 -222.8,594.12l1149.81 4272.62c277.49,1031.27 661.59,1474.13 1902.5,1401.26z"/>
   <path class="fil1" d="M19022.88 7118.31c0.56,8.96 0.84,18 0.84,27.08l0 389.56 1901.19 0c171.56,0 311.92,140.35 311.92,311.91l0 393.61c0,171.56 -140.36,311.92 -311.92,311.92l-1901.19 0 0 4433.64 1932.15 0c146.35,0 266.1,107.22 266.1,238.26l0 444.37c0,131.05 -119.75,238.26 -266.1,238.26l-2661.21 0c-34.83,0 -68.15,-6.08 -98.71,-17.1 -322.56,-48.55 -568.42,-274.57 -568.42,-543.93l0 -4793.5 -378.76 0c-171.56,0 -311.91,-140.36 -311.91,-311.92l0 -393.61c0,-171.56 140.35,-311.91 311.91,-311.91l378.76 0 0 -349.27c-9.61,-27.91 -14.86,-57.83 -14.86,-88.9l0 -1641.26c0,-151.15 123.64,-274.78 274.79,-274.78l861.47 0c151.15,0 274.79,123.63 274.79,274.78l0 1641.26c0,7.24 -0.28,14.42 -0.84,21.53z"/>
   <path class="fil1" d="M22915.22 7557.23l3980.63 0c735.23,0 1292.22,606.92 1292.22,1348.72 0,344.13 -7.99,889.49 -1.47,1405.04 4.41,348.27 -137.21,603.04 -531.95,603.04l-3840.81 0 0 -891.19 2606.71 0c179.74,0 326.77,-147.03 326.77,-326.77l0 -891.18c0,-179.74 -147.03,-326.77 -326.77,-326.77l-2784.95 0c-437.84,0 -614.49,37.71 -616.98,552.81 -5.7,1129.53 -51.41,2250.9 -51.41,3435.24l7.43 0 0 192.81c0,257.49 210.64,468.16 468.15,468.16l4204.43 0c317.16,0 518.69,29.28 511.77,359.17 -6.94,331.23 -22.91,546.86 -461.07,546.86l-1002.59 0 -3780.11 0c-735.22,0 -1336.77,-606.92 -1336.77,-1348.72l0 -3778.5c0,-741.8 601.55,-1348.72 1336.77,-1348.72z"/>
  </g>
 </g>
</svg>
