<?xml version="1.0" encoding="UTF-8"?>
<!DOCTYPE svg PUBLIC "-//W3C//DTD SVG 1.1//EN" "http://www.w3.org/Graphics/SVG/1.1/DTD/svg11.dtd">
<!-- Creator: CorelDRAW 2018 (64 Bit Versão de avaliação) -->
<svg xmlns="http://www.w3.org/2000/svg" xml:space="preserve" width="400px" height="300px" version="1.1" style="shape-rendering:geometricPrecision; text-rendering:geometricPrecision; image-rendering:optimizeQuality; fill-rule:evenodd; clip-rule:evenodd"
viewBox="0 0 29700 42000"
 xmlns:xlink="http://www.w3.org/1999/xlink">
 <defs>
  <style type="text/css">
   <![CDATA[
    .fil2 {fill:#373435}
    .fil0 {fill:#6B809B}
    .fil1 {fill:#3766AE}
    .fil3 {fill:#373435;fill-rule:nonzero}
   ]]>
  </style>
 </defs>
 <g id="Camada_x0020_1">
  <metadata id="CorelCorpID_0Corel-Layer"/>
  <g id="_1550121248">
   <g>
    <polygon class="fil0" points="7930.61,28127.22 11387.23,15113 12326.91,11575.1 2770.7,28127.22 "/>
    <polygon class="fil0" points="12326.91,11575.1 21861.12,21171.77 24400.73,23728.01 14876.76,7159.04 "/>
    <polygon class="fil1" points="24400.73,23728.08 11386.29,27204.25 7930.68,28127.22 26929.29,28127.22 "/>
    <polygon class="fil1" points="12326.91,11575.1 21861.12,21171.77 24400.73,23728.01 14876.76,7159.04 "/>
    <polygon class="fil1" points="7930.61,28127.22 11387.23,15113 12326.91,11575.1 2770.7,28127.22 "/>
    <polygon class="fil2" points="11387.16,15113.15 11386.44,27204.32 21860.97,21171.7 "/>
   </g>
   <path class="fil3" d="M5126.38 34800.98l0 -3149.04 527.45 0 0 3149.04 -527.45 0zm3838.26 -2720.17l-1130.92 0 0 2282.64 1130.92 0c510.15,0 871.58,-89.92 1082.56,-268.04 209.25,-178.12 314.73,-475.57 314.73,-888.81 0,-399.47 -107.21,-686.54 -321.65,-862.93 -214.44,-174.66 -572.41,-262.86 -1075.64,-262.86zm76.09 -428.87c288.79,0 529.17,19.02 721.13,57.06 191.95,39.78 354.51,102.03 487.67,188.5 202.33,133.16 363.16,314.74 479.02,546.47 115.8,233.46 172.86,487.67 172.86,762.63 0,293.92 -57.06,558.51 -171.13,793.69 -114.13,236.92 -274.96,421.96 -480.75,556.85 -129.7,83.01 -290.53,143.53 -482.48,183.31 -191.96,39.77 -434.07,60.53 -726.32,60.53l-1734.45 0 0 -3149.04 1734.45 0zm3255.75 3189.03l0 -3149.04 3033.17 0 0 423.68 -2505.72 0 0 875.04 1530.38 0 0 416.7 -1530.38 0 0 1001.28 2528.21 0 0 432.34 -3055.66 0zm4925.14 -1205.92l1694.67 0 -849.1 -1611.67 -845.57 1611.67zm-1141.36 1175.94l1718.88 -3149.04 563.76 0 1748.36 3149.04 -577.6 0 -402.94 -774.74 -2130.46 0 -401.2 774.74 -518.8 0zm7362.41 -2730.9l-1805.35 0 0 1105.04 1805.35 0c129.7,0 219.62,-24.21 268.04,-70.9 46.7,-46.69 70.91,-131.43 70.91,-250.75l0 -458.28c0,-119.32 -24.21,-202.33 -72.63,-252.48 -48.43,-48.42 -136.62,-72.63 -266.32,-72.63zm-2332.8 2740.92l0 -3149.04 2538.59 0c236.92,0 406.39,48.42 510.15,143.53 103.76,96.84 155.64,252.48 155.64,466.92l0 703.84c0,212.71 -51.88,366.62 -155.64,461.66 -103.76,96.84 -273.23,145.26 -510.15,145.26l-461.73 0 1438.73 1227.83 -781.59 0 -1279.7 -1227.83 -926.85 0 0 1227.83 -527.45 0z"/>
  </g>
 </g>
</svg>
