<?xml version="1.0" encoding="UTF-8"?>
<!DOCTYPE svg PUBLIC "-//W3C//DTD SVG 1.0//EN" "http://www.w3.org/TR/2001/REC-SVG-20010904/DTD/svg10.dtd">
<!-- Creator: CorelDRAW 2018 (64 Bit Versão de avaliação) -->
<svg xmlns="http://www.w3.org/2000/svg" xml:space="preserve" width="400px" height="300px" version="1.0" style="shape-rendering:geometricPrecision; text-rendering:geometricPrecision; image-rendering:optimizeQuality; fill-rule:evenodd; clip-rule:evenodd"
viewBox="0 0 32384.66 8462.88"
 xmlns:xlink="http://www.w3.org/1999/xlink">
 <defs>
  <style type="text/css">
   <![CDATA[
    .fil2 {fill:none}
    .fil0 {fill:#00B144}
    .fil1 {fill:#FEFEFE;fill-rule:nonzero}
   ]]>
  </style>
   <clipPath id="id0">
    <path d="M-0 0l32384.66 0 0 8462.88 -32384.66 0 0 -8462.88z"/>
   </clipPath>
 </defs>
 <g id="Camada_x0020_1">
  <metadata id="CorelCorpID_0Corel-Layer"/>
  <path class="fil0" d="M-0 0l32384.66 0 0 8462.88 -32384.66 0 0 -8462.88z"/>
  <g style="clip-path:url(#id0)">
   <g id="_1874676951392">
    <g>
     <path id="1" class="fil1" d="M24918.7 4770.4l0 9.4c-5.1,520.83 -428.79,941.52 -950.9,941.52 -525.25,0 -951.07,-425.69 -951.07,-950.93 0,-525.15 425.82,-951.11 951.07,-951.11 525.28,0 950.94,425.97 950.94,951.11l-0.04 0zm-950.9 -1901.92c-1050.39,0 -1901.88,851.61 -1901.88,1901.96 0,1050.22 851.48,1901.84 1901.88,1901.84 346.6,0 671.47,-93.12 951.27,-255.07l0 255.2 950.82 0 0 -1902.01c0,-1050.43 -851.57,-1901.92 -1902.09,-1901.92z"/>
     <path class="fil1" d="M10281.22 5649.42c-96.25,45.91 -203.81,72.11 -317.69,72.11 -408.39,0 -739.55,-331.19 -739.55,-739.66l0.04 0 0.16 -1162.3 719.86 -0.15c0,-0.17 119.19,-419.14 119.19,-950.82l-839.06 0.17 0 -1112.65c-531.83,0 -951.15,140.52 -951.15,140.52 0,0 0.26,571.46 0.13,971.83l-0.13 0 0 2111.37c0,0.7 0,1.38 0,2.03 0,933.5 756.91,1690.44 1690.5,1690.44 319.61,0 618.27,-88.94 873.21,-243.14 -237.5,-215.07 -428.32,-480.65 -555.52,-779.76z"/>
     <path class="fil1" d="M22474.77 3111.61c-254.86,-154.11 -553.57,-243.14 -873.3,-243.14 -933.46,0 -1690.45,756.97 -1690.45,1690.4 0,0.73 0.08,1.38 0.08,2.03l0 2111.42 950.9 0 0.08 -2113.45 -0.08 0c0,-408.39 331.17,-739.59 739.47,-739.59 113.98,0 221.52,26.16 317.85,72.12 127.2,-299.21 318.02,-564.77 555.45,-779.8z"/>
     <path class="fil1" d="M3736.13 1675.98c-287.14,0 -519.89,232.79 -519.89,519.82 0,287.28 232.74,520.07 519.89,520.07 287.25,0 519.99,-232.78 519.99,-520.07 0,-287.02 -232.74,-519.82 -519.99,-519.82z"/>
     <path class="fil1" d="M6260.95 2868.6c-933.58,0 -1690.6,756.84 -1690.6,1690.35 0,0.6 0.09,1.3 0.09,1.95l0 2111.5 950.93 0 0 -2113.45c0,-408.48 331.19,-739.67 739.58,-739.67 408.59,0 739.66,331.19 739.66,739.67l0 2113.45 950.98 0 0 -2113.45c0,-933.51 -756.89,-1690.35 -1690.64,-1690.35z"/>
     <path class="fil1" d="M3260.7 6672.41l950.98 0 0 -3803.77c-531.92,0 -950.98,140.53 -950.98,140.53l0 3663.24z"/>
     <path class="fil1" d="M14465.37 6672.32l951.02 0 0 -4916.15c-520.36,0.17 -933.3,134.58 -950.19,140.21l-0.83 4775.94z"/>
     <path class="fil1" d="M17702.63 5721.33c-525.16,0 -950.99,-425.82 -950.99,-950.93l0.25 0 0 -7.08c3.84,-522.03 427.95,-943.94 950.74,-943.94 525.4,0 951.14,425.79 951.14,951.02 0,525.1 -425.74,950.93 -951.14,950.93zm0 -2852.85c-346.49,0 -671.01,93.13 -950.74,255.08l-0.25 -1367.39c-521.11,0.17 -934.63,134.99 -950.23,140.21 0,0 -0.79,2871.82 -0.79,2874.05 0,1050.22 851.69,1901.84 1902.01,1901.84 1050.6,0 1902.04,-851.63 1902.04,-1901.84 0,-1050.35 -851.44,-1901.96 -1902.04,-1901.96z"/>
     <path class="fil1" d="M11393.68 4647.28c68.59,-521.08 546.57,-887.8 1067.47,-819.22 108.01,14.21 209.37,46.36 301.66,92.51l-1357.86 1041.91c-20.73,-101.04 -25.5,-207.08 -11.27,-315.2zm2782.9 573.55c-490.49,-194.8 -919.4,-208.89 -919.4,-208.89 -119.06,457.98 -563.29,766.07 -1044.43,702.62 -108.01,-14.12 -209.39,-46.22 -301.66,-92.43l2150.98 -1650.55c-265.16,-570.33 -807.21,-997.1 -1476.93,-1085.26 -1041.13,-137.05 -1996.08,595.85 -2133.21,1636.89 -137.09,1041.1 595.88,1996.12 1636.85,2133.17 961.95,126.71 1850.4,-519.73 2088.03,-1435.51l-0.21 -0.04z"/>
     <path class="fil1" d="M28011.9 4359.52l-625.61 -0.6c-149.03,0 -269.88,-120.77 -269.88,-269.88 0,-148.95 120.85,-269.76 269.88,-269.76l1366.2 0c5.56,-16.97 140.05,-426.58 140.22,-946.85 0,0 -1479.68,-0.13 -1570.8,-0.13 -638.67,0 -1156.4,517.74 -1156.4,1156.44 0,638.7 517.73,1156.97 1156.4,1156.97l625.62 0c149.02,0 269.88,120.79 269.88,269.82 0,149.04 -120.86,269.79 -269.88,269.79l-1549.69 0c-5.71,16.95 -140.17,426.59 -140.25,946.92 0,0 1731.32,0.08 1754.31,0.08 638.68,0 1156.5,-517.65 1156.5,-1156.45 0,-638.62 -517.82,-1156.35 -1156.5,-1156.35z"/>
    </g>
   </g>
  </g>
  <path class="fil2" d="M-0 0l32384.66 0 0 8462.88 -32384.66 0 0 -8462.88z"/>
 </g>
</svg>
