<?xml version="1.0" encoding="UTF-8"?>
<!DOCTYPE svg PUBLIC "-//W3C//DTD SVG 1.1//EN" "http://www.w3.org/Graphics/SVG/1.1/DTD/svg11.dtd">
<!-- Creator: CorelDRAW 2018 (64 Bit Versão de avaliação) -->
<svg xmlns="http://www.w3.org/2000/svg" xml:space="preserve" width="297mm" height="210mm" version="1.1" style="shape-rendering:geometricPrecision; text-rendering:geometricPrecision; image-rendering:optimizeQuality; fill-rule:evenodd; clip-rule:evenodd"
viewBox="0 0 29700 21000"
 xmlns:xlink="http://www.w3.org/1999/xlink">
 <defs>
  <style type="text/css">
   <![CDATA[
    .str2 {stroke:#F58634;stroke-width:100;stroke-miterlimit:22.9256}
    .str0 {stroke:#F58634;stroke-width:346.08;stroke-linecap:round;stroke-linejoin:round;stroke-miterlimit:22.9256}
    .str1 {stroke:#F58634;stroke-width:346.09;stroke-linecap:round;stroke-linejoin:round;stroke-miterlimit:22.9256}
    .fil0 {fill:none;fill-rule:nonzero}
    .fil4 {fill:#FEFEFE}
    .fil3 {fill:#373435}
    .fil6 {fill:#F58634}
    .fil7 {fill:#373435;fill-rule:nonzero}
    .fil1 {fill:#F58634;fill-rule:nonzero}
    .fil2 {fill:url(#id0)}
    .fil5 {fill:url(#id1);fill-rule:nonzero}
   ]]>
  </style>
  <radialGradient id="id0" gradientUnits="userSpaceOnUse" gradientTransform="matrix(1.41421 -0 -0 1.41421 -3293 -4349)" cx="7950.34" cy="10500" r="2236.21" fx="7950.34" fy="10500">
   <stop offset="0" style="stop-opacity:1; stop-color:#FEFEFE"/>
   <stop offset="1" style="stop-opacity:1; stop-color:#E6E7E8"/>
  </radialGradient>
  <linearGradient id="id1" gradientUnits="userSpaceOnUse" x1="12171.31" y1="10542.31" x2="3259.14" y2="10542.31">
   <stop offset="0" style="stop-opacity:1; stop-color:#F58634"/>
   <stop offset="1" style="stop-opacity:1; stop-color:#FEFEFE"/>
  </linearGradient>
 </defs>
 <g id="Camada_x0020_1">
  <metadata id="CorelCorpID_0Corel-Layer"/>
  <g id="_1562667840">
   <g>
    <path class="fil0 str0" d="M10674.01 16052.17c-483.11,251.64 -996.95,436.7 -1526.68,551.83 -533.9,116.04 -1078.47,161.63 -1618.81,133.44 -1688.49,-88.07 -3181.72,-852.51 -4230.76,-2017.02 -1049.05,-1164.51 -1653.98,-2729.16 -1565.91,-4417.65 49.72,-953.21 321.65,-1869.34 778.97,-2682.47 456.15,-811.05 1098.39,-1518.99 1889.89,-2058.11l546.64 804.4c-662.63,451.35 -1201.65,1046.45 -1586.08,1729.97 -383.46,681.86 -611.64,1452.64 -653.6,2257.11 -74.02,1419.09 434.39,2734.11 1316.03,3712.79 881.64,978.67 2136.63,1621.14 3555.72,1695.16 463.27,24.17 921.18,-12.96 1361.45,-108.66 444.77,-96.66 877.32,-252.65 1285.17,-465.06l447.97 864.27z"/>
    <path id="1" class="fil1" d="M10674.01 16052.17c-483.11,251.64 -996.95,436.7 -1526.68,551.83 -533.9,116.04 -1078.47,161.63 -1618.81,133.44 -1688.49,-88.07 -3181.72,-852.51 -4230.76,-2017.02 -1049.05,-1164.51 -1653.98,-2729.16 -1565.91,-4417.65 49.72,-953.21 321.65,-1869.34 778.97,-2682.47 456.15,-811.05 1098.39,-1518.99 1889.89,-2058.11l546.64 804.4c-662.63,451.35 -1201.65,1046.45 -1586.08,1729.97 -383.46,681.86 -611.64,1452.64 -653.6,2257.11 -74.02,1419.09 434.39,2734.11 1316.03,3712.79 881.64,978.67 2136.63,1621.14 3555.72,1695.16 463.27,24.17 921.18,-12.96 1361.45,-108.66 444.77,-96.66 877.32,-252.65 1285.17,-465.06l447.97 864.27z"/>
   </g>
   <path class="fil2" d="M7950.34 6968.66c1949.96,0 3531.34,1581.38 3531.34,3531.34 0,1949.96 -1581.38,3531.36 -3531.34,3531.36 -1949.96,0 -3531.34,-1581.4 -3531.34,-3531.36 0,-1949.96 1581.38,-3531.34 3531.34,-3531.34z"/>
   <path class="fil3" d="M7950.34 8563.47c1069.34,0 1936.55,867.2 1936.55,1936.53 0,1069.34 -867.21,1936.56 -1936.55,1936.56 -1069.34,0 -1936.55,-867.22 -1936.55,-1936.56 0,-1069.33 867.21,-1936.53 1936.55,-1936.53z"/>
   <path class="fil4" d="M7619.99 10010.17l-2772.86 4133.19c-590.44,-525.85 -973.83,-1020.19 -1236.2,-1766.12l4009.06 -2367.07z"/>
   <g>
    <path class="fil0 str1" d="M12171.28 12705.54c-404.69,784.38 -1011.59,1423.09 -1737.83,1865.6 -727.76,443.44 -1573.77,690.45 -2455.02,690.45 -1302.89,0 -2482.75,-528.34 -3336.83,-1382.46 -854.12,-854.08 -1382.46,-2033.94 -1382.46,-3336.83 0,-1302.89 528.34,-2482.74 1382.46,-3336.82 854.08,-854.12 2033.94,-1382.46 3336.83,-1382.46 677.5,0 1339.71,146.5 1945.06,420.6 604.03,273.48 1151.34,675.47 1600.42,1186.95l-778.7 681.38c-348.24,-396.65 -774.93,-709.38 -1247.55,-923.36 -471.06,-213.3 -988.23,-327.3 -1519.23,-327.3 -1016.37,0 -1936.65,412.12 -2602.77,1078.24 -666.12,666.12 -1078.25,1586.41 -1078.25,2602.77 0,1016.37 412.13,1936.66 1078.25,2602.77 666.12,666.12 1586.4,1078.25 2602.77,1078.25 690.31,0 1350.34,-191.87 1915.61,-536.3 567.07,-345.5 1040.83,-844.01 1356.57,-1455.97l920.67 474.49z"/>
    <path id="1" class="fil5" d="M12171.28 12705.54c-404.69,784.38 -1011.59,1423.09 -1737.83,1865.6 -727.76,443.44 -1573.77,690.45 -2455.02,690.45 -1302.89,0 -2482.75,-528.34 -3336.83,-1382.46 -854.12,-854.08 -1382.46,-2033.94 -1382.46,-3336.83 0,-1302.89 528.34,-2482.74 1382.46,-3336.82 854.08,-854.12 2033.94,-1382.46 3336.83,-1382.46 677.5,0 1339.71,146.5 1945.06,420.6 604.03,273.48 1151.34,675.47 1600.42,1186.95l-778.7 681.38c-348.24,-396.65 -774.93,-709.38 -1247.55,-923.36 -471.06,-213.3 -988.23,-327.3 -1519.23,-327.3 -1016.37,0 -1936.65,412.12 -2602.77,1078.24 -666.12,666.12 -1078.25,1586.41 -1078.25,2602.77 0,1016.37 412.13,1936.66 1078.25,2602.77 666.12,666.12 1586.4,1078.25 2602.77,1078.25 690.31,0 1350.34,-191.87 1915.61,-536.3 567.07,-345.5 1040.83,-844.01 1356.57,-1455.97l920.67 474.49z"/>
   </g>
   <path class="fil3" d="M1570.87 10700.15l0 -400.27 3783.72 0 0 400.27 -3783.72 0zm8975.21 0l0 -400.27 3109.26 0 0 400.27 -3109.26 0z"/>
   <g>
    <path class="fil6 str2" d="M11652.13 8941.39l-508.27 725.73 -407.75 0 -505.34 -724.82 0 907.75 -652.92 388.36 0 -2219.98 683.35 0 680.1 970.89 677 -970.89 686.74 0 0 1862.82 -652.91 0 0 -939.86zm2300.35 444.13l-861.81 0 0 499.11 -652.91 -3.82 0 -1433.16 419.78 -429.22 1330.9 0 419.79 429.22 0 1789.7 -655.75 -384.04 0 -467.79zm307.54 -1892.16l-551.11 516.42 -637.5 0 551.09 -516.42 637.52 0zm1698.06 1867.58l-500.39 520.31 -798.9 0 899.95 -931.51 -898.51 -934.25 797.46 0 499.89 519.8 499.89 -519.8 794.63 0 -898.98 934.74 899.48 931.02 -793.69 0 -500.83 -520.31zm1998.94 492.25l-652.92 384.55 0 -2219.31 652.92 0 0 1834.76zm2291.75 -911.8l-508.27 725.73 -407.75 0 -505.34 -724.82 0 907.75 -652.91 388.36 0 -2219.98 683.34 0 680.11 970.9 677 -970.9 686.74 0 0 1862.82 -652.92 0 0 -939.86zm2373.83 444.13l-861.81 0 0 467.67 -652.92 384.55 0 -1790.09 419.79 -429.22 1330.9 0 419.8 429.22 0 1436.54 -655.76 0 0 -498.67zm-8670.12 -516.42l0 -328.39 -861.81 0 0 328.39 861.81 0zm8670.12 0l0 -328.39 -861.81 0 0 328.39 861.81 0z"/>
    <path class="fil7" d="M12230.12 9842.67l-503.03 0 0 -1105.87 -624.54 891.74 -324.99 0 -621.72 -891.74 0 1105.87 -503.02 299.2 0 -2026.94 567.08 0 721.57 1030.09 718.27 -1030.09 570.38 0 0 1727.74zm2303.19 299.2l-505.86 -296.27 0 -498.66 -1011.7 0 0 498.66 -503.03 -2.93 0 -1340.54 378.68 -387.2 1263.22 0 378.69 387.2 0 1639.74zm-505.86 -1176.27l0 -463.47 -1011.7 0 0 463.47 1011.7 0zm56.52 -1375.73l-406.94 381.33 -429.55 0 406.94 -381.33 429.55 0zm3004.02 2252.8l-594.87 0 -535.05 -555.86 -534.58 555.86 -600.05 0 834.61 -863.86 -833.67 -866.81 599.11 0 534.11 555.38 534.11 -555.38 596.28 0 -834.13 867.29 834.13 863.38zm794.1 2.93l-503.02 296.27 0 -2026.94 503.02 0 0 1730.67zm2944.68 -2.93l-503.03 0 0 -1105.87 -624.54 891.74 -324.99 0 -621.72 -891.74 0 1105.87 -503.02 299.2 0 -2026.94 567.08 0 721.57 1030.09 718.26 -1030.09 570.39 0 0 1727.74zm2376.66 2.93l-505.86 0 0 -498.66 -1011.7 0 0 498.66 -503.03 296.27 0 -1639.74 378.68 -387.2 1263.22 0 378.69 387.2 0 1343.47zm-505.86 -880l0 -463.47 -1011.7 0 0 463.47 1011.7 0z"/>
    <polygon class="fil4" points="12229.27,8114.87 12230.43,9842.62 12148.82,9842.39 "/>
    <polygon class="fil4" points="11728.36,8738.68 11101.27,9630.35 10985.3,9630.35 "/>
    <polygon class="fil4" points="10155.75,8736.6 10155.87,9843.08 10067.17,9895.5 "/>
    <polygon class="fil4" points="20825.55,8114.87 20826.71,9842.62 20745.1,9842.39 "/>
    <polygon class="fil4" points="20324.64,8738.68 19697.55,9630.35 19581.58,9630.35 "/>
    <polygon class="fil4" points="18752.03,8736.6 18752.15,9843.08 18663.44,9895.5 "/>
    <polygon class="fil4" points="17881.16,8117.06 17881.72,9846.29 17797.47,9895.19 "/>
    <polygon class="fil4" points="14530.57,10139.37 14532.96,8503.82 14451.25,10094.27 "/>
    <polygon class="fil4" points="13019.07,9347.12 14027.58,9298.95 14027.46,9347.73 "/>
    <polygon class="fil4" points="13014.93,9347.99 12945.81,9844.88 13016.21,9844.88 "/>
    <polygon class="fil4" points="13677.15,7970.34 14081.37,7590.55 13572.49,7970.34 "/>
    <polygon class="fil4" points="16256.89,8979.79 17087.63,9841.6 17026.25,9841.6 "/>
    <polygon class="fil4" points="16253.67,8981.3 17087.72,8112.46 16992.06,8112.46 "/>
    <polygon class="fil4" points="15955.24,9286.57 15423.39,9841.16 15311.17,9841.16 "/>
    <polygon class="fil4" points="23202.39,8507.08 23203.11,9845.4 23086.92,9844.64 "/>
    <polygon class="fil4" points="21685.57,9347.33 22696.36,9274.71 22696.36,9348.68 "/>
    <polygon class="fil4" points="21684.48,9343.75 21684.94,9845.43 21610.21,9889.14 "/>
   </g>
   <path class="fil1" d="M11959.86 11005.52l944.96 0c42.89,0 78.88,14.99 108,44.97 29.38,30.24 43.94,67.73 43.94,112.7l0 657.76c0,44.44 -14.56,81.91 -43.94,112.18 -29.12,30.25 -65.11,45.5 -108,45.5l-944.96 0c-43.4,0 -79.67,-15.25 -108.79,-45.5 -29.37,-30.27 -43.93,-67.74 -43.93,-112.18l0 -657.76c0,-44.97 14.56,-82.46 43.93,-112.7 29.12,-29.98 65.39,-44.97 108.79,-44.97zm9688.31 157.4l0 60.51c0,30.25 -8.74,54.34 -26.48,71.74 -17.47,17.4 -42.08,26.23 -73.58,26.23l-218.63 0c-21.72,0 -38.92,-3.73 -51.62,-10.97 -12.7,-7.22 -25.15,-21.15 -37.59,-41.5l0 -0.79c-7.68,-12.59 -17.73,-18.74 -30.17,-18.74l-520.67 0c-9.77,0 -16.4,1.87 -19.83,5.34 -3.45,3.75 -5.03,10.99 -5.03,21.97l0 430.73c0,10.45 1.58,17.4 4.75,20.62 2.91,3.48 9.8,5.09 20.11,5.09l520.67 0c9.26,0 15.87,-1.61 19.84,-5.09 3.72,-3.49 8.22,-11.79 13.51,-25.44 6.62,-19.27 16.4,-32.65 29.11,-40.43 12.71,-7.48 31.51,-11.23 56.92,-11.23l218.63 0c31.5,0 56.11,8.83 73.58,26.24 17.74,17.4 26.48,41.49 26.48,71.74l0 72.28c0,64.78 -21.71,118.86 -64.85,162.5 -43.15,43.64 -96.62,65.58 -160.14,65.58l-944.96 0c-64.05,0 -118.05,-21.94 -161.74,-65.85 -43.67,-43.91 -65.62,-97.98 -65.62,-162.23l0 -658.3c0,-64.79 21.95,-118.86 65.62,-162.5 43.69,-43.63 97.69,-65.58 161.74,-65.58l944.96 0c63.52,0 116.99,21.95 160.14,65.58 43.14,43.64 64.85,97.71 64.85,162.5zm-1169.95 -192.75c-53.73,0 -99,18.47 -135.79,55.15 -36.79,36.95 -55.06,82.72 -55.06,137.6l0 658.3c0,54.88 18.27,100.66 55.06,137.61 36.79,36.66 82.06,55.15 135.79,55.15l944.96 0c53.73,0 98.73,-18.49 134.46,-55.15 36,-36.95 53.99,-82.73 53.99,-137.61l0 -72.28c0,-20.35 -5.56,-35.88 -16.4,-46.59 -10.86,-10.69 -26.48,-16.06 -47.12,-16.06l-218.63 0c-18.54,0 -33.36,4.56 -44.21,13.65 -10.85,9.12 -16.14,21.43 -16.14,36.41 0,6.69 -5.83,13.93 -17.48,21.16 -11.65,7.22 -25.4,10.96 -41.55,10.96l-520.67 0c-20.89,0 -36.51,-5.07 -47.1,-15.52 -10.59,-10.44 -15.87,-25.7 -15.87,-45.51l0 -430.73c0,-20.35 5.54,-35.88 16.4,-46.6 10.86,-10.7 26.2,-16.06 46.57,-16.06l520.67 0c14.56,0 25.93,2.41 34.4,6.97 8.74,4.81 16.69,13.66 24.63,26.78 0.52,1.06 1.05,2.13 2.11,3.74 13.49,23.02 32.83,34.53 58.24,34.53l218.63 0c20.64,0 36.26,-5.36 47.12,-16.06 10.84,-10.71 16.4,-26.24 16.4,-46.58l0 -60.51c0,-54.88 -17.99,-100.65 -53.99,-137.6 -35.73,-36.68 -80.73,-55.15 -134.46,-55.15l-944.96 0zm0 35.35l944.96 0c42.88,0 78.88,14.99 108.25,44.97 29.12,30.24 43.68,67.73 43.68,112.43l0 60.51c0,9.91 -1.85,16.86 -5.29,20.61 -3.7,4.02 -10.85,6.7 -21.19,8.3l-219.15 0c-6.63,0 -11.92,-0.8 -15.62,-2.67 -3.45,-1.87 -6.89,-5.63 -10.06,-11.52 -15.35,-25.97 -29.38,-42.56 -42.09,-49.26 -12.71,-6.69 -29.92,-10.17 -51.61,-10.17l-520.67 0c-30.69,0 -55.05,8.83 -73.04,26.76 -18.26,17.69 -27.26,41.51 -27.26,71.23l0 430.73c0,30.25 9,54.35 26.73,71.75 18,17.4 42.35,26.23 73.57,26.23l520.67 0c25.41,0 44.73,-4.54 58.23,-13.38 13.23,-8.84 25.14,-27.31 35.47,-55.41 2.11,-5.9 4.76,-9.65 8.19,-11.79 3.46,-2.14 9.28,-3.21 17.49,-3.21l218.63 0c10.32,0 17.2,1.87 21.18,5.89 3.97,3.76 5.82,10.98 5.82,21.42l0 72.28c0,44.17 -14.56,81.64 -43.68,111.91 -29.37,30.25 -65.37,45.5 -108.25,45.5l-944.96 0c-43.41,0 -79.67,-15.25 -108.8,-45.5 -29.37,-30.27 -43.93,-67.74 -43.93,-111.91l0 -658.3c0,-44.7 14.56,-82.19 43.93,-112.43 29.13,-29.98 65.39,-44.97 108.8,-44.97zm662 1043.78c38.11,0 68.03,12.31 89.2,36.94 21.18,24.37 31.77,59.17 31.77,104.15l0 141.35c0,47.92 -10.59,84.86 -31.51,110.83 -20.91,25.96 -50.82,38.81 -89.46,38.81l-383.01 0c-29.39,0 -53.47,-10.97 -72,-32.66 -18.8,-21.69 -28.06,-50.06 -28.06,-84.85 0,-34.54 9.26,-62.65 28.06,-84.34 18.53,-21.67 42.61,-32.66 72,-32.66l43.41 0c12.97,0 21.44,-1.07 25.67,-3.2 3.97,-2.15 6.08,-5.9 6.08,-11.78 0,-2.41 -1.84,-11.25 -5.81,-25.71 -3.97,-14.72 -5.83,-27.84 -5.83,-39.35 0,-36.94 8.47,-65.85 25.68,-86.47 16.95,-20.62 40.75,-31.06 71.47,-31.06l222.34 0zm-18 36.94l-189.78 0c-22.77,0 -40.5,7.24 -53.74,21.43 -13.23,14.45 -19.85,34.26 -19.85,59.16 0,24.63 6.62,44.16 19.85,58.62 13.24,14.19 30.97,21.42 53.74,21.42l100.05 0c6.09,0 10.58,1.34 13.23,4.02 2.37,2.41 3.71,6.97 3.71,13.38 0,7.23 -1.34,12.32 -3.71,15.26 -2.65,2.96 -7.14,4.3 -13.23,4.3l-265.23 0c-22.75,0 -40.5,7.22 -53.74,21.4 -13.23,14.45 -19.84,34.01 -19.84,58.37 0,24.64 6.61,43.9 19.84,58.09 13.24,14.18 30.99,21.15 53.74,21.15l354.96 0c34.15,0 59.56,-10.18 76.49,-30.53 16.68,-20.34 25.15,-50.86 25.15,-91.55l0 -116.99c0,-37.75 -8.73,-66.65 -26.46,-87.01 -17.49,-20.34 -42.62,-30.52 -75.18,-30.52zm-18.53 36.96c28.32,0 49.5,8.02 62.99,23.82 13.78,15.8 20.65,40.16 20.65,72.28l0 85.66c0,36.68 -6.35,62.38 -19.05,77.91 -12.44,15.25 -33.62,23.03 -63,23.03l-327.17 0c-18.52,0 -31.23,-2.94 -37.85,-9.12 -6.61,-5.88 -10.05,-16.85 -10.05,-33.18 0,-16.06 3.44,-27.3 10.32,-33.46 7.15,-6.17 19.59,-9.38 37.58,-9.38l254.38 0c19.06,0 32.82,-4.28 41.02,-12.86 8.21,-8.82 12.44,-23.28 12.44,-43.63 0,-19.53 -4.23,-33.46 -12.44,-41.76 -8.2,-8.29 -21.96,-12.58 -41.02,-12.58l-90.54 0c-17.73,0 -29.9,-3.22 -36.51,-9.38 -6.63,-6.15 -10.06,-17.4 -10.06,-33.72 0,-16.59 3.43,-28.1 10.06,-34.28 6.61,-6.15 18.78,-9.35 36.51,-9.35l161.74 0zm1173.91 -599.4c-6.34,12.31 -11.12,23.82 -14.56,34.54 -3.17,10.44 -5.03,19.26 -5.03,26.5 0,18.73 6.88,33.19 20.65,43.1 13.76,9.9 33.35,14.99 59.29,14.99l363.69 0c25.41,0 44.47,-5.09 57.7,-14.99 13.23,-9.91 19.86,-24.37 19.86,-43.1 0,-6.7 -1.59,-14.99 -4.78,-24.63 -2.91,-9.65 -7.67,-21.96 -13.76,-36.41l-173.9 -344.82c-7.14,-15.79 -14.03,-26.22 -20.38,-31.05 -6.62,-5.08 -14.3,-7.48 -23.82,-7.48l-45.53 0c-10.06,0 -18.27,2.66 -25.41,8.28 -6.88,5.37 -14.02,15.53 -21.17,30.25l-172.85 344.82zm63.52 83.79c-16.14,0 -27.52,-2.15 -34.14,-6.16 -6.61,-4.28 -10.05,-10.71 -10.05,-19.81 0,-4.55 0.79,-9.63 2.38,-14.72 1.58,-5.36 4.76,-13.13 10.04,-23.56l169.67 -339.99c4.78,-9.36 9.01,-16.06 13.25,-20.08 4.24,-4.02 8.73,-5.89 14.02,-5.89l27 0c4.78,0 9.27,2.15 13.76,6.16 4.25,4.28 8.48,10.72 12.71,19l170.47 340.8c4.24,8.83 7.41,16.34 9.26,22.75 2.11,6.16 3.17,11.51 3.17,15.53 0,9.1 -3.43,15.53 -10.06,19.81 -6.6,4.01 -17.99,6.16 -34.14,6.16l-357.34 0zm14.03 -35.34l327.17 0c5.03,0 8.72,-0.53 11.11,-1.87 2.39,-1.34 3.44,-3.48 3.44,-5.89 0,-1.61 -0.26,-3.21 -0.78,-5.09 -0.55,-1.87 -1.6,-5.09 -3.72,-9.9l-163.58 -328.21c-1.58,-2.41 -3.17,-4.3 -4.76,-5.36 -1.58,-1.07 -3.45,-1.6 -5.3,-1.6 -1.58,0 -3.17,0.53 -4.76,1.87 -1.58,1.34 -2.64,2.94 -3.17,4.29l-165.18 329.01c-1.31,3.21 -2.64,6.16 -3.44,8.56 -0.78,2.68 -1.06,4.82 -1.06,6.43 0,2.41 1.06,4.55 3.45,5.89 2.37,1.34 5.83,1.87 10.58,1.87zm-562.2 406.38c-4.25,0 -7.15,-0.8 -9.26,-2.4 -2.13,-1.61 -3.18,-3.75 -3.18,-6.97 0,-3.75 0.27,-6.69 0.79,-9.09 0.53,-2.42 1.32,-4.29 2.39,-5.9l504.77 -926.01c4.49,-8.82 9.52,-14.98 14.55,-17.93 5.28,-3.2 12.44,-4.81 21.71,-4.81l401 0c9.28,0 16.42,1.61 21.71,4.81 5.03,2.95 10.06,9.11 14.57,17.93l492.32 926.81c1.06,1.6 2.11,3.47 2.91,5.89 0.79,2.42 1.33,5.09 1.85,8.3 -0.52,3.22 -1.85,5.36 -4.23,6.97 -2.39,1.6 -5.83,2.4 -10.59,2.4l-231.62 0c-8.45,0 -15.6,-1.87 -21.69,-5.89 -6.36,-4.02 -11.11,-9.63 -14.82,-16.86l-44.21 -91.84c-9.79,-18.19 -21.96,-31.85 -36.52,-40.69 -14.29,-8.82 -32.04,-13.38 -52.68,-13.38l-645.85 0c-20.66,0 -38.38,4.56 -53.2,13.38 -14.56,8.84 -26.74,22.5 -36,40.69l-46.59 91.84c-3.43,8.29 -7.94,14.18 -13.49,17.67 -5.31,3.47 -12.45,5.08 -21.19,5.08l-233.45 0zm-14.04 35.35l251.2 0c15.09,0 27.54,-3.5 37.59,-10.18 10.06,-6.97 19.32,-18.2 27.52,-33.74l41.3 -81.65c7.67,-14.99 16.67,-25.97 27.01,-32.93 10.31,-6.69 23.02,-10.17 38.1,-10.17l636.33 0c15.08,0 27.52,3.48 37.84,10.17 10.07,6.96 19.07,17.94 27.53,32.93l41.03 82.45c7.68,14.47 16.67,25.43 26.73,32.4 10.06,7.22 22.77,10.72 38.38,10.72l251.2 0c15.87,0 27.26,-1.89 34.15,-5.9 6.61,-4.01 10.05,-10.72 10.05,-20.07 0,-4.56 -1.06,-10.44 -3.17,-17.15 -2.12,-6.95 -5.03,-14.45 -9.28,-22.75l-497.08 -936.44c-8.74,-14.98 -18,-25.7 -27.53,-32.12 -9.53,-6.17 -21.98,-9.38 -37.58,-9.38l-410.02 0c-16.14,0 -28.84,2.95 -38.12,9.12 -9.25,5.88 -18.26,16.85 -27,32.38l-507.94 936.44c-4.23,8.3 -7.14,15.8 -9.26,22.75 -2.13,6.71 -3.17,12.59 -3.17,17.15 0,9.35 3.43,16.06 10.06,20.07 6.86,4.01 18.25,5.9 34.13,5.9zm-62.2 -85.41l509.53 -939.66c10.33,-19.27 22.51,-33.19 36.28,-41.49 13.49,-8.29 31.22,-12.58 52.93,-12.58l419.55 0c20.63,0 38.1,4.29 52.39,12.85 14.03,8.84 26.47,22.48 36.8,41.22l498.69 939.66c6.08,11.51 11.11,23.03 14.55,34.54 3.7,11.51 5.56,20.87 5.56,28.1 0,18.74 -6.62,33.2 -20.11,43.11 -13.51,9.9 -33.37,14.98 -59.03,14.98l-260.72 0c-20.12,0 -37.32,-4.54 -51.35,-13.38 -14.3,-8.83 -26.47,-22.75 -36.27,-41.5l-45.52 -91.02c-4.25,-8.29 -9.27,-14.18 -14.82,-17.67 -5.83,-3.47 -12.97,-5.07 -21.71,-5.07l-628.91 0c-8.74,0 -15.63,1.6 -20.91,5.07 -5.03,3.49 -9.8,9.38 -14.03,17.67l-46.34 91.02c-9.25,18.75 -21.16,32.67 -35.71,41.5 -14.57,8.84 -32.05,13.38 -52.68,13.38l-259.15 0c-25.67,0 -45.51,-5.08 -59.28,-14.98 -13.77,-9.91 -20.64,-24.37 -20.64,-43.11 0,-8.3 1.84,-18.2 5.55,-29.44 3.45,-11.25 8.73,-22.23 15.35,-33.2zm-9545.62 -757.61c-30.7,0 -55.06,8.84 -73.04,26.24 -18.28,17.66 -27.27,41.48 -27.27,72l0 444.4c0,30.24 8.99,54.08 26.73,71.75 18,17.4 42.35,26.23 73.58,26.23l520.12 0c31.24,0 55.6,-8.83 73.59,-26.76 17.74,-17.68 26.74,-41.51 26.74,-71.22l0 -444.4c0,-30.52 -9,-54.34 -26.74,-72 -17.99,-17.4 -42.35,-26.24 -73.59,-26.24l-520.12 0zm-211.23 -200.79c-53.73,0 -98.99,18.47 -135.78,55.42 -36.8,36.68 -55.06,82.72 -55.06,137.6l0 657.76c0,54.87 18.26,100.93 55.06,137.59 36.79,36.95 82.05,55.44 135.78,55.44l944.96 0c53.73,0 98.48,-18.49 134.48,-55.44 35.98,-36.66 53.99,-82.72 53.99,-137.59l0 -657.76c0,-54.88 -18.01,-100.92 -53.99,-137.6 -36,-36.95 -80.75,-55.42 -134.48,-55.42l-944.96 0zm211.23 236.13l520.12 0c20.92,0 36.53,5.35 47.39,16.06 10.85,10.69 16.4,26.23 16.4,46.84l0 444.4c0,20.35 -5.55,35.87 -16.4,46.59 -10.86,10.7 -26.47,16.06 -47.39,16.06l-520.12 0c-20.38,0 -35.72,-5.36 -46.58,-16.06 -10.86,-10.72 -16.4,-26.24 -16.4,-46.59l0 -444.4c0,-20.61 5.54,-36.15 16.4,-46.84 10.86,-10.71 26.2,-16.06 46.58,-16.06zm-24.88 62.9l0 444.4c0,10.97 1.58,18.21 5.04,21.96 3.43,3.47 10.06,5.34 19.84,5.34l520.12 0c10.06,0 16.69,-1.61 20.39,-4.81 3.44,-2.94 5.29,-8.57 5.29,-16.33l0 -6.16 0 -444.4c0,-10.44 -1.59,-17.4 -5.03,-20.87 -3.44,-3.49 -10.33,-5.1 -20.65,-5.1l-520.12 0c-10.33,0 -17.21,1.61 -20.12,5.1 -3.18,3.47 -4.76,10.43 -4.76,20.87zm983.6 -106.01l0 657.76c0,64.78 -21.7,119.13 -64.84,162.77 -43.16,43.64 -96.63,65.58 -160.15,65.58l-944.96 0c-64.04,0 -118.05,-21.94 -161.73,-65.85 -43.66,-43.91 -65.63,-98.25 -65.63,-162.5l0 -657.76c0,-65.06 21.97,-119.13 65.63,-162.77 43.68,-43.63 97.69,-65.58 161.73,-65.58l944.96 0c63.52,0 116.99,21.95 160.15,65.58 43.14,43.64 64.84,97.71 64.84,162.77zm478.82 792.69c0,7.76 -1.85,13.65 -5.28,17.13 -3.71,3.75 -9.27,5.62 -16.41,5.62l-207 0c-7.66,0 -13.23,-1.61 -16.67,-5.08 -3.44,-3.49 -5.02,-9.38 -5.02,-17.67l0 -930.02c0,-7.22 1.58,-12.58 4.75,-15.53 2.91,-3.2 8.74,-4.81 16.94,-4.81l481.47 0c8.75,0 15.63,1.61 20.66,4.81 4.76,2.95 10.06,8.84 15.88,17.14l463.21 689.09c10.33,14.72 21.19,25.41 32.29,31.85 11.12,6.68 23.56,9.9 37.59,9.9 22.76,0 40.5,-7.5 52.93,-22.75 12.45,-15.27 18.54,-36.96 18.54,-65.06l0 -644.64c0,-7.22 1.86,-12.58 5.55,-15.53 3.45,-3.2 9.28,-4.81 16.94,-4.81l206.21 0c8.2,0 14.03,1.61 17.46,4.81 3.43,2.95 5.03,8.31 5.03,15.53l0 930.02c0,7.76 -1.86,13.65 -5.29,17.13 -3.71,3.75 -9.53,5.62 -17.2,5.62l-480.68 0c-8.74,0 -15.88,-1.61 -20.92,-4.81 -5.3,-2.96 -10.33,-9.11 -15.62,-17.94l-463.22 -689.89c-10.06,-14.72 -20.63,-25.43 -32.02,-32.38 -11.38,-6.71 -24.61,-10.18 -40.23,-10.18 -21.71,0 -38.91,8.02 -51.35,23.83 -12.44,16.06 -18.54,38.28 -18.54,66.38l0 642.24zm-234.77 -985.71c-19.86,0 -33.36,4.02 -40.77,11.78 -7.67,7.77 -11.38,21.96 -11.38,42.31l0 934.84c0,20.34 3.71,34.53 11.38,42.82 7.41,8.03 20.91,12.06 40.77,12.06l219.16 0c19.33,0 32.82,-4.03 40.5,-12.06 7.68,-8.29 11.65,-22.48 11.65,-42.82l0 -650.01c0,-14.19 2.91,-25.44 9,-34.26 5.82,-8.57 13.49,-12.85 22.77,-12.85 9.78,0 18.26,2.14 25.13,6.69 7.15,4.28 14.3,11.78 21.44,22.22l457.13 679.97c11.38,18.21 21.44,30 29.92,35.34 8.46,5.09 20.11,7.78 34.4,7.78l492.33 0c19.86,0 33.61,-4.03 41.3,-12.06 7.67,-8.29 11.64,-22.48 11.64,-42.82l0 -934.84c0,-20.35 -3.97,-34.54 -11.64,-42.31 -7.69,-7.76 -21.44,-11.78 -41.3,-11.78l-218.37 0c-19.86,0 -33.63,4.02 -41.29,11.78 -7.68,7.77 -11.65,21.96 -11.65,42.31l0 650.79c0,14.72 -3.17,25.96 -9.27,34.27 -6.34,8.03 -14.82,12.05 -25.67,12.05 -8.73,0 -16.15,-2.14 -22.49,-6.16 -6.09,-4.28 -12.97,-11.77 -20.12,-22.76l-457.13 -680.78c-11.38,-17.66 -21.18,-29.18 -29.63,-34.01 -8.22,-5.08 -20.13,-7.49 -35.48,-7.49l-492.33 0zm307.83 341.87l0 651.6c0,28.38 -6.89,49.79 -20.91,63.99 -14.03,14.45 -34.94,21.67 -62.99,21.67l-228.71 0c-28.05,0 -48.95,-7.22 -63.25,-21.67 -14.29,-14.2 -21.44,-35.61 -21.44,-63.99l0 -943.94c0,-28.37 7.15,-49.53 21.44,-63.71 14.3,-14.19 35.2,-21.15 63.25,-21.15l503.19 0c19.6,0 35.48,3.48 47.38,10.17 11.91,6.97 25.16,21.43 40.24,43.9l460.3 684.53c0.53,1.07 1.07,1.87 1.85,2.41 0.8,0.55 1.86,0.81 2.65,0.81 2.12,0 3.43,-0.26 3.97,-1.08 0.52,-0.8 0.79,-2.14 0.79,-3.74l0 -652.14c0,-28.37 7.15,-49.53 21.44,-63.71 14.29,-14.19 35.21,-21.15 63.26,-21.15l228.7 0c27.53,0 48.16,6.96 62.46,21.15 14.3,14.18 21.44,35.34 21.44,63.71l0 943.94c0,28.38 -7.14,49.79 -21.44,63.99 -14.3,14.45 -34.93,21.67 -62.46,21.67l-503.97 0c-19.6,0 -35.21,-3.47 -46.86,-10.16 -11.65,-6.97 -24.87,-21.69 -39.97,-44.72l-460.3 -683.72c-1.06,-1.61 -1.84,-2.94 -2.65,-3.75 -0.79,-0.8 -1.59,-1.06 -1.85,-1.06 -2.11,0 -3.44,0.26 -3.97,1.06 -0.53,0.81 -1.05,2.67 -1.59,5.09zm1646.14 643.84c0,7.76 -1.86,13.65 -5.57,17.13 -3.44,3.75 -9.26,5.62 -16.94,5.62l-221.01 0c-7.68,0 -13.23,-1.61 -16.69,-5.08 -3.43,-3.49 -5.02,-9.38 -5.02,-17.67l0 -930.02c0,-7.22 1.59,-12.58 4.76,-15.53 2.91,-3.2 8.74,-4.81 16.95,-4.81l1041.83 0c7.15,0 12.44,1.61 15.35,4.81 3.17,2.95 4.76,8.31 4.76,15.53l0 123.94c0,7.77 -1.59,13.39 -4.76,16.33 -2.91,3.23 -8.2,4.83 -15.35,4.83l-714.41 0c-28.05,0 -48.96,7.22 -63,21.69 -14.03,14.18 -20.9,35.33 -20.9,63.17l0 70.41c0,28.11 6.87,49.52 20.9,63.71 14.04,14.46 34.95,21.69 63,21.69l714.41 0c7.15,0 12.44,1.61 15.35,5.08 3.17,3.47 4.76,9.37 4.76,17.66l0 123.16c0,7.75 -1.59,13.38 -4.76,16.32 -2.91,3.22 -8.2,4.83 -15.35,4.83l-714.41 0c-28.05,0 -48.96,7.23 -63,21.69 -14.03,14.18 -20.9,35.32 -20.9,63.17l0 292.34zm-249.61 -985.71c-19.85,0 -33.35,4.02 -40.77,11.78 -7.68,7.77 -11.38,21.96 -11.38,42.31l0 934.84c0,20.34 3.7,34.53 11.38,42.82 7.42,8.03 20.92,12.06 40.77,12.06l233.19 0c19.85,0 33.62,-4.03 41.3,-12.06 7.66,-8.29 11.64,-22.48 11.64,-42.82l0 -290.2c0,-20.9 3.97,-35.35 11.64,-43.11 7.69,-7.76 21.18,-11.78 40.5,-11.78l714.14 0c19.86,0 33.63,-4.01 41.29,-12.04 7.68,-8.31 11.65,-22.5 11.65,-42.84l0 -127.96c0,-20.87 -3.97,-35.33 -11.65,-43.11 -7.66,-7.76 -21.43,-11.78 -41.29,-11.78l-714.14 0c-19.32,0 -32.81,-4.01 -40.5,-12.04 -7.67,-8.29 -11.64,-22.49 -11.64,-42.84l0 -61.03c0,-20.35 3.97,-34.54 11.64,-42.3 7.69,-7.76 21.18,-11.77 40.5,-11.77l714.14 0c19.86,0 33.63,-4.03 41.29,-12.04 7.68,-8.31 11.65,-22.5 11.65,-42.85l0 -127.15c0,-20.35 -3.97,-34.54 -11.65,-42.31 -7.66,-7.76 -21.43,-11.78 -41.29,-11.78l-1052.41 0zm1141.89 49.53l0 136.26c0,28.92 -7.14,50.61 -21.72,65.33 -14.56,14.72 -35.45,21.94 -62.98,21.94l-712.04 0c-8.2,0 -14.03,1.61 -17.46,4.83 -3.43,2.95 -5.03,8.56 -5.03,16.33l0 55.41c0,7.22 1.6,12.59 5.03,16.06 3.43,3.48 9.26,5.1 17.46,5.1l712.04 0c28.05,0 48.96,7.22 63.25,21.68 14.31,14.19 21.45,35.33 21.45,63.17l0 138.68c0,27.84 -7.14,48.99 -21.45,63.17 -14.29,14.46 -35.2,21.68 -63.25,21.68l-712.04 0c-8.2,0 -14.03,1.62 -17.46,5.1 -3.43,3.47 -5.03,8.84 -5.03,16.06l0 293.14c0,28.38 -7.14,49.79 -21.44,63.99 -14.29,14.45 -35.21,21.67 -63.27,21.67l-242.72 0c-28.05,0 -48.97,-7.22 -63.26,-21.67 -14.29,-14.2 -21.45,-35.61 -21.45,-63.99l0 -943.94c0,-28.37 7.16,-49.53 21.45,-63.71 14.29,-14.19 35.21,-21.15 63.26,-21.15l1061.96 0c28.05,0 48.96,6.96 63.25,21.15 14.31,14.18 21.45,35.34 21.45,63.71zm567.23 0l0 943.94c0,28.38 -7.15,49.79 -21.44,63.99 -14.29,14.45 -35.21,21.67 -63.28,21.67l-242.71 0c-28.05,0 -48.97,-7.22 -63.27,-21.67 -14.29,-14.2 -21.43,-35.61 -21.43,-63.99l0 -943.94c0,-28.37 7.14,-49.53 21.43,-63.71 14.3,-14.19 35.22,-21.15 63.27,-21.15l242.71 0c28.07,0 48.99,6.96 63.28,21.15 14.29,14.18 21.44,35.34 21.44,63.71zm-322.67 -49.53c-19.84,0 -33.35,4.02 -40.76,11.78 -7.67,7.77 -11.39,21.96 -11.39,42.31l0 934.84c0,20.34 3.72,34.53 11.39,42.82 7.41,8.03 20.92,12.06 40.76,12.06l233.2 0c19.85,0 33.63,-4.03 41.29,-12.06 7.68,-8.29 11.65,-22.48 11.65,-42.82l0 -934.84c0,-20.35 -3.97,-34.54 -11.65,-42.31 -7.66,-7.76 -21.44,-11.78 -41.29,-11.78l-233.2 0zm249.61 985.71c0,7.76 -1.86,13.65 -5.55,17.13 -3.45,3.75 -9.28,5.62 -16.94,5.62l-221.02 0c-7.68,0 -13.24,-1.61 -16.68,-5.08 -3.45,-3.49 -5.03,-9.38 -5.03,-17.67l0 -930.02c0,-7.22 1.58,-12.58 4.77,-15.53 2.9,-3.2 8.72,-4.81 16.94,-4.81l221.02 0c7.66,0 13.49,1.61 16.94,4.81 3.69,2.95 5.55,8.31 5.55,15.53l0 930.02zm709.64 -432.08c-6.35,12.31 -11.12,23.82 -14.55,34.54 -3.18,10.44 -5.04,19.26 -5.04,26.5 0,18.73 6.89,33.19 20.66,43.1 13.75,9.9 33.34,14.99 59.28,14.99l363.7 0c25.39,0 44.46,-5.09 57.7,-14.99 13.23,-9.91 19.84,-24.37 19.84,-43.1 0,-6.7 -1.58,-14.99 -4.76,-24.63 -2.91,-9.65 -7.68,-21.96 -13.76,-36.41l-173.9 -344.82c-7.15,-15.79 -14.03,-26.22 -20.4,-31.05 -6.6,-5.08 -14.29,-7.48 -23.8,-7.48l-45.54 0c-10.06,0 -18.26,2.66 -25.42,8.28 -6.86,5.37 -14.01,15.53 -21.16,30.25l-172.85 344.82zm63.52 83.79c-16.14,0 -27.53,-2.15 -34.13,-6.16 -6.63,-4.28 -10.06,-10.71 -10.06,-19.81 0,-4.55 0.78,-9.63 2.37,-14.72 1.59,-5.36 4.78,-13.13 10.06,-23.56l169.67 -339.99c4.77,-9.36 9.01,-16.06 13.24,-20.08 4.23,-4.02 8.73,-5.89 14.02,-5.89l27 0c4.77,0 9.28,2.15 13.77,6.16 4.23,4.28 8.48,10.72 12.71,19l170.46 340.8c4.24,8.83 7.41,16.34 9.26,22.75 2.12,6.16 3.18,11.51 3.18,15.53 0,9.1 -3.45,15.53 -10.06,19.81 -6.62,4.01 -17.99,6.16 -34.16,6.16l-357.33 0zm14.03 -35.34l327.16 0c5.05,0 8.74,-0.53 11.13,-1.87 2.38,-1.34 3.43,-3.48 3.43,-5.89 0,-1.61 -0.26,-3.21 -0.79,-5.09 -0.53,-1.87 -1.58,-5.09 -3.71,-9.9l-163.57 -328.21c-1.6,-2.41 -3.18,-4.3 -4.77,-5.36 -1.59,-1.07 -3.44,-1.6 -5.29,-1.6 -1.59,0 -3.17,0.53 -4.77,1.87 -1.59,1.34 -2.65,2.94 -3.17,4.29l-165.18 329.01c-1.31,3.21 -2.63,6.16 -3.44,8.56 -0.79,2.68 -1.06,4.82 -1.06,6.43 0,2.41 1.06,4.55 3.45,5.89 2.38,1.34 5.82,1.87 10.58,1.87zm-562.21 406.38c-4.23,0 -7.14,-0.8 -9.26,-2.4 -2.12,-1.61 -3.17,-3.75 -3.17,-6.97 0,-3.75 0.26,-6.69 0.79,-9.09 0.52,-2.42 1.32,-4.29 2.38,-5.9l504.77 -926.01c4.51,-8.82 9.53,-14.98 14.57,-17.93 5.28,-3.2 12.42,-4.81 21.7,-4.81l401 0c9.27,0 16.42,1.61 21.72,4.81 5.02,2.95 10.06,9.11 14.55,17.93l492.33 926.81c1.06,1.6 2.11,3.47 2.91,5.89 0.78,2.42 1.33,5.09 1.86,8.3 -0.53,3.22 -1.86,5.36 -4.25,6.97 -2.37,1.6 -5.81,2.4 -10.58,2.4l-231.61 0c-8.46,0 -15.61,-1.87 -21.71,-5.89 -6.34,-4.02 -11.1,-9.63 -14.82,-16.86l-44.2 -91.84c-9.8,-18.19 -21.97,-31.85 -36.52,-40.69 -14.3,-8.82 -32.03,-13.38 -52.68,-13.38l-645.84 0c-20.66,0 -38.39,4.56 -53.21,13.38 -14.56,8.84 -26.73,22.5 -36,40.69l-46.59 91.84c-3.44,8.29 -7.93,14.18 -13.5,17.67 -5.29,3.47 -12.44,5.08 -21.17,5.08l-233.47 0zm-14.03 35.35l251.21 0c15.08,0 27.52,-3.5 37.58,-10.18 10.06,-6.97 19.32,-18.2 27.53,-33.74l41.29 -81.65c7.68,-14.99 16.67,-25.97 27,-32.93 10.33,-6.69 23.03,-10.17 38.11,-10.17l636.33 0c15.08,0 27.53,3.48 37.85,10.17 10.05,6.96 19.05,17.94 27.53,32.93l41.03 82.45c7.66,14.47 16.66,25.43 26.72,32.4 10.06,7.22 22.77,10.72 38.39,10.72l251.19 0c15.88,0 27.26,-1.89 34.14,-5.9 6.63,-4.01 10.06,-10.72 10.06,-20.07 0,-4.56 -1.06,-10.44 -3.17,-17.15 -2.12,-6.95 -5.04,-14.45 -9.27,-22.75l-497.08 -936.44c-8.74,-14.98 -18.02,-25.7 -27.53,-32.12 -9.54,-6.17 -21.98,-9.38 -37.59,-9.38l-410.01 0c-16.14,0 -28.85,2.95 -38.12,9.12 -9.26,5.88 -18.26,16.85 -27,32.38l-507.94 936.44c-4.25,8.3 -7.16,15.8 -9.27,22.75 -2.12,6.71 -3.17,12.59 -3.17,17.15 0,9.35 3.44,16.06 10.06,20.07 6.87,4.01 18.25,5.9 34.13,5.9zm-62.2 -85.41l509.54 -939.66c10.31,-19.27 22.49,-33.19 36.27,-41.49 13.5,-8.29 31.23,-12.58 52.92,-12.58l419.55 0c20.65,0 38.11,4.29 52.41,12.85 14.03,8.84 26.47,22.48 36.79,41.22l498.68 939.66c6.1,11.51 11.12,23.03 14.56,34.54 3.71,11.51 5.57,20.87 5.57,28.1 0,18.74 -6.63,33.2 -20.13,43.11 -13.5,9.9 -33.35,14.98 -59.02,14.98l-260.73 0c-20.11,0 -37.32,-4.54 -51.35,-13.38 -14.29,-8.83 -26.46,-22.75 -36.25,-41.5l-45.54 -91.02c-4.23,-8.29 -9.25,-14.18 -14.82,-17.67 -5.81,-3.47 -12.97,-5.07 -21.69,-5.07l-628.93 0c-8.74,0 -15.61,1.6 -20.9,5.07 -5.04,3.49 -9.79,9.38 -14.03,17.67l-46.33 91.02c-9.26,18.75 -21.17,32.67 -35.73,41.5 -14.56,8.84 -32.03,13.38 -52.68,13.38l-259.13 0c-25.68,0 -45.52,-5.08 -59.29,-14.98 -13.77,-9.91 -20.64,-24.37 -20.64,-43.11 0,-8.3 1.85,-18.2 5.55,-29.44 3.45,-11.25 8.73,-22.23 15.35,-33.2zm2015.64 27.31c0,7.76 -1.85,13.65 -5.28,17.13 -3.71,3.75 -9.27,5.62 -16.41,5.62l-207 0c-7.67,0 -13.23,-1.61 -16.67,-5.08 -3.45,-3.49 -5.03,-9.38 -5.03,-17.67l0 -930.02c0,-7.22 1.58,-12.58 4.76,-15.53 2.91,-3.2 8.73,-4.81 16.94,-4.81l481.47 0c8.75,0 15.62,1.61 20.66,4.81 4.76,2.95 10.06,8.84 15.88,17.14l463.21 689.09c10.33,14.72 21.18,25.41 32.29,31.85 11.12,6.68 23.56,9.9 37.59,9.9 22.76,0 40.5,-7.5 52.93,-22.75 12.45,-15.27 18.53,-36.96 18.53,-65.06l0 -644.64c0,-7.22 1.87,-12.58 5.56,-15.53 3.45,-3.2 9.28,-4.81 16.94,-4.81l206.21 0c8.19,0 14.03,1.61 17.46,4.81 3.44,2.95 5.02,8.31 5.02,15.53l0 930.02c0,7.76 -1.85,13.65 -5.28,17.13 -3.71,3.75 -9.54,5.62 -17.2,5.62l-480.68 0c-8.74,0 -15.89,-1.61 -20.92,-4.81 -5.31,-2.96 -10.33,-9.11 -15.62,-17.94l-463.21 -689.89c-10.07,-14.72 -20.65,-25.43 -32.04,-32.38 -11.37,-6.71 -24.6,-10.18 -40.23,-10.18 -21.69,0 -38.9,8.02 -51.34,23.83 -12.43,16.06 -18.54,38.28 -18.54,66.38l0 642.24zm-234.77 -985.71c-19.86,0 -33.36,4.02 -40.78,11.78 -7.66,7.77 -11.37,21.96 -11.37,42.31l0 934.84c0,20.34 3.71,34.53 11.37,42.82 7.42,8.03 20.92,12.06 40.78,12.06l219.16 0c19.32,0 32.81,-4.03 40.5,-12.06 7.68,-8.29 11.65,-22.48 11.65,-42.82l0 -650.01c0,-14.19 2.91,-25.44 9,-34.26 5.82,-8.57 13.49,-12.85 22.76,-12.85 9.79,0 18.27,2.14 25.14,6.69 7.15,4.28 14.29,11.78 21.44,22.22l457.13 679.97c11.38,18.21 21.44,30 29.92,35.34 8.46,5.09 20.11,7.78 34.4,7.78l492.33 0c19.86,0 33.61,-4.03 41.29,-12.06 7.68,-8.29 11.65,-22.48 11.65,-42.82l0 -934.84c0,-20.35 -3.97,-34.54 -11.65,-42.31 -7.68,-7.76 -21.43,-11.78 -41.29,-11.78l-218.37 0c-19.86,0 -33.62,4.02 -41.29,11.78 -7.68,7.77 -11.65,21.96 -11.65,42.31l0 650.79c0,14.72 -3.17,25.96 -9.27,34.27 -6.34,8.03 -14.82,12.05 -25.67,12.05 -8.75,0 -16.15,-2.14 -22.5,-6.16 -6.08,-4.28 -12.97,-11.77 -20.11,-22.76l-457.14 -680.78c-11.37,-17.66 -21.17,-29.18 -29.63,-34.01 -8.21,-5.08 -20.11,-7.49 -35.47,-7.49l-492.33 0zm307.83 341.87l0 651.6c0,28.38 -6.89,49.79 -20.9,63.99 -14.04,14.45 -34.96,21.67 -63.01,21.67l-228.7 0c-28.04,0 -48.97,-7.22 -63.26,-21.67 -14.29,-14.2 -21.43,-35.61 -21.43,-63.99l0 -943.94c0,-28.37 7.14,-49.53 21.43,-63.71 14.29,-14.19 35.22,-21.15 63.26,-21.15l503.19 0c19.6,0 35.48,3.48 47.39,10.17 11.89,6.97 25.15,21.43 40.23,43.9l460.29 684.53c0.53,1.07 1.07,1.87 1.85,2.41 0.81,0.55 1.87,0.81 2.66,0.81 2.12,0 3.43,-0.26 3.97,-1.08 0.52,-0.8 0.79,-2.14 0.79,-3.74l0 -652.14c0,-28.37 7.14,-49.53 21.44,-63.71 14.3,-14.19 35.2,-21.15 63.25,-21.15l228.71 0c27.53,0 48.16,6.96 62.46,21.15 14.29,14.18 21.44,35.34 21.44,63.71l0 943.94c0,28.38 -7.15,49.79 -21.44,63.99 -14.3,14.45 -34.93,21.67 -62.46,21.67l-503.97 0c-19.6,0 -35.21,-3.47 -46.86,-10.16 -11.65,-6.97 -24.88,-21.69 -39.97,-44.72l-460.31 -683.72c-1.06,-1.61 -1.84,-2.94 -2.64,-3.75 -0.79,-0.8 -1.59,-1.06 -1.85,-1.06 -2.11,0 -3.43,0.26 -3.97,1.06 -0.52,0.81 -1.05,2.67 -1.59,5.09z"/>
   <path class="fil3" d="M8150.48 16879.49l-400.27 0 0 -3783.72 400.27 0 0 3783.72zm0 -8975.21l-400.27 0 0 -3783.73 400.27 0 0 3783.73z"/>
   <path class="fil7" d="M23718.18 7163.01c87.29,0 170.96,21.76 251.01,65.53 80.26,43.53 143.3,106.12 189.1,187.52 45.81,81.63 68.7,166.89 68.7,255.76 0,88.67 -22.44,173.24 -67.34,253.5 -45.12,80.28 -107.71,143.09 -188.19,187.99 -80.28,44.89 -164.85,67.34 -253.28,67.34 -88.66,0 -173.01,-22.45 -253.51,-67.34 -80.26,-44.9 -143.07,-107.71 -187.97,-187.99 -44.89,-80.26 -67.34,-164.83 -67.34,-253.5 0,-88.87 22.9,-174.13 68.71,-255.76 45.79,-81.4 108.83,-143.99 188.87,-187.52 80.28,-43.77 163.94,-65.53 251.24,-65.53zm0.68 99.77c-70.06,0 -137.18,17.45 -201.36,52.37 -64.16,34.92 -114.72,85.26 -151.68,150.79 -37.19,65.53 -55.55,134.23 -55.55,205.88 0,71.43 18.12,139.46 54.18,204.07 36.06,64.63 86.4,115.2 151.01,151.48 64.63,36.27 132.42,54.41 203.4,54.41 71.2,0 138.99,-18.14 203.62,-54.41 64.39,-36.28 114.73,-86.85 151.01,-151.48 36.28,-64.61 54.41,-132.64 54.41,-204.07 0,-71.65 -18.37,-140.35 -55.32,-205.88 -36.96,-65.53 -87.75,-115.87 -152.14,-150.79 -64.4,-34.92 -131.75,-52.37 -201.58,-52.37zm-230.6 681.37l0 -539.88 109.75 0c102.71,0 160.3,0.45 172.54,1.36 36.28,2.94 64.63,10.21 84.81,21.53 20.18,11.35 36.96,28.57 50.34,51.71 13.6,23.35 20.41,49.2 20.41,77.55 0,38.77 -12.71,72.1 -38.32,99.77 -25.41,27.88 -61.22,44.89 -107.26,51.69 16.33,6.12 29.02,12.92 37.87,20.18 8.84,7.25 21.09,21.09 36.51,41.49 4.08,5.22 17.23,27.21 39.9,65.76l63.71 108.84 -135.36 0 -45.35 -87.52c-30.38,-58.96 -55.79,-96.14 -75.73,-111.34 -19.73,-15.19 -45.12,-22.9 -75.73,-22.9l-28.34 0 0 221.76 -109.75 0zm109.75 -306.79l44.43 0c63.26,0 102.5,-2.49 117.91,-7.25 15.2,-5 27.22,-13.39 36.06,-25.63 9.06,-12.24 13.36,-26.08 13.36,-41.49 0,-15.2 -4.3,-28.57 -12.91,-40.14 -8.62,-11.79 -20.86,-20.18 -36.96,-25.39 -15.88,-4.99 -55.1,-7.48 -117.46,-7.48l-44.43 0 0 147.38z"/>
   <g>
    <path class="fil7" d="M12988.69 14267.04l-214.3 0 -29.48 100.48 -192.19 0 228.76 -608.74 205.09 0 228.9 608.74 -196.87 0 -29.91 -100.48zm-39.4 -131.67l-67.32 -218.85 -66.9 218.85 134.22 0zm568.77 110.11l167.82 -15.87c6.94,19.99 16.58,34.3 29.05,42.81 12.48,8.64 29.06,12.89 49.89,12.89 22.67,0 40.25,-4.82 52.73,-14.59 9.63,-7.09 14.45,-16.16 14.45,-26.93 0,-12.19 -6.38,-21.55 -18.99,-28.2 -9.22,-4.69 -33.46,-10.5 -72.72,-17.44 -58.66,-10.35 -99.48,-19.7 -122.3,-28.48 -22.82,-8.8 -42.1,-23.53 -57.69,-44.24 -15.73,-20.68 -23.53,-44.36 -23.53,-71 0,-29.05 8.51,-54.15 25.38,-75.12 16.86,-21.11 40.11,-36.86 69.72,-47.2 29.62,-10.34 69.31,-15.59 119.19,-15.59 52.59,0 91.42,4.11 116.51,12.05 25.1,8.07 45.93,20.55 62.65,37.41 16.72,16.87 30.62,39.69 41.82,68.46l-160.3 15.89c-4.25,-14.18 -11.06,-24.53 -20.85,-31.19 -13.31,-8.92 -29.33,-13.33 -48.18,-13.33 -19,0 -33.02,3.41 -41.67,10.22 -8.79,6.79 -13.03,15.02 -13.03,24.65 0,10.91 5.52,19 16.58,24.52 11.05,5.53 35.13,10.49 72.28,15.02 56.12,6.38 97.94,15.18 125.29,26.52 27.49,11.33 48.48,27.49 62.93,48.6 14.59,20.99 21.82,44.08 21.82,69.31 0,25.52 -7.66,50.32 -23.1,74.41 -15.3,24.1 -39.54,43.23 -72.56,57.41 -33.17,14.3 -78.24,21.39 -135.21,21.39 -80.51,0 -137.91,-11.48 -172.07,-34.44 -34.16,-22.96 -56.12,-55.7 -65.91,-97.94zm1014.11 122.04l-157.9 0 0 -71.43c-23.53,29.33 -47.19,50.32 -71.14,62.65 -23.96,12.46 -53.44,18.7 -88.31,18.7 -46.49,0 -82.91,-13.88 -109.42,-41.66 -26.36,-27.79 -39.54,-70.73 -39.54,-128.56l0 -280.64 169.8 0 0 242.52c0,27.63 5.1,47.33 15.31,58.95 10.34,11.62 24.66,17.43 43.22,17.43 20.27,0 36.71,-7.78 49.62,-23.24 12.88,-15.59 19.26,-43.37 19.26,-83.48l0 -212.18 169.1 0 0 440.94zm256.54 -298.21l-161.44 -17.01c6.09,-28.2 14.89,-50.45 26.37,-66.61 11.48,-16.15 27.92,-30.19 49.6,-42.1 15.44,-8.64 36.86,-15.3 63.93,-19.97 27.06,-4.68 56.4,-7.1 88,-7.1 50.61,0 91.42,2.85 122.04,8.52 30.76,5.67 56.41,17.56 76.83,35.56 14.45,12.48 25.79,30.05 34.16,52.87 8.21,22.96 12.31,44.64 12.31,65.49l0 194.73c0,20.7 1.42,37 3.98,48.76 2.69,11.77 8.36,26.78 17.29,45.07l-158.61 0c-6.36,-11.34 -10.48,-19.98 -12.46,-25.93 -1.99,-5.95 -3.83,-15.32 -5.81,-28.08 -22.11,21.42 -44.23,36.58 -66.06,45.64 -29.89,12.19 -64.62,18.29 -104.16,18.29 -52.58,0 -92.55,-12.19 -119.9,-36.56 -27.23,-24.24 -40.83,-54.29 -40.83,-90.01 0,-33.59 9.78,-61.09 29.49,-82.63 19.69,-21.68 55.84,-37.69 108.69,-48.19 63.5,-12.75 104.61,-21.68 123.46,-26.78 18.71,-5.1 38.69,-11.91 59.66,-20.12 0,-20.85 -4.25,-35.3 -12.74,-43.67 -8.66,-8.21 -23.67,-12.47 -45.36,-12.47 -27.65,0 -48.33,4.55 -62.23,13.33 -10.77,6.94 -19.55,19.99 -26.21,38.97zm146.54 88.88c-23.24,8.35 -47.47,15.72 -72.56,22.1 -34.3,9.07 -56.12,18.15 -65.19,26.93 -9.51,9.21 -14.18,19.56 -14.18,31.19 0,13.31 4.67,24.08 13.9,32.59 9.35,8.36 22.96,12.62 40.94,12.62 18.86,0 36.29,-4.55 52.59,-13.61 16.16,-9.21 27.64,-20.41 34.44,-33.45 6.81,-13.19 10.06,-30.34 10.06,-51.31l0 -27.06zm520.31 87.29l167.82 -15.87c6.94,19.99 16.58,34.3 29.05,42.81 12.48,8.64 29.06,12.89 49.89,12.89 22.68,0 40.25,-4.82 52.73,-14.59 9.63,-7.09 14.45,-16.16 14.45,-26.93 0,-12.19 -6.38,-21.55 -18.98,-28.2 -9.23,-4.69 -33.47,-10.5 -72.73,-17.44 -58.66,-10.35 -99.48,-19.7 -122.3,-28.48 -22.82,-8.8 -42.1,-23.53 -57.69,-44.24 -15.73,-20.68 -23.53,-44.36 -23.53,-71 0,-29.05 8.51,-54.15 25.38,-75.12 16.86,-21.11 40.11,-36.86 69.72,-47.2 29.62,-10.34 69.31,-15.59 119.19,-15.59 52.59,0 91.42,4.11 116.52,12.05 25.09,8.07 45.92,20.55 62.64,37.41 16.72,16.87 30.62,39.69 41.82,68.46l-160.3 15.89c-4.25,-14.18 -11.06,-24.53 -20.85,-31.19 -13.31,-8.92 -29.32,-13.33 -48.18,-13.33 -19,0 -33.02,3.41 -41.67,10.22 -8.78,6.79 -13.03,15.02 -13.03,24.65 0,10.91 5.53,19 16.58,24.52 11.05,5.53 35.14,10.49 72.28,15.02 56.12,6.38 97.94,15.18 125.29,26.52 27.49,11.33 48.48,27.49 62.93,48.6 14.59,20.99 21.82,44.08 21.82,69.31 0,25.52 -7.66,50.32 -23.1,74.41 -15.3,24.1 -39.54,43.23 -72.56,57.41 -33.17,14.3 -78.23,21.39 -135.21,21.39 -80.51,0 -137.91,-11.48 -172.07,-34.44 -34.16,-22.96 -56.12,-55.7 -65.91,-97.94zm1038.9 -56.55l-338.73 0c2.97,27.23 10.34,47.35 21.97,60.67 16.29,19.13 37.69,28.63 63.92,28.63 16.58,0 32.45,-4.12 47.33,-12.47 9.22,-5.24 19,-14.47 29.48,-27.78l166.54 15.3c-25.52,44.36 -56.12,76.12 -92.13,95.39 -36,19.13 -87.59,28.77 -154.91,28.77 -58.4,0 -104.31,-8.21 -137.91,-24.65 -33.45,-16.46 -61.23,-42.67 -83.19,-78.54 -21.97,-35.84 -33.02,-77.94 -33.02,-126.42 0,-68.87 22.1,-124.73 66.18,-167.24 44.22,-42.67 105.17,-64.07 182.98,-64.07 63.07,0 112.96,9.64 149.39,28.78 36.57,18.99 64.49,46.77 83.47,82.9 19.14,36.29 28.63,83.49 28.63,141.61l0 19.12zm-171.78 -80.93c-3.39,-32.74 -12.17,-56.12 -26.36,-70.15 -14.3,-14.18 -33.02,-21.27 -56.26,-21.27 -26.93,0 -48.34,10.79 -64.49,32.04 -10.21,13.33 -16.73,33.02 -19.41,59.38l166.52 0zm577.42 -181.42l158.33 0 0 416.42 0.41 19.56c0,27.64 -5.93,53.99 -17.7,79.09 -11.76,25.09 -27.37,45.35 -46.92,60.79 -19.56,15.61 -44.36,26.8 -74.27,33.59 -30.05,6.95 -64.49,10.51 -103.18,10.51 -88.59,0 -149.53,-13.33 -182.55,-39.97 -33.02,-26.52 -49.6,-62.08 -49.6,-106.6 0,-5.67 0.28,-13.03 0.83,-22.53l164 18.71c4.11,15.3 10.49,25.79 19.13,31.6 12.47,8.51 28.06,12.9 46.91,12.9 24.39,0 42.53,-6.52 54.58,-19.55 12.03,-13.04 17.99,-35.72 17.99,-68.17l0 -66.77c-16.59,19.57 -33.17,33.87 -49.75,42.81 -26.07,13.74 -54.13,20.69 -84.33,20.69 -58.96,0 -106.57,-25.79 -142.86,-77.24 -25.67,-36.57 -38.55,-84.89 -38.55,-144.85 0,-68.75 16.58,-121.05 49.74,-157.04 33.31,-36 76.69,-54.01 130.39,-54.01 34.45,0 62.65,5.82 84.9,17.44 22.39,11.62 43.24,30.9 62.5,57.83l0 -65.21zm-159.02 213.75c0,31.88 6.81,55.55 20.42,70.85 13.6,15.32 31.46,23.11 53.57,23.11 20.98,0 38.69,-8.07 52.87,-23.94 14.3,-15.89 21.39,-39.97 21.39,-72.01 0,-32.17 -7.51,-56.7 -22.39,-73.7 -14.87,-17.01 -33.16,-25.51 -54.84,-25.51 -21.56,0 -38.83,7.79 -51.59,23.37 -12.91,15.61 -19.43,41.68 -19.43,77.83zm884.15 227.19l-157.9 0 0 -71.43c-23.53,29.33 -47.19,50.32 -71.14,62.65 -23.96,12.46 -53.44,18.7 -88.31,18.7 -46.49,0 -82.91,-13.88 -109.42,-41.66 -26.36,-27.79 -39.54,-70.73 -39.54,-128.56l0 -280.64 169.8 0 0 242.52c0,27.63 5.1,47.33 15.31,58.95 10.34,11.62 24.66,17.43 43.22,17.43 20.27,0 36.71,-7.78 49.62,-23.24 12.88,-15.59 19.26,-43.37 19.26,-83.48l0 -212.18 169.1 0 0 440.94zm104.18 -440.94l158.17 0 0 72.16c15.3,-31.19 31.04,-52.73 47.2,-64.5 16.15,-11.76 36.13,-17.72 59.94,-17.72 24.95,0 52.16,7.81 81.79,23.25l-52.3 120.48c-19.84,-8.37 -35.72,-12.48 -47.35,-12.48 -22.11,0 -39.26,9.21 -51.45,27.35 -17.43,25.8 -26.21,73.99 -26.21,144.57l0 147.83 -169.79 0 0 -440.94zm544.38 142.73l-161.43 -17.01c6.09,-28.2 14.89,-50.45 26.37,-66.61 11.48,-16.15 27.92,-30.19 49.6,-42.1 15.44,-8.64 36.86,-15.3 63.92,-19.97 27.07,-4.68 56.41,-7.1 88.01,-7.1 50.61,0 91.42,2.85 122.04,8.52 30.76,5.67 56.41,17.56 76.83,35.56 14.45,12.48 25.78,30.05 34.15,52.87 8.22,22.96 12.32,44.64 12.32,65.49l0 194.73c0,20.7 1.42,37 3.98,48.76 2.69,11.77 8.35,26.78 17.29,45.07l-158.61 0c-6.36,-11.34 -10.48,-19.98 -12.46,-25.93 -1.99,-5.95 -3.84,-15.32 -5.81,-28.08 -22.11,21.42 -44.23,36.58 -66.06,45.64 -29.89,12.19 -64.62,18.29 -104.16,18.29 -52.59,0 -92.55,-12.19 -119.91,-36.56 -27.22,-24.24 -40.82,-54.29 -40.82,-90.01 0,-33.59 9.78,-61.09 29.49,-82.63 19.69,-21.68 55.84,-37.69 108.69,-48.19 63.5,-12.75 104.6,-21.68 123.46,-26.78 18.71,-5.1 38.69,-11.91 59.66,-20.12 0,-20.85 -4.25,-35.3 -12.74,-43.67 -8.66,-8.21 -23.67,-12.47 -45.36,-12.47 -27.65,0 -48.33,4.55 -62.23,13.33 -10.77,6.94 -19.55,19.99 -26.22,38.97zm146.55 88.88c-23.24,8.35 -47.47,15.72 -72.56,22.1 -34.3,9.07 -56.13,18.15 -65.19,26.93 -9.51,9.21 -14.18,19.56 -14.18,31.19 0,13.31 4.67,24.08 13.9,32.59 9.34,8.36 22.96,12.62 40.94,12.62 18.86,0 36.29,-4.55 52.59,-13.61 16.16,-9.21 27.64,-20.41 34.44,-33.45 6.81,-13.19 10.06,-30.34 10.06,-51.31l0 -27.06zm266.61 -231.61l157.46 0 0 71.73c23.53,-29.34 47.35,-50.19 71.44,-62.79 24.1,-12.62 53.44,-19 88.03,-19 46.76,0 83.33,14.04 109.83,41.82 26.37,27.78 39.54,70.72 39.54,128.83l0 280.35 -169.79 0 0 -242.51c0,-27.64 -5.1,-47.19 -15.3,-58.67 -10.35,-11.62 -24.67,-17.29 -43.24,-17.29 -20.4,0 -37.13,7.78 -49.75,23.24 -12.76,15.45 -19.14,43.37 -19.14,83.48l0 211.75 -169.08 0 0 -440.94zm896.18 268.59l160.59 18.29c-8.78,33.44 -23.39,62.5 -43.51,87.02 -20.27,24.51 -46.06,43.51 -77.53,57.12 -31.32,13.46 -71.29,20.26 -119.77,20.26 -46.76,0 -85.73,-4.39 -116.78,-13.04 -31.19,-8.78 -57.97,-22.82 -80.36,-42.37 -22.54,-19.56 -40.11,-42.38 -52.73,-68.74 -12.76,-26.21 -19.13,-61.08 -19.13,-104.6 0,-45.36 7.65,-83.2 23.25,-113.39 11.34,-22.11 26.78,-41.96 46.48,-59.52 19.7,-17.57 39.82,-30.76 60.67,-39.27 32.88,-13.6 75.12,-20.41 126.57,-20.41 71.99,0 126.84,12.91 164.69,38.69 37.69,25.67 64.33,63.36 79.51,112.96l-159.02 21.13c-4.96,-18.85 -14.04,-33.02 -27.23,-42.52 -13.17,-9.64 -30.74,-14.31 -52.99,-14.31 -27.92,0 -50.6,10.06 -67.89,30.03 -17.29,20.14 -25.95,50.47 -25.95,91.14 0,36.29 8.66,63.78 25.81,82.64 17.15,18.85 38.97,28.2 65.61,28.2 22.11,0 40.68,-5.67 55.84,-17.01 15.03,-11.34 26.37,-28.77 33.87,-52.3zm-189.77 240.81l12.46 -48.89c25.95,-6.38 50.33,-9.65 73.01,-9.65 47.33,0 80.08,8.08 98.08,24.1 17.99,16.15 26.93,35.01 26.93,56.97 0,13.19 -4.11,26.93 -12.2,41.11 -8.22,14.02 -22.81,25.36 -43.79,34.01 -21.13,8.5 -49.05,12.91 -83.91,12.91 -31.6,0 -68.6,-3.7 -111.26,-10.77l0 -51.19c28.78,5.55 59.38,8.37 91.71,8.37 23.81,0 39.97,-3.25 48.46,-9.63 8.37,-6.38 12.62,-14.61 12.62,-24.81 0,-8.08 -3.54,-15.02 -10.34,-20.83 -6.95,-5.81 -17.72,-8.65 -32.46,-8.65 -19.7,0 -42.81,2.27 -69.31,6.95zm582.1 -366.67l-161.44 -17.01c6.1,-28.2 14.89,-50.45 26.38,-66.61 11.48,-16.15 27.92,-30.19 49.6,-42.1 15.44,-8.64 36.86,-15.3 63.92,-19.97 27.07,-4.68 56.41,-7.1 88.01,-7.1 50.61,0 91.42,2.85 122.04,8.52 30.76,5.67 56.41,17.56 76.82,35.56 14.45,12.48 25.79,30.05 34.16,52.87 8.21,22.96 12.32,44.64 12.32,65.49l0 194.73c0,20.7 1.42,37 3.98,48.76 2.68,11.77 8.35,26.78 17.29,45.07l-158.61 0c-6.37,-11.34 -10.49,-19.98 -12.46,-25.93 -1.99,-5.95 -3.84,-15.32 -5.81,-28.08 -22.11,21.42 -44.23,36.58 -66.06,45.64 -29.89,12.19 -64.62,18.29 -104.16,18.29 -52.59,0 -92.56,-12.19 -119.91,-36.56 -27.22,-24.24 -40.82,-54.29 -40.82,-90.01 0,-33.59 9.78,-61.09 29.48,-82.63 19.7,-21.68 55.84,-37.69 108.7,-48.19 63.5,-12.75 104.6,-21.68 123.46,-26.78 18.71,-5.1 38.69,-11.91 59.66,-20.12 0,-20.85 -4.25,-35.3 -12.74,-43.67 -8.66,-8.21 -23.68,-12.47 -45.36,-12.47 -27.65,0 -48.34,4.55 -62.23,13.33 -10.77,6.94 -19.55,19.99 -26.22,38.97zm146.55 88.88c-23.25,8.35 -47.47,15.72 -72.56,22.1 -34.3,9.07 -56.13,18.15 -65.19,26.93 -9.51,9.21 -14.18,19.56 -14.18,31.19 0,13.31 4.67,24.08 13.89,32.59 9.35,8.36 22.96,12.62 40.95,12.62 18.86,0 36.29,-4.55 52.59,-13.61 16.15,-9.21 27.63,-20.41 34.44,-33.45 6.81,-13.19 10.06,-30.34 10.06,-51.31l0 -27.06zm550.21 -231.61l157.46 0 0 71.73c23.53,-29.34 47.35,-50.19 71.44,-62.79 24.1,-12.62 53.44,-19 88.03,-19 46.76,0 83.33,14.04 109.83,41.82 26.37,27.78 39.54,70.72 39.54,128.83l0 280.35 -169.79 0 0 -242.51c0,-27.64 -5.1,-47.19 -15.3,-58.67 -10.35,-11.62 -24.67,-17.29 -43.24,-17.29 -20.4,0 -37.13,7.78 -49.74,23.24 -12.76,15.45 -19.14,43.37 -19.14,83.48l0 211.75 -169.09 0 0 -440.94zm721.29 142.73l-161.44 -17.01c6.1,-28.2 14.89,-50.45 26.37,-66.61 11.48,-16.15 27.92,-30.19 49.61,-42.1 15.44,-8.64 36.85,-15.3 63.92,-19.97 27.07,-4.68 56.41,-7.1 88.01,-7.1 50.61,0 91.42,2.85 122.04,8.52 30.76,5.67 56.4,17.56 76.82,35.56 14.45,12.48 25.79,30.05 34.16,52.87 8.21,22.96 12.32,44.64 12.32,65.49l0 194.73c0,20.7 1.42,37 3.98,48.76 2.68,11.77 8.35,26.78 17.29,45.07l-158.61 0c-6.37,-11.34 -10.49,-19.98 -12.46,-25.93 -1.99,-5.95 -3.84,-15.32 -5.81,-28.08 -22.11,21.42 -44.24,36.58 -66.06,45.64 -29.89,12.19 -64.62,18.29 -104.16,18.29 -52.59,0 -92.56,-12.19 -119.91,-36.56 -27.22,-24.24 -40.82,-54.29 -40.82,-90.01 0,-33.59 9.77,-61.09 29.48,-82.63 19.69,-21.68 55.84,-37.69 108.7,-48.19 63.5,-12.75 104.6,-21.68 123.46,-26.78 18.71,-5.1 38.69,-11.91 59.66,-20.12 0,-20.85 -4.25,-35.3 -12.75,-43.67 -8.65,-8.21 -23.67,-12.47 -45.35,-12.47 -27.65,0 -48.34,4.55 -62.24,13.33 -10.77,6.94 -19.55,19.99 -26.21,38.97zm146.55 88.88c-23.25,8.35 -47.47,15.72 -72.57,22.1 -34.29,9.07 -56.12,18.15 -65.18,26.93 -9.51,9.21 -14.18,19.56 -14.18,31.19 0,13.31 4.67,24.08 13.89,32.59 9.35,8.36 22.96,12.62 40.95,12.62 18.86,0 36.29,-4.55 52.59,-13.61 16.15,-9.21 27.63,-20.41 34.44,-33.45 6.8,-13.19 10.06,-30.34 10.06,-51.31l0 -27.06zm15.88 -399.41l65.62 0c0.28,7.22 0.42,13.46 0.42,18.7 0,30.76 -7.8,54.58 -23.24,71.44 -15.59,16.87 -35.44,25.36 -59.8,25.36 -17.72,0 -44.66,-7.36 -80.65,-22.11 -21.83,-8.78 -36.86,-13.31 -45.21,-13.31 -8.09,0 -14.33,2.54 -18.72,7.5 -4.39,4.96 -6.8,13.9 -7.09,26.66l-64.76 0c-0.28,-6.67 -0.43,-12.48 -0.43,-17.44 0,-29.62 8.22,-53.15 24.51,-70.58 16.3,-17.44 35.72,-26.22 58.12,-26.22 9.77,0 18.85,1.12 27.49,3.4 8.51,2.13 24.38,8.08 47.49,17.72 23.1,9.77 39.96,14.59 50.45,14.59 7.52,0 13.47,-2.55 18.15,-7.65 4.53,-5.1 7.09,-14.46 7.65,-28.06zm230.04 389.47c0,-67.18 22.68,-122.73 68.03,-166.24 45.5,-43.66 106.72,-65.49 183.98,-65.49 88.29,0 155.04,25.67 200.11,76.83 36.29,41.23 54.43,92.11 54.43,152.5 0,67.75 -22.53,123.3 -67.46,166.68 -44.93,43.23 -107.15,64.91 -186.67,64.91 -70.86,0 -128.12,-18 -171.91,-53.99 -53.73,-44.51 -80.51,-102.9 -80.51,-175.2zm169.37 -0.42c0,39.41 7.94,68.45 23.95,87.17 15.87,18.85 35.87,28.34 59.95,28.34 24.38,0 44.37,-9.35 59.96,-27.92 15.73,-18.57 23.53,-48.18 23.53,-89.28 0,-38.14 -7.94,-66.63 -23.67,-85.33 -15.73,-18.57 -35.3,-27.92 -58.54,-27.92 -24.67,0 -45.07,9.49 -61.08,28.35 -16.02,18.98 -24.1,47.9 -24.1,86.59zm906.09 -389.05l0 167.8 92.99 0 0 123.32 -92.99 0 0 156.47c0,18.85 1.85,31.33 5.39,37.42 5.53,9.35 15.18,14.17 29.06,14.17 12.47,0 29.91,-3.68 52.3,-10.91l12.47 116.79c-41.81,9.07 -80.79,13.6 -117.08,13.6 -42.08,0 -73.13,-5.39 -92.96,-16.16 -19.99,-10.77 -34.73,-27.21 -44.23,-49.17 -9.64,-21.97 -14.31,-57.69 -14.31,-107.02l0 -155.19 -62.36 0 0 -123.32 62.36 0 0 -81.07 169.36 -86.73zm663.04 430.15l-338.74 0c2.97,27.23 10.35,47.35 21.97,60.67 16.3,19.13 37.69,28.63 63.92,28.63 16.59,0 32.46,-4.12 47.33,-12.47 9.22,-5.24 19,-14.47 29.49,-27.78l166.54 15.3c-25.52,44.36 -56.13,76.12 -92.13,95.39 -36.01,19.13 -87.6,28.77 -154.92,28.77 -58.4,0 -104.3,-8.21 -137.91,-24.65 -33.45,-16.46 -61.22,-42.67 -83.19,-78.54 -21.97,-35.84 -33.02,-77.94 -33.02,-126.42 0,-68.87 22.11,-124.73 66.18,-167.24 44.22,-42.67 105.18,-64.07 182.98,-64.07 63.07,0 112.96,9.64 149.39,28.78 36.57,18.99 64.49,46.77 83.48,82.9 19.14,36.29 28.63,83.49 28.63,141.61l0 19.12zm-171.79 -80.93c-3.39,-32.74 -12.17,-56.12 -26.35,-70.15 -14.31,-14.18 -33.02,-21.27 -56.27,-21.27 -26.92,0 -48.34,10.79 -64.49,32.04 -10.2,13.33 -16.73,33.02 -19.41,59.38l166.52 0zm250.74 -181.42l157.75 0 0 64.36c22.82,-26.93 45.64,-45.93 68.74,-57.41 23.1,-11.34 51.02,-17.01 83.76,-17.01 35.15,0 62.93,6.24 83.35,18.72 20.54,12.47 37.27,31.03 50.31,55.7 26.5,-28.78 50.74,-48.49 72.7,-58.83 21.83,-10.34 48.77,-15.59 80.94,-15.59 47.34,0 84.32,14.04 110.84,42.25 26.64,28.06 39.83,71.99 39.83,131.81l0 276.94 -169.39 0 0 -251.15c0,-19.98 -3.82,-34.87 -11.62,-44.5 -11.34,-15.18 -25.5,-22.82 -42.37,-22.82 -19.85,0 -36,7.23 -48.19,21.54 -12.2,14.45 -18.13,37.55 -18.13,69.45l0 227.48 -169.53 0 0 -242.92c0,-19.43 -1.13,-32.47 -3.25,-39.42 -3.7,-11.05 -9.92,-19.98 -18.71,-26.78 -8.93,-6.81 -19.29,-10.2 -31.18,-10.2 -19.42,0 -35.29,7.37 -47.77,21.96 -12.47,14.75 -18.71,38.83 -18.71,72.28l0 225.08 -169.37 0 0 -440.94zm1133.58 608.76l0 -608.76 158.17 0 0 65.21c21.97,-27.5 41.96,-46.07 60.25,-55.7 24.65,-13.04 51.87,-19.57 81.77,-19.57 58.96,0 104.6,22.68 136.91,67.75 32.18,45.07 48.34,100.91 48.34,167.39 0,73.28 -17.58,129.26 -52.73,167.95 -35.15,38.56 -79.65,57.83 -133.23,57.83 -26.08,0 -49.89,-4.39 -71.29,-13.17 -21.4,-8.94 -40.68,-22.13 -57.54,-39.56l0 210.63 -170.65 0zm169.51 -387.09c0,34.87 7.23,60.82 21.97,77.68 14.6,16.87 33.17,25.36 55.57,25.36 19.69,0 36.13,-8.07 49.46,-24.36 13.32,-16.17 19.97,-43.67 19.97,-82.36 0,-35.72 -6.93,-61.93 -20.83,-78.66 -13.74,-16.86 -30.76,-25.23 -50.59,-25.23 -21.69,0 -39.69,8.51 -54.01,25.38 -14.45,16.86 -21.54,44.36 -21.54,82.19zm398.57 -221.67l158.17 0 0 72.16c15.3,-31.19 31.04,-52.73 47.2,-64.5 16.15,-11.76 36.13,-17.72 59.94,-17.72 24.95,0 52.16,7.81 81.79,23.25l-52.3 120.48c-19.84,-8.37 -35.72,-12.48 -47.35,-12.48 -22.11,0 -39.26,9.21 -51.45,27.35 -17.43,25.8 -26.21,73.99 -26.21,144.57l0 147.83 -169.79 0 0 -440.94zm879.03 262.35l-338.74 0c2.97,27.23 10.35,47.35 21.97,60.67 16.3,19.13 37.7,28.63 63.93,28.63 16.58,0 32.45,-4.12 47.32,-12.47 9.23,-5.24 19,-14.47 29.49,-27.78l166.54 15.3c-25.52,44.36 -56.13,76.12 -92.13,95.39 -36.01,19.13 -87.6,28.77 -154.92,28.77 -58.4,0 -104.3,-8.21 -137.91,-24.65 -33.45,-16.46 -61.22,-42.67 -83.19,-78.54 -21.97,-35.84 -33.02,-77.94 -33.02,-126.42 0,-68.87 22.11,-124.73 66.18,-167.24 44.22,-42.67 105.18,-64.07 182.98,-64.07 63.07,0 112.96,9.64 149.39,28.78 36.57,18.99 64.49,46.77 83.48,82.9 19.14,36.29 28.63,83.49 28.63,141.61l0 19.12zm-171.79 -80.93c-3.39,-32.74 -12.17,-56.12 -26.35,-70.15 -14.31,-14.18 -33.02,-21.27 -56.27,-21.27 -26.92,0 -48.34,10.79 -64.49,32.04 -10.2,13.33 -16.73,33.02 -19.41,59.38l166.52 0zm578.42 87.17l160.59 18.29c-8.78,33.44 -23.39,62.5 -43.51,87.02 -20.27,24.51 -46.06,43.51 -77.53,57.12 -31.32,13.46 -71.29,20.26 -119.77,20.26 -46.76,0 -85.73,-4.39 -116.78,-13.04 -31.19,-8.78 -57.97,-22.82 -80.36,-42.37 -22.54,-19.56 -40.11,-42.38 -52.73,-68.74 -12.76,-26.21 -19.13,-61.08 -19.13,-104.6 0,-45.36 7.65,-83.2 23.25,-113.39 11.34,-22.11 26.78,-41.96 46.48,-59.52 19.7,-17.57 39.82,-30.76 60.67,-39.27 32.88,-13.6 75.12,-20.41 126.57,-20.41 71.99,0 126.84,12.91 164.69,38.69 37.69,25.67 64.33,63.36 79.51,112.96l-159.02 21.13c-4.96,-18.85 -14.04,-33.02 -27.23,-42.52 -13.17,-9.64 -30.74,-14.31 -52.99,-14.31 -27.92,0 -50.6,10.06 -67.89,30.03 -17.29,20.14 -25.95,50.47 -25.95,91.14 0,36.29 8.66,63.78 25.81,82.64 17.15,18.85 38.97,28.2 65.61,28.2 22.11,0 40.68,-5.67 55.84,-17.01 15.03,-11.34 26.37,-28.77 33.87,-52.3zm-189.77 240.81l12.46 -48.89c25.95,-6.38 50.33,-9.65 73.01,-9.65 47.33,0 80.08,8.08 98.08,24.1 17.99,16.15 26.93,35.01 26.93,56.97 0,13.19 -4.11,26.93 -12.2,41.11 -8.22,14.02 -22.81,25.36 -43.79,34.01 -21.13,8.5 -49.04,12.91 -83.91,12.91 -31.6,0 -68.6,-3.7 -111.26,-10.77l0 -51.19c28.78,5.55 59.38,8.37 91.71,8.37 23.81,0 39.97,-3.25 48.46,-9.63 8.37,-6.38 12.62,-14.61 12.62,-24.81 0,-8.08 -3.54,-15.02 -10.34,-20.83 -6.95,-5.81 -17.72,-8.65 -32.46,-8.65 -19.7,0 -42.81,2.27 -69.31,6.95zm407.35 -287.73c0,-67.18 22.68,-122.73 68.03,-166.24 45.5,-43.66 106.72,-65.49 183.98,-65.49 88.29,0 155.04,25.67 200.11,76.83 36.29,41.23 54.43,92.11 54.43,152.5 0,67.75 -22.53,123.3 -67.46,166.68 -44.93,43.23 -107.15,64.91 -186.67,64.91 -70.86,0 -128.12,-18 -171.91,-53.99 -53.73,-44.51 -80.51,-102.9 -80.51,-175.2zm169.37 -0.42c0,39.41 7.94,68.45 23.95,87.17 15.87,18.85 35.87,28.34 59.95,28.34 24.38,0 44.37,-9.35 59.96,-27.92 15.73,-18.57 23.53,-48.18 23.53,-89.28 0,-38.14 -7.94,-66.63 -23.67,-85.33 -15.73,-18.57 -35.3,-27.92 -58.54,-27.92 -24.67,0 -45.07,9.49 -61.08,28.35 -16.02,18.98 -24.1,47.9 -24.1,86.59zm404.38 50.32l180.7 0 0 169.37 -180.7 0 0 -169.37zm283.17 0l180.71 0 0 169.37 -180.71 0 0 -169.37zm283.18 0l180.7 0 0 169.37 -180.7 0 0 -169.37zm-15336.33 593.46l247.47 0 95.53 370.34 95.11 -370.34 246.6 0 0 608.74 -153.63 0 0 -464.19 -119.2 464.19 -139.03 0 -118.78 -464.19 0 464.19 -154.07 0 0 -608.74z"/>
    <path class="fil7" d="M13559.59 15102.14l-161.44 -17.01c6.1,-28.21 14.89,-50.46 26.37,-66.61 11.48,-16.16 27.92,-30.2 49.6,-42.1 15.45,-8.64 36.86,-15.3 63.93,-19.98 27.07,-4.67 56.41,-7.09 88.01,-7.09 50.61,0 91.41,2.84 122.03,8.51 30.77,5.67 56.41,17.56 76.83,35.57 14.45,12.47 25.79,30.05 34.16,52.87 8.21,22.96 12.32,44.64 12.32,65.48l0 194.73c0,20.7 1.42,37 3.98,48.77 2.68,11.76 8.35,26.78 17.29,45.07l-158.61 0c-6.37,-11.34 -10.49,-19.98 -12.46,-25.93 -1.99,-5.96 -3.84,-15.32 -5.82,-28.08 -22.1,21.41 -44.23,36.57 -66.05,45.64 -29.9,12.19 -64.62,18.28 -104.16,18.28 -52.59,0 -92.56,-12.19 -119.91,-36.55 -27.23,-24.24 -40.82,-54.3 -40.82,-90.02 0,-33.59 9.77,-61.08 29.48,-82.62 19.69,-21.68 55.84,-37.69 108.7,-48.2 63.49,-12.74 104.6,-21.68 123.45,-26.78 18.72,-5.1 38.69,-11.91 59.67,-20.12 0,-20.84 -4.25,-35.29 -12.75,-43.66 -8.65,-8.21 -23.67,-12.48 -45.35,-12.48 -27.65,0 -48.34,4.55 -62.24,13.33 -10.77,6.95 -19.55,19.99 -26.21,38.98zm146.55 88.87c-23.25,8.35 -47.47,15.73 -72.57,22.11 -34.3,9.06 -56.12,18.14 -65.19,26.92 -9.5,9.21 -14.18,19.57 -14.18,31.19 0,13.32 4.68,24.09 13.9,32.6 9.35,8.35 22.96,12.61 40.95,12.61 18.85,0 36.29,-4.54 52.58,-13.61 16.16,-9.2 27.64,-20.4 34.45,-33.44 6.8,-13.19 10.06,-30.34 10.06,-51.31l0 -27.07zm236.7 87.3l167.82 -15.87c6.94,19.99 16.58,34.3 29.05,42.81 12.48,8.64 29.06,12.88 49.89,12.88 22.68,0 40.25,-4.81 52.73,-14.59 9.63,-7.09 14.45,-16.15 14.45,-26.92 0,-12.19 -6.38,-21.56 -18.98,-28.21 -9.23,-4.69 -33.47,-10.5 -72.73,-17.43 -58.66,-10.36 -99.48,-19.71 -122.3,-28.49 -22.82,-8.79 -42.1,-23.53 -57.69,-44.23 -15.73,-20.69 -23.53,-44.36 -23.53,-71 0,-29.06 8.51,-54.15 25.38,-75.12 16.86,-21.12 40.11,-36.86 69.72,-47.2 29.62,-10.35 69.31,-15.59 119.19,-15.59 52.59,0 91.42,4.11 116.52,12.05 25.09,8.07 45.92,20.54 62.64,37.41 16.73,16.87 30.62,39.68 41.82,68.46l-160.3 15.88c-4.25,-14.18 -11.06,-24.52 -20.85,-31.19 -13.31,-8.92 -29.32,-13.32 -48.18,-13.32 -19,0 -33.02,3.41 -41.67,10.21 -8.78,6.79 -13.03,15.02 -13.03,24.65 0,10.92 5.53,19 16.58,24.53 11.05,5.53 35.14,10.49 72.28,15.02 56.12,6.38 97.94,15.17 125.29,26.51 27.49,11.34 48.48,27.49 62.93,48.61 14.59,20.99 21.82,44.07 21.82,69.31 0,25.52 -7.66,50.31 -23.1,74.41 -15.3,24.1 -39.54,43.22 -72.56,57.4 -33.16,14.31 -78.23,21.4 -135.21,21.4 -80.51,0 -137.91,-11.48 -172.07,-34.44 -34.16,-22.96 -56.12,-55.7 -65.91,-97.94zm833.82 289.85l0 -608.75 158.17 0 0 65.2c21.96,-27.49 41.95,-46.06 60.24,-55.69 24.65,-13.05 51.88,-19.57 81.77,-19.57 58.97,0 104.61,22.68 136.91,67.75 32.19,45.07 48.34,100.91 48.34,167.39 0,73.27 -17.57,129.25 -52.73,167.94 -35.15,38.57 -79.65,57.83 -133.23,57.83 -26.07,0 -49.89,-4.39 -71.28,-13.17 -21.4,-8.94 -40.68,-22.12 -57.55,-39.56l0 210.63 -170.64 0zm169.5 -387.08c0,34.87 7.24,60.81 21.97,77.68 14.61,16.86 33.18,25.36 55.57,25.36 19.69,0 36.13,-8.07 49.46,-24.37 13.33,-16.17 19.98,-43.66 19.98,-82.35 0,-35.72 -6.93,-61.94 -20.83,-78.66 -13.74,-16.87 -30.76,-25.24 -50.6,-25.24 -21.68,0 -39.68,8.52 -54.01,25.38 -14.45,16.87 -21.54,44.36 -21.54,82.2zm376.18 0c0,-67.18 22.68,-122.74 68.03,-166.24 45.5,-43.67 106.72,-65.49 183.97,-65.49 88.29,0 155.05,25.66 200.12,76.83 36.28,41.23 54.43,92.11 54.43,152.5 0,67.74 -22.54,123.3 -67.46,166.68 -44.93,43.22 -107.15,64.9 -186.68,64.9 -70.85,0 -128.11,-18 -171.91,-53.99 -53.72,-44.5 -80.5,-102.9 -80.5,-175.19zm169.36 -0.43c0,39.42 7.95,68.46 23.96,87.17 15.87,18.86 35.86,28.35 59.95,28.35 24.38,0 44.37,-9.35 59.96,-27.92 15.73,-18.57 23.53,-48.18 23.53,-89.29 0,-38.14 -7.95,-66.62 -23.67,-85.32 -15.73,-18.57 -35.3,-27.92 -58.54,-27.92 -24.67,0 -45.07,9.49 -61.09,28.35 -16.01,18.98 -24.1,47.89 -24.1,86.58zm882.87 -389.04l0 608.74 -158.18 0 0 -65.21c-22.25,27.65 -42.37,46.35 -60.66,56.14 -24.38,12.6 -51.45,18.98 -81.36,18.98 -60.09,0 -106.01,-22.82 -137.77,-68.45 -31.59,-45.64 -47.47,-101.2 -47.47,-166.54 0,-73.13 17.44,-128.97 52.59,-167.66 35,-38.84 79.51,-58.26 133.36,-58.26 26.37,0 50.17,4.53 71.73,13.33 21.4,8.92 40.39,22.11 57.12,39.83l0 -210.9 170.64 0zm-169.52 387.07c0,-34.73 -7.22,-60.53 -21.97,-77.54 -14.59,-17.01 -33.16,-25.5 -55.55,-25.5 -19.71,0 -36.15,8.21 -49.46,24.52 -13.33,16.3 -20,43.65 -20,82.2 0,36 6.95,62.36 20.57,79.08 13.73,16.73 30.74,25.1 50.88,25.1 21.68,0 39.68,-8.37 53.99,-25.24 14.46,-17.01 21.54,-44.5 21.54,-82.62zm761.96 43.08l-338.73 0c2.97,27.22 10.35,47.34 21.97,60.67 16.3,19.12 37.69,28.63 63.92,28.63 16.58,0 32.46,-4.12 47.33,-12.48 9.22,-5.24 19,-14.46 29.48,-27.77l166.54 15.3c-25.52,44.36 -56.12,76.11 -92.13,95.38 -36,19.14 -87.59,28.77 -154.91,28.77 -58.4,0 -104.31,-8.21 -137.91,-24.65 -33.45,-16.45 -61.23,-42.67 -83.19,-78.53 -21.97,-35.85 -33.02,-77.95 -33.02,-126.43 0,-68.87 22.11,-124.72 66.18,-167.23 44.22,-42.67 105.17,-64.07 182.98,-64.07 63.07,0 112.96,9.63 149.39,28.77 36.57,19 64.49,46.78 83.47,82.91 19.14,36.29 28.63,83.49 28.63,141.6l0 19.13zm-171.78 -80.94c-3.39,-32.73 -12.17,-56.12 -26.35,-70.14 -14.31,-14.18 -33.02,-21.27 -56.27,-21.27 -26.93,0 -48.34,10.78 -64.49,32.04 -10.21,13.33 -16.73,33.02 -19.41,59.37l166.52 0zm737.02 -349.21l0 167.8 92.98 0 0 123.32 -92.98 0 0 156.46c0,18.86 1.84,31.33 5.38,37.43 5.53,9.35 15.18,14.16 29.06,14.16 12.47,0 29.91,-3.68 52.3,-10.91l12.48 116.8c-41.82,9.06 -80.79,13.59 -117.08,13.59 -42.09,0 -73.13,-5.38 -92.97,-16.15 -19.99,-10.77 -34.73,-27.21 -44.23,-49.18 -9.63,-21.96 -14.31,-57.68 -14.31,-107.02l0 -155.18 -62.36 0 0 -123.32 62.36 0 0 -81.07 169.37 -86.73zm663.03 430.15l-338.73 0c2.96,27.22 10.34,47.34 21.96,60.67 16.3,19.12 37.7,28.63 63.93,28.63 16.58,0 32.45,-4.12 47.32,-12.48 9.23,-5.24 19,-14.46 29.49,-27.77l166.54 15.3c-25.52,44.36 -56.13,76.11 -92.13,95.38 -36.01,19.14 -87.6,28.77 -154.92,28.77 -58.4,0 -104.3,-8.21 -137.91,-24.65 -33.44,-16.45 -61.22,-42.67 -83.19,-78.53 -21.96,-35.85 -33.02,-77.95 -33.02,-126.43 0,-68.87 22.11,-124.72 66.18,-167.23 44.22,-42.67 105.18,-64.07 182.98,-64.07 63.07,0 112.96,9.63 149.39,28.77 36.58,19 64.5,46.78 83.48,82.91 19.14,36.29 28.63,83.49 28.63,141.6l0 19.13zm-171.78 -80.94c-3.4,-32.73 -12.18,-56.12 -26.36,-70.14 -14.31,-14.18 -33.02,-21.27 -56.27,-21.27 -26.92,0 -48.34,10.78 -64.49,32.04 -10.2,13.33 -16.72,33.02 -19.41,59.37l166.53 0zm251.16 -181.41l158.17 0 0 72.15c15.3,-31.19 31.05,-52.73 47.2,-64.49 16.16,-11.77 36.14,-17.72 59.95,-17.72 24.95,0 52.16,7.8 81.78,23.25l-52.3 120.47c-19.83,-8.37 -35.72,-12.47 -47.34,-12.47 -22.11,0 -39.26,9.2 -51.45,27.35 -17.43,25.8 -26.21,73.98 -26.21,144.57l0 147.83 -169.8 0 0 -440.94zm1123.66 608.75l-170.64 0 0 -210.63c-16.73,17.44 -35.72,30.62 -57.12,39.56 -21.56,8.78 -45.36,13.17 -71.73,13.17 -53.56,0 -98.08,-19.26 -133.22,-57.83 -35.15,-38.69 -52.73,-93.96 -52.73,-165.97 0,-48.18 8.07,-90.56 24.1,-127.4 16.02,-36.86 38.27,-64.36 66.9,-82.5 28.49,-18.15 59.8,-27.21 94.24,-27.21 29.63,0 56.84,6.52 81.79,19.57 18.28,9.63 38.26,28.2 60.23,55.69l0 -65.2 158.18 0 0 608.75zm-169.52 -387.08c0,-37.84 -7.08,-65.33 -21.26,-82.2 -14.3,-16.86 -32.31,-25.38 -54.27,-25.38 -20.14,0 -37.15,8.37 -50.88,25.24 -13.62,16.72 -20.57,44.64 -20.57,84.04 0,35.16 6.81,60.8 20.14,76.97 13.45,16.3 29.89,24.37 49.32,24.37 22.67,0 41.24,-8.5 55.84,-25.36 14.46,-16.87 21.68,-42.81 21.68,-77.68zm737.17 219.27l-157.9 0 0 -71.43c-23.53,29.33 -47.19,50.31 -71.14,62.65 -23.96,12.46 -53.44,18.69 -88.31,18.69 -46.49,0 -82.91,-13.88 -109.42,-41.66 -26.36,-27.79 -39.54,-70.73 -39.54,-128.56l0 -280.63 169.81 0 0 242.51c0,27.64 5.1,47.33 15.3,58.95 10.34,11.63 24.66,17.44 43.22,17.44 20.28,0 36.72,-7.79 49.62,-23.25 12.88,-15.58 19.26,-43.36 19.26,-83.47l0 -212.18 169.1 0 0 440.94zm256.54 -298.21l-161.44 -17.01c6.09,-28.21 14.89,-50.46 26.37,-66.61 11.48,-16.16 27.92,-30.2 49.6,-42.1 15.45,-8.64 36.86,-15.3 63.93,-19.98 27.06,-4.67 56.41,-7.09 88,-7.09 50.62,0 91.42,2.84 122.04,8.51 30.77,5.67 56.41,17.56 76.83,35.57 14.45,12.47 25.79,30.05 34.16,52.87 8.21,22.96 12.31,44.64 12.31,65.48l0 194.73c0,20.7 1.43,37 3.98,48.77 2.69,11.76 8.36,26.78 17.3,45.07l-158.62 0c-6.36,-11.34 -10.48,-19.98 -12.46,-25.93 -1.99,-5.96 -3.83,-15.32 -5.81,-28.08 -22.11,21.41 -44.23,36.57 -66.05,45.64 -29.9,12.19 -64.62,18.28 -104.17,18.28 -52.58,0 -92.55,-12.19 -119.9,-36.55 -27.23,-24.24 -40.82,-54.3 -40.82,-90.02 0,-33.59 9.77,-61.08 29.48,-82.62 19.69,-21.68 55.84,-37.69 108.69,-48.2 63.5,-12.74 104.61,-21.68 123.46,-26.78 18.72,-5.1 38.69,-11.91 59.66,-20.12 0,-20.84 -4.24,-35.29 -12.74,-43.66 -8.65,-8.21 -23.67,-12.48 -45.35,-12.48 -27.65,0 -48.34,4.55 -62.24,13.33 -10.77,6.95 -19.55,19.99 -26.21,38.98zm146.54 88.87c-23.24,8.35 -47.47,15.73 -72.56,22.11 -34.3,9.06 -56.12,18.14 -65.19,26.92 -9.5,9.21 -14.18,19.57 -14.18,31.19 0,13.32 4.68,24.09 13.9,32.6 9.35,8.35 22.96,12.61 40.95,12.61 18.85,0 36.29,-4.54 52.58,-13.61 16.16,-9.2 27.64,-20.4 34.45,-33.44 6.8,-13.19 10.05,-30.34 10.05,-51.31l0 -27.07zm272.43 -399.4l169.51 0 0 608.74 -169.51 0 0 -608.74zm283.6 0l169.08 0 0 115.07 -169.08 0 0 -115.07zm0 167.8l169.08 0 0 440.94 -169.08 0 0 -440.94zm741.26 -167.8l0 608.74 -158.18 0 0 -65.21c-22.25,27.65 -42.37,46.35 -60.66,56.14 -24.38,12.6 -51.45,18.98 -81.36,18.98 -60.08,0 -106.01,-22.82 -137.76,-68.45 -31.6,-45.64 -47.47,-101.2 -47.47,-166.54 0,-73.13 17.43,-128.97 52.58,-167.66 35,-38.84 79.51,-58.26 133.36,-58.26 26.38,0 50.17,4.53 71.73,13.33 21.4,8.92 40.4,22.11 57.12,39.83l0 -210.9 170.64 0zm-169.52 387.07c0,-34.73 -7.22,-60.53 -21.97,-77.54 -14.59,-17.01 -33.16,-25.5 -55.55,-25.5 -19.71,0 -36.15,8.21 -49.46,24.52 -13.33,16.3 -19.99,43.65 -19.99,82.2 0,36 6.94,62.36 20.56,79.08 13.74,16.73 30.74,25.1 50.88,25.1 21.68,0 39.68,-8.37 53.99,-25.24 14.47,-17.01 21.54,-44.5 21.54,-82.62zm426.49 -76.54l-161.44 -17.01c6.09,-28.21 14.89,-50.46 26.37,-66.61 11.48,-16.16 27.92,-30.2 49.6,-42.1 15.45,-8.64 36.86,-15.3 63.93,-19.98 27.06,-4.67 56.4,-7.09 88,-7.09 50.62,0 91.42,2.84 122.04,8.51 30.76,5.67 56.41,17.56 76.83,35.57 14.45,12.47 25.79,30.05 34.16,52.87 8.21,22.96 12.31,44.64 12.31,65.48l0 194.73c0,20.7 1.43,37 3.98,48.77 2.69,11.76 8.36,26.78 17.3,45.07l-158.62 0c-6.36,-11.34 -10.48,-19.98 -12.46,-25.93 -1.99,-5.96 -3.83,-15.32 -5.81,-28.08 -22.11,21.41 -44.23,36.57 -66.05,45.64 -29.9,12.19 -64.62,18.28 -104.17,18.28 -52.58,0 -92.55,-12.19 -119.9,-36.55 -27.23,-24.24 -40.82,-54.3 -40.82,-90.02 0,-33.59 9.77,-61.08 29.48,-82.62 19.69,-21.68 55.84,-37.69 108.69,-48.2 63.5,-12.74 104.61,-21.68 123.46,-26.78 18.72,-5.1 38.69,-11.91 59.66,-20.12 0,-20.84 -4.24,-35.29 -12.74,-43.66 -8.65,-8.21 -23.67,-12.48 -45.35,-12.48 -27.66,0 -48.34,4.55 -62.24,13.33 -10.77,6.95 -19.55,19.99 -26.21,38.98zm146.54 88.87c-23.24,8.35 -47.47,15.73 -72.56,22.11 -34.3,9.06 -56.12,18.14 -65.19,26.92 -9.5,9.21 -14.18,19.57 -14.18,31.19 0,13.32 4.68,24.09 13.9,32.6 9.35,8.35 22.96,12.61 40.95,12.61 18.85,0 36.29,-4.54 52.58,-13.61 16.16,-9.2 27.64,-20.4 34.44,-33.44 6.81,-13.19 10.06,-30.34 10.06,-51.31l0 -27.07zm730.94 -399.4l0 608.74 -158.19 0 0 -65.21c-22.25,27.65 -42.37,46.35 -60.65,56.14 -24.38,12.6 -51.45,18.98 -81.36,18.98 -60.09,0 -106.01,-22.82 -137.77,-68.45 -31.6,-45.64 -47.47,-101.2 -47.47,-166.54 0,-73.13 17.44,-128.97 52.59,-167.66 34.99,-38.84 79.51,-58.26 133.36,-58.26 26.37,0 50.17,4.53 71.73,13.33 21.39,8.92 40.39,22.11 57.11,39.83l0 -210.9 170.65 0zm-169.53 387.07c0,-34.73 -7.21,-60.53 -21.96,-77.54 -14.59,-17.01 -33.16,-25.5 -55.56,-25.5 -19.7,0 -36.14,8.21 -49.46,24.52 -13.32,16.3 -19.99,43.65 -19.99,82.2 0,36 6.95,62.36 20.56,79.08 13.74,16.73 30.75,25.1 50.88,25.1 21.69,0 39.69,-8.37 54,-25.24 14.46,-17.01 21.53,-44.5 21.53,-82.62zm761.97 43.08l-338.73 0c2.97,27.22 10.34,47.34 21.96,60.67 16.3,19.12 37.7,28.63 63.93,28.63 16.58,0 32.45,-4.12 47.33,-12.48 9.22,-5.24 19,-14.46 29.48,-27.77l166.54 15.3c-25.52,44.36 -56.12,76.11 -92.13,95.38 -36,19.14 -87.6,28.77 -154.92,28.77 -58.39,0 -104.3,-8.21 -137.9,-24.65 -33.45,-16.45 -61.23,-42.67 -83.2,-78.53 -21.96,-35.85 -33.02,-77.95 -33.02,-126.43 0,-68.87 22.11,-124.72 66.19,-167.23 44.21,-42.67 105.17,-64.07 182.98,-64.07 63.07,0 112.95,9.63 149.39,28.77 36.57,19 64.49,46.78 83.47,82.91 19.14,36.29 28.63,83.49 28.63,141.6l0 19.13zm-171.78 -80.94c-3.4,-32.73 -12.18,-56.12 -26.36,-70.14 -14.3,-14.18 -33.02,-21.27 -56.26,-21.27 -26.93,0 -48.34,10.78 -64.5,32.04 -10.2,13.33 -16.72,33.02 -19.4,59.37l166.52 0zm249.89 -349.21l180.7 0 0 138.74 -34.87 278.52 -111.68 0 -34.15 -278.52 0 -138.74zm6.23 459.63l168.66 0 0 149.11 -168.66 0 0 -149.11z"/>
   </g>
  </g>
 </g>
</svg>
