<?xml version="1.0" encoding="UTF-8" standalone="no"?>
<svg
   xmlns:dc="http://purl.org/dc/elements/1.1/"
   xmlns:cc="http://creativecommons.org/ns#"
   xmlns:rdf="http://www.w3.org/1999/02/22-rdf-syntax-ns#"
   xmlns:svg="http://www.w3.org/2000/svg"
   xmlns="http://www.w3.org/2000/svg"
   xmlns:sodipodi="http://sodipodi.sourceforge.net/DTD/sodipodi-0.dtd"
   xmlns:inkscape="http://www.inkscape.org/namespaces/inkscape"
   viewBox="0 0 841.88977 595.27557"
   id="svg35"
   height="595.27557"
   width="841.88977"
   version="1.1"
   sodipodi:docname="moura.svg"
   inkscape:version="0.92.2 (5c3e80d, 2017-08-06)">
  <sodipodi:namedview
     pagecolor="#ffffff"
     bordercolor="#666666"
     borderopacity="1"
     objecttolerance="10"
     gridtolerance="10"
     guidetolerance="10"
     inkscape:pageopacity="0"
     inkscape:pageshadow="2"
     inkscape:window-width="1366"
     inkscape:window-height="704"
     id="namedview22"
     showgrid="false"
     inkscape:zoom="0.30764122"
     inkscape:cx="69.886603"
     inkscape:cy="297.63779"
     inkscape:window-x="0"
     inkscape:window-y="339"
     inkscape:window-maximized="1"
     inkscape:current-layer="svg35" />
  <metadata
     id="metadata41">
    <rdf:RDF>
      <cc:Work
         rdf:about="">
        <dc:format>image/svg+xml</dc:format>
        <dc:type
           rdf:resource="http://purl.org/dc/dcmitype/StillImage" />
      </cc:Work>
    </rdf:RDF>
  </metadata>
  <defs
     id="defs39" />
  <g
     id="Layer1000"
     transform="matrix(1.6844388,0,0,1.6844388,-288.11073,-203.71481)">
    <path
       id="path2"
       style="fill:#003f8a;fill-rule:evenodd"
       d="m 194.173,140.9142 h 445.4278 v 222.714 H 194.173 Z"
       inkscape:connector-curvature="0" />
    <path
       id="path4"
       style="fill:#1b1918;fill-rule:evenodd"
       d="m 505.9723,363.6285 22.2714,-22.2713 V 140.9146 h -22.2714 l 0.0809,178.2242 -44.6238,44.4893 z"
       inkscape:connector-curvature="0" />
    <path
       id="path6"
       style="fill:#1b1918;fill-rule:evenodd"
       d="m 372.344,363.6281 89.0854,-89.0854 V 230 L 327.8013,363.6281 Z"
       inkscape:connector-curvature="0" />
    <path
       id="path8"
       style="fill:#1b1918;fill-rule:evenodd"
       d="m 238.7157,363.6281 89.0858,-89.0854 V 230 L 194.173,363.6281 Z"
       inkscape:connector-curvature="0" />
    <path
       id="path10"
       style="fill:#1b1918;fill-rule:evenodd"
       d="m 394.6152,252.2707 -22.2714,22.2718 V 140.914 h 22.2714 z"
       inkscape:connector-curvature="0" />
    <path
       id="path12"
       style="fill:#ffcb00;fill-rule:evenodd"
       d="M 194.1729,319.0849 372.3441,140.9141 V 274.5422 L 505.9722,140.9141 V 319.0849 L 461.4295,363.628 V 229.9995 L 327.801,363.628 V 229.9995 L 194.1729,363.628 Z"
       inkscape:connector-curvature="0" />
    <path
       id="path14"
       style="fill:#ffcb00;fill-rule:evenodd"
       d="m 566.7262,452.7133 80.9899,-80.9899 v 80.9901 H 631.518 v -41.9063 l -41.7908,41.9061 z"
       inkscape:connector-curvature="0" />
    <path
       id="path16"
       style="fill:#ffcb00;fill-rule:evenodd"
       d="m 482.1728,425.9867 v -54.2631 h -16.1979 v 54.2631 c -0.0411,6.6516 -5.6898,12.1562 -12.3415,12.1562 -6.6517,0 -11.9555,-5.5046 -11.9555,-12.1562 v -54.2631 h -16.198 v 54.2631 c 0,15.6026 12.6329,28.3748 28.1946,28.3748 15.5616,0 28.4983,-12.7722 28.4983,-28.3748 z"
       inkscape:connector-curvature="0" />
    <path
       id="path18"
       style="fill:#ffcb00;fill-rule:evenodd"
       d="m 202.2719,452.7134 80.9898,-80.9899 v 41.7518 l 41.7908,-41.7518 v 80.9899 h -16.198 v -41.9061 l -41.7908,41.9061 v -41.9061 l -41.7873,41.9061 z"
       inkscape:connector-curvature="0" />
    <path
       id="path20"
       style="fill:#ffcb00;fill-rule:evenodd"
       d="m 375.2662,386.3017 c 14.2744,0 25.9167,11.6423 25.9167,25.9168 0,14.2744 -11.6423,25.9167 -25.9167,25.9167 -14.2745,0 -25.9168,-11.6423 -25.9168,-25.9167 0,-14.2745 11.6423,-25.9168 25.9168,-25.9168 z m 0,-16.198 c 23.196,0 42.1147,18.9188 42.1147,42.1148 0,23.1959 -18.9187,42.1147 -42.1147,42.1147 -23.196,0 -42.1147,-18.9188 -42.1147,-42.1147 0,-23.196 18.9187,-42.1148 42.1147,-42.1148 z"
       inkscape:connector-curvature="0" />
    <path
       id="path22"
       style="fill:#ffcb00;fill-rule:evenodd"
       d="m 533.9171,422.9828 29.663,29.7306 h -22.8587 l -29.3923,-29.7781 v 29.7781 h -16.198 v -80.9899 h 30.3712 c 14.4975,0 26.3217,11.8242 26.3217,26.3217 0,11.2073 -7.3002,21.4892 -17.9069,24.9376 z m -10.4395,-10.7643 h -12.1485 v -24.297 h 12.1485 c 6.6911,0 12.1484,5.4573 12.1484,12.1485 0,6.6911 -5.4573,12.1485 -12.1484,12.1485 z"
       inkscape:connector-curvature="0" />
    <path
       id="path24"
       style="fill:#1b1918;fill-rule:evenodd"
       d="m 558.6272,452.7133 80.9899,-80.9899 v 80.9901 h -16.198 v -41.9063 l -41.7909,41.9061 z"
       inkscape:connector-curvature="0" />
    <path
       id="path26"
       style="fill:#1b1918;fill-rule:evenodd"
       d="m 474.0738,425.9867 v -54.2631 h -16.1979 v 54.2631 c -0.0411,6.6516 -5.6898,12.1562 -12.3415,12.1562 -6.6517,0 -11.9555,-5.5046 -11.9555,-12.1562 v -54.2631 h -16.198 v 54.2631 c 0,15.6026 12.633,28.3748 28.1946,28.3748 15.5616,0 28.4983,-12.7722 28.4983,-28.3748 z"
       inkscape:connector-curvature="0" />
    <path
       id="path28"
       style="fill:#1b1918;fill-rule:evenodd"
       d="m 194.1729,452.7134 80.9898,-80.9899 v 41.7518 l 41.7908,-41.7518 v 80.9899 h -16.198 v -41.9061 l -41.7907,41.9061 v -41.9061 l -41.7874,41.9061 z"
       inkscape:connector-curvature="0" />
    <path
       id="path30"
       style="fill:#1b1918;fill-rule:evenodd"
       d="m 367.1672,386.3017 c 14.2744,0 25.9167,11.6423 25.9167,25.9168 0,14.2744 -11.6423,25.9167 -25.9167,25.9167 -14.2745,0 -25.9168,-11.6423 -25.9168,-25.9167 0,-14.2745 11.6423,-25.9168 25.9168,-25.9168 z m 0,-16.198 c 23.196,0 42.1147,18.9188 42.1147,42.1148 0,23.1959 -18.9187,42.1147 -42.1147,42.1147 -23.196,0 -42.1147,-18.9188 -42.1147,-42.1147 0,-23.196 18.9187,-42.1148 42.1147,-42.1148 z"
       inkscape:connector-curvature="0" />
    <path
       id="path32"
       style="fill:#1b1918;fill-rule:evenodd"
       d="m 525.8182,422.9828 29.663,29.7306 h -22.8588 l -29.3923,-29.7781 v 29.7781 h -16.198 v -80.9899 h 30.3712 c 14.4975,0 26.3217,11.8242 26.3217,26.3217 0,11.2073 -7.3002,21.4892 -17.9068,24.9376 z m -10.4396,-10.7643 h -12.1485 v -24.297 h 12.1485 c 6.6911,0 12.1484,5.4573 12.1484,12.1485 0,6.6911 -5.4573,12.1485 -12.1484,12.1485 z"
       inkscape:connector-curvature="0" />
  </g>
</svg>
