<?xml version="1.0" encoding="UTF-8" standalone="no"?>
<svg
   xmlns:dc="http://purl.org/dc/elements/1.1/"
   xmlns:cc="http://creativecommons.org/ns#"
   xmlns:rdf="http://www.w3.org/1999/02/22-rdf-syntax-ns#"
   xmlns:svg="http://www.w3.org/2000/svg"
   xmlns="http://www.w3.org/2000/svg"
   xmlns:xlink="http://www.w3.org/1999/xlink"
   xmlns:sodipodi="http://sodipodi.sourceforge.net/DTD/sodipodi-0.dtd"
   xmlns:inkscape="http://www.inkscape.org/namespaces/inkscape"
   viewBox="0 0 141.7323 141.7323"
   id="svg227"
   width="297mm"
   height="210mm"
   version="1.1"
   sodipodi:docname="ppa.svg"
   inkscape:version="0.92.2 (5c3e80d, 2017-08-06)">
  <sodipodi:namedview
     pagecolor="#ffffff"
     bordercolor="#666666"
     borderopacity="1"
     objecttolerance="10"
     gridtolerance="10"
     guidetolerance="10"
     inkscape:pageopacity="0"
     inkscape:pageshadow="2"
     inkscape:window-width="1366"
     inkscape:window-height="704"
     id="namedview139"
     showgrid="false"
     inkscape:zoom="0.20813886"
     inkscape:cx="-969.52015"
     inkscape:cy="-385.11805"
     inkscape:window-x="0"
     inkscape:window-y="339"
     inkscape:window-maximized="1"
     inkscape:current-layer="Layer1000"
     showguides="false" />
  <metadata
     id="metadata233">
    <rdf:RDF>
      <cc:Work
         rdf:about="">
        <dc:format>image/svg+xml</dc:format>
        <dc:type
           rdf:resource="http://purl.org/dc/dcmitype/StillImage" />
      </cc:Work>
    </rdf:RDF>
  </metadata>
  <defs
     id="defs231" />
  <g
     id="Layer1000"
     transform="translate(7.8072877,7.0565873)">
    <g
       id="Layer1001"
       transform="matrix(1.5054953,0,0,1.5054953,-41.179459,-52.123032)">
      <g
         id="Layer1002">
        <path
           id="path4"
           style="fill:#1b1918;fill-rule:evenodd"
           d="m 116.2228,46.6812 5.804,2.6761 -1.6225,-0.7632 -1.728,-0.7083 -1.8291,-0.6517 -1.9269,-0.5938 -2.0211,-0.536 -2.112,-0.4762 -2.1985,-0.4156 -2.2817,-0.3538 -2.3614,-0.2913 -2.437,-0.2273 -2.5096,-0.1628 -2.5778,-0.0969 -2.6432,-0.0302 -2.7038,0.0382 -2.7618,0.1068 -2.8159,0.1769 -2.8658,0.2475 -2.9128,0.32 -2.9556,0.3934 -2.9948,0.4673 -2.9947,0.536 -2.9556,0.5971 -2.9128,0.656 -2.8658,0.712 -2.8154,0.7665 -2.7618,0.8183 -2.7043,0.8682 -2.6428,0.9158 -2.5777,0.9604 -2.5096,1.0032 -2.4371,1.0442 -2.3613,1.0823 -2.2818,1.1186 -2.1985,1.1519 -2.1119,1.1835 -2.0211,1.2131 -1.927,1.2395 -1.8291,1.2644 -1.7279,1.287 -1.6225,1.3073 -1.5139,1.3246 -1.4013,1.3407 -1.2851,1.3533 -1.1656,1.3652 -1.0419,1.3736 -0.9152,1.3797 -0.784,1.3844 -0.6499,1.3863 -0.5119,1.3858 -0.3699,1.3835 -0.2249,1.3787 -0.0758,1.3713 0.0758,1.3458 0.2249,1.3035 0.3699,1.2592 0.5119,1.2146 0.6499,1.1684 0.784,1.1218 0.9152,1.0734 1.0419,1.0244 1.1656,0.9741 1.2851,0.9232 1.4013,0.8711 1.5139,0.8178 1.6225,0.7633 -5.804,-2.6761 -1.6225,-0.7633 -1.5139,-0.8179 -1.4013,-0.871 -1.2851,-0.9232 -1.1656,-0.9741 -1.0419,-1.0244 -0.9152,-1.0734 -0.784,-1.1218 -0.6499,-1.1685 -0.5119,-1.2145 -0.3699,-1.2592 -0.2249,-1.3035 -0.0758,-1.3459 0.0758,-1.3712 0.2249,-1.3788 0.3699,-1.3834 0.5119,-1.3859 0.6499,-1.3862 0.784,-1.3845 0.9152,-1.3797 1.0419,-1.3736 1.1656,-1.3651 1.2851,-1.3533 1.4013,-1.3407 1.5139,-1.3246 1.6225,-1.3073 1.7279,-1.287 1.8291,-1.2644 1.927,-1.2395 2.0211,-1.2131 2.1119,-1.1835 2.1985,-1.1519 2.2818,-1.1186 2.3613,-1.0823 2.4371,-1.0442 2.5096,-1.0032 2.5777,-0.9605 2.6427,-0.9157 2.7044,-0.8682 2.7618,-0.8183 2.8154,-0.7666 2.8658,-0.7119 2.9128,-0.656 2.9556,-0.5972 2.9947,-0.5359 2.9947,-0.4673 2.9557,-0.3934 2.9128,-0.32 2.8658,-0.2475 2.8159,-0.1769 2.7617,-0.1069 2.7039,-0.0381 2.6432,0.0301 2.5778,0.097 2.5096,0.1628 2.437,0.2273 2.3614,0.2913 2.2817,0.3538 2.1985,0.4155 2.112,0.4762 2.0211,0.536 1.9269,0.5939 1.8291,0.6517 1.728,0.7082 z"
           inkscape:connector-curvature="0" />
        <path
           id="path6"
           style="fill:#333333;fill-rule:evenodd"
           d="m 21.3273,93.1372 5.804,2.6761 1.7279,0.7077 1.8291,0.6518 1.927,0.5943 2.0211,0.5355 2.1119,0.4762 2.1985,0.4155 2.2818,0.3539 2.3613,0.2913 2.4371,0.2272 2.5096,0.1629 2.5777,0.0969 2.6428,0.0301 2.7043,-0.0381 2.7618,-0.1068 2.8154,-0.1769 2.8658,-0.2476 2.9128,-0.32 2.9556,-0.3934 2.9947,-0.4672 2.9948,-0.536 2.9556,-0.5972 2.9128,-0.6559 2.8658,-0.712 2.8159,-0.7666 2.7618,-0.8183 2.7038,-0.8682 2.6432,-0.9157 2.5778,-0.9604 2.5096,-1.0033 2.437,-1.0442 2.3614,-1.0823 2.2817,-1.1185 2.1985,-1.152 2.112,-1.1835 2.0211,-1.2131 1.9269,-1.2395 1.8291,-1.2644 1.728,-1.287 1.6225,-1.3072 1.5138,-1.3247 1.4014,-1.3406 1.2851,-1.3534 1.1656,-1.3651 1.0418,-1.3736 0.9153,-1.3797 0.784,-1.3844 0.6498,-1.3863 0.512,-1.3858 0.3699,-1.3835 0.2249,-1.3788 0.0758,-1.3712 -0.0758,-1.3458 -0.2249,-1.3035 -0.3699,-1.2593 -0.512,-1.2145 -0.6498,-1.1684 -0.784,-1.1214 -0.9153,-1.0738 -1.0418,-1.0245 -1.1656,-0.974 -1.2851,-0.9233 -1.4014,-0.871 -1.5138,-0.8174 -5.804,-2.6761 1.5138,0.8174 1.4014,0.871 1.2851,0.9232 1.1656,0.9741 1.0418,1.0245 0.9153,1.0738 0.784,1.1214 0.6498,1.1684 0.512,1.2145 0.3699,1.2593 0.2249,1.3034 0.0758,1.3459 -0.0758,1.3712 -0.2249,1.3788 -0.3699,1.3834 -0.512,1.3859 -0.6498,1.3863 -0.784,1.3844 -0.9153,1.3797 -1.0418,1.3736 -1.1656,1.3651 -1.2851,1.3533 -1.4014,1.3407 -1.5138,1.3246 -1.6225,1.3073 -1.728,1.287 -1.8291,1.2644 -1.9269,1.2395 -2.0211,1.2131 -2.112,1.1835 -2.1985,1.1519 -2.2817,1.1186 -2.3614,1.0823 -2.437,1.0442 -2.5096,1.0032 -2.5778,0.9605 -2.6432,0.9157 -2.7039,0.8682 -2.7617,0.8183 -2.8159,0.7666 -2.8658,0.7119 -2.9128,0.656 -2.9557,0.5972 -2.9947,0.536 -2.9947,0.4672 -2.9556,0.3934 -2.9128,0.32 -2.8658,0.2475 -2.8154,0.177 -2.7618,0.1068 -2.7044,0.0381 -2.6427,-0.0301 -2.5777,-0.097 -2.5096,-0.1628 -2.4371,-0.2273 -2.3613,-0.2912 -2.2818,-0.3539 -2.1985,-0.4155 -2.1119,-0.4762 -2.0211,-0.5355 -1.927,-0.5944 -1.8291,-0.6517 z"
           inkscape:connector-curvature="0" />
      </g>
      <defs
         id="defs17">
        <linearGradient
           id="grad1">
          <stop
             id="stop9"
             stop-opacity="1.0000"
             stop-color="#1b1918"
             offset="3435993547.0000%" />
          <stop
             id="stop11"
             stop-opacity="1.0000"
             stop-color="#000000"
             offset="12.0000%" />
          <stop
             id="stop13"
             stop-opacity="1.0000"
             stop-color="#d6d6d6"
             offset="1581675980.0000%" />
        </linearGradient>
        <linearGradient
           gradientUnits="userSpaceOnUse"
           gradientTransform="scale(1.4379743,0.69542274)"
           y2="140.45113"
           x2="6.7910457"
           y1="59.506111"
           x1="6.7910457"
           id="grad2"
           xlink:href="#grad1" />
      </defs>
      <path
         id="path19"
         style="fill:url(#grad2)"
         d="m 67.9638,43.1243 a 25.9525,59.2089 78.1899 0 1 58.1984,16.654 25.9525,59.2089 78.1899 1 1 -58.1984,-16.654 z"
         inkscape:connector-curvature="0" />
      <defs
         id="defs27">
        <linearGradient
           id="grad3">
          <stop
             id="stop21"
             stop-opacity="1.0000"
             stop-color="#e73f13"
             offset="0%" />
          <stop
             id="stop23"
             stop-opacity="1.0000"
             stop-color="#ffffff"
             offset="100%" />
        </linearGradient>
        <linearGradient
           gradientUnits="userSpaceOnUse"
           gradientTransform="scale(1.4775608,0.67679111)"
           y2="141.91617"
           x2="11.344576"
           y1="74.827965"
           x1="11.344576"
           id="grad4"
           xlink:href="#grad3" />
      </defs>
      <path
         id="path29"
         style="fill:#ffffff"
         d="m 16.7623,87.8136 1.8493,1.5571 1.1299,0.8136 1.2319,0.7647 1.3308,0.7153 1.4263,0.6649 1.519,0.6131 1.6079,0.5605 1.6941,0.5077 1.7768,0.4537 1.8564,0.3981 1.9327,0.3425 2.006,0.2857 2.0757,0.2282 2.1425,0.1694 2.206,0.1101 2.2663,0.0494 2.3232,-0.0117 2.3773,-0.0735 2.4277,-0.1369 2.4752,-0.2009 2.5194,-0.2654 2.5604,-0.3313 2.598,-0.3976 2.6328,-0.4654 2.6328,-0.5275 2.5981,-0.5817 2.5603,-0.6338 2.5195,-0.6842 2.4752,-0.7327 2.4276,-0.7783 2.3773,-0.8226 2.3232,-0.8644 2.2663,-0.904 2.206,-0.9416 2.1425,-0.9773 2.0757,-1.0108 2.0061,-1.0419 1.9326,-1.071 1.8564,-1.0988 1.7768,-1.1232 1.6941,-1.1463 1.6079,-1.167 1.519,-1.1859 1.4263,-1.2023 1.3308,-1.2169 1.2319,-1.2295 1.1299,-1.2395 1.0244,-1.248 0.9162,-1.254 0.8042,-1.2579 0.6894,-1.2597 0.5713,-1.2597 0.4498,-1.2574 0.3257,-1.2531 0.1976,-1.2465 0.0664,-1.2376 -0.0664,-1.2127 -0.1976,-1.1717 -0.3257,-1.1303 -0.4498,-1.0879 -0.5713,-1.0442 -0.6894,-1 -0.8042,-0.9548 -0.9162,-0.9082 -1.8493,-1.5571 0.9162,0.9082 0.8042,0.9548 0.6894,0.9999 0.5712,1.0442 0.4499,1.088 0.3256,1.1303 0.1977,1.1717 0.0663,1.2127 -0.0663,1.2376 -0.1977,1.2465 -0.3256,1.2531 -0.4499,1.2574 -0.5712,1.2597 -0.6894,1.2597 -0.8042,1.2578 -0.9162,1.2541 -1.0245,1.248 -1.1298,1.2394 -1.2319,1.2296 -1.3308,1.2169 -1.4263,1.2023 -1.519,1.1859 -1.6079,1.167 -1.6941,1.1463 -1.7769,1.1232 -1.8564,1.0988 -1.9326,1.071 -2.006,1.0419 -2.0757,1.0107 -2.1425,0.9774 -2.206,0.9416 -2.2663,0.904 -2.3232,0.8644 -2.3773,0.8226 -2.4277,0.7783 -2.4752,0.7327 -2.5194,0.6842 -2.5604,0.6338 -2.598,0.5817 -2.6328,0.5275 -2.6329,0.4654 -2.598,0.3976 -2.5603,0.3313 -2.5195,0.2654 -2.4752,0.2009 -2.4276,0.1369 -2.3774,0.0734 -2.3232,0.0118 -2.2662,-0.0494 -2.2061,-0.1101 -2.1425,-0.1694 -2.0756,-0.2282 -2.0061,-0.2857 -1.9326,-0.3426 -1.8564,-0.3981 -1.7769,-0.4536 -1.694,-0.5077 -1.608,-0.5605 -1.519,-0.6131 -1.4262,-0.6649 -1.3308,-0.7153 -1.232,-0.7647 z"
         inkscape:connector-curvature="0" />
      <defs
         id="defs37">
        <linearGradient
           id="grad5">
          <stop
             id="stop31"
             stop-opacity="1.0000"
             stop-color="#e73f13"
             offset="0%" />
          <stop
             id="stop33"
             stop-opacity="1.0000"
             stop-color="#ffffff"
             offset="100%" />
        </linearGradient>
        <linearGradient
           gradientUnits="userSpaceOnUse"
           gradientTransform="scale(1.4112127,0.70861039)"
           y2="133.34109"
           x2="8.3029537"
           y1="60.834251"
           x1="8.3029537"
           id="grad6"
           xlink:href="#grad5" />
      </defs>
      <path
         id="path39"
         style="fill:#ff6600"
         d="m 62.8786,44.9869 c 28.255565,-5.326501 53.11302,2.517187 53.11302,15.667301 0,21.214299 -56.459095,43.123949 -88.386946,33.299541 C 13.093644,89.488602 7.6936852,78.985489 15.612033,68.59563 23.530398,58.205749 42.185808,48.887731 62.8786,44.9869 Z"
         inkscape:connector-curvature="0"
         sodipodi:nodetypes="sssss" />
      <defs
         id="defs47">
        <linearGradient
           id="grad7">
          <stop
             id="stop41"
             stop-opacity="1.0000"
             stop-color="#e73f13"
             offset="0%" />
          <stop
             id="stop43"
             stop-opacity="1.0000"
             stop-color="#ffffff"
             offset="100%" />
        </linearGradient>
        <linearGradient
           gradientUnits="userSpaceOnUse"
           gradientTransform="scale(0.83244364,1.2012825)"
           y2="55.957695"
           x2="117.08348"
           y1="39.996254"
           x1="117.08348"
           id="grad8"
           xlink:href="#grad7" />
      </defs>
      <path
         id="path49"
         style="fill:#e6e6e6"
         d="m 97.4654,48.0468 2.1576,0.9764 11.1294,18.1978 -2.1575,-0.9764 z"
         inkscape:connector-curvature="0" />
      <defs
         id="defs57">
        <linearGradient
           id="grad9">
          <stop
             id="stop51"
             stop-opacity="1.0000"
             stop-color="#e73f13"
             offset="0%" />
          <stop
             id="stop53"
             stop-opacity="1.0000"
             stop-color="#ffffff"
             offset="100%" />
        </linearGradient>
        <linearGradient
           gradientUnits="userSpaceOnUse"
           gradientTransform="scale(2.2739705,0.43975945)"
           y2="158.51076"
           x2="40.831928"
           y1="150.63826"
           x1="40.831928"
           id="grad10"
           xlink:href="#grad9" />
      </defs>
      <path
         id="path59"
         style="fill:#cccccc"
         d="m 108.5949,66.2446 2.1575,0.9764 -15.7443,2.4856 -2.1575,-0.9764 z"
         inkscape:connector-curvature="0" />
      <defs
         id="defs67">
        <linearGradient
           id="grad11">
          <stop
             id="stop61"
             stop-opacity="1.0000"
             stop-color="#e73f13"
             offset="0%" />
          <stop
             id="stop63"
             stop-opacity="1.0000"
             stop-color="#ffffff"
             offset="100%" />
        </linearGradient>
        <linearGradient
           gradientUnits="userSpaceOnUse"
           gradientTransform="scale(2.2978143,0.43519618)"
           y2="158.36697"
           x2="33.864746"
           y1="151.67505"
           x1="33.864746"
           id="grad12"
           xlink:href="#grad11" />
      </defs>
      <path
         id="path69"
         style="fill:#cccccc"
         d="m 91.0342,66.0084 2.1575,0.9764 -13.2192,1.9359 -2.1576,-0.9764 z"
         inkscape:connector-curvature="0" />
      <defs
         id="defs77">
        <linearGradient
           id="grad13">
          <stop
             id="stop71"
             stop-opacity="1.0000"
             stop-color="#e73f13"
             offset="0%" />
          <stop
             id="stop73"
             stop-opacity="1.0000"
             stop-color="#ffffff"
             offset="100%" />
        </linearGradient>
        <linearGradient
           gradientUnits="userSpaceOnUse"
           gradientTransform="scale(1.0095925,0.9904986)"
           y2="73.204849"
           x2="74.603859"
           y1="68.596062"
           x1="74.603859"
           id="grad14"
           xlink:href="#grad13" />
      </defs>
      <path
         id="path79"
         style="fill:#cccccc"
         d="m 77.8149,67.9443 2.1576,0.9764 -2.4955,3.5886 -2.1575,-0.9764 z"
         inkscape:connector-curvature="0" />
      <defs
         id="defs87">
        <linearGradient
           id="grad15">
          <stop
             id="stop81"
             stop-opacity="1.0000"
             stop-color="#e73f13"
             offset="0%" />
          <stop
             id="stop83"
             stop-opacity="1.0000"
             stop-color="#ffffff"
             offset="100%" />
        </linearGradient>
        <linearGradient
           gradientUnits="userSpaceOnUse"
           gradientTransform="scale(2.1959787,0.45537782)"
           y2="164.3409"
           x2="28.025135"
           y1="157.08472"
           x1="28.025135"
           id="grad16"
           xlink:href="#grad15" />
      </defs>
      <path
         id="path89"
         style="fill:#cccccc"
         d="m 75.3195,71.5329 2.1575,0.9764 -13.7768,2.3279 -2.1576,-0.9764 z"
         inkscape:connector-curvature="0" />
      <defs
         id="defs97">
        <linearGradient
           id="grad17">
          <stop
             id="stop91"
             stop-opacity="1.0000"
             stop-color="#e73f13"
             offset="0%" />
          <stop
             id="stop93"
             stop-opacity="1.0000"
             stop-color="#ffffff"
             offset="100%" />
        </linearGradient>
        <linearGradient
           gradientUnits="userSpaceOnUse"
           gradientTransform="scale(1.0204164,0.97999205)"
           y2="65.1343"
           x2="81.55484"
           y1="58.791599"
           x1="81.55484"
           id="grad18"
           xlink:href="#grad17" />
      </defs>
      <path
         id="path99"
         style="fill:#cccccc"
         d="m 83.2199,62.8546 2.1575,0.9765 4.3147,-5.2393 -2.1576,-0.9765 z"
         inkscape:connector-curvature="0" />
      <path
         id="path101"
         style="fill:#ffffff;fill-rule:evenodd"
         d="m 61.5426,73.8608 21.1093,-22.5887 14.8135,-3.2253 11.1295,18.1978 -15.7443,2.4856 -1.8164,-2.7218 -13.2193,1.9359 -2.4954,3.5886 z m 28.2521,-12.0334 -6.5748,1.0272 4.3146,-5.2393 z"
         inkscape:connector-curvature="0" />
      <defs
         id="defs109">
        <linearGradient
           id="grad19">
          <stop
             id="stop103"
             stop-opacity="1.0000"
             stop-color="#e73f13"
             offset="0%" />
          <stop
             id="stop105"
             stop-opacity="1.0000"
             stop-color="#ffffff"
             offset="100%" />
        </linearGradient>
        <linearGradient
           gradientUnits="userSpaceOnUse"
           gradientTransform="scale(1.1845507,0.84420194)"
           y2="85.123947"
           x2="40.358086"
           y1="67.867531"
           x1="40.358086"
           id="grad20"
           xlink:href="#grad19" />
      </defs>
      <path
         id="path111"
         style="fill:#e6e6e6"
         d="m 65.7119,57.2939 1.3656,0.9125 0.2602,0.2009 0.2282,0.2226 0.1953,0.2451 0.1628,0.2669 0.1304,0.2894 0.0969,0.3115 0.0645,0.3336 0.0315,0.3558 -0.0019,0.3778 -0.0348,0.3995 -0.0682,0.4212 -0.1012,0.4433 -0.1219,0.4197 -0.1454,0.4108 -0.168,0.4024 -0.191,0.3929 -0.2127,0.384 -0.2353,0.3745 -0.2565,0.3652 -0.2776,0.3557 -0.3002,0.3473 -0.3229,0.3384 -0.3454,0.3294 -0.3675,0.3195 -0.3891,0.3101 -0.4104,0.3002 -0.4305,0.2899 -0.4508,0.279 -0.4748,0.2711 -0.5003,0.264 -0.5251,0.2564 -0.5501,0.2494 -0.575,0.2419 -0.5996,0.2348 -0.6244,0.2278 -0.6494,0.2207 -0.6738,0.2131 -0.6979,0.2066 -0.7228,0.1991 -0.7473,0.1924 -0.7712,0.1854 -0.7953,0.1784 -0.8197,0.1713 -0.8437,0.1642 -0.4631,0.087 -0.4616,0.0871 -0.4602,0.0866 -0.4593,0.0866 -0.4583,0.0861 -0.4574,0.0866 -0.457,0.0861 -0.4569,0.0861 -1.3656,-0.9124 0.457,-0.0861 0.4569,-0.0862 0.4574,-0.0865 0.4583,-0.0862 0.4593,-0.0865 0.4602,-0.0866 0.4616,-0.0871 0.4631,-0.087 0.8437,-0.1643 0.8197,-0.1713 0.7953,-0.1783 0.7713,-0.1854 0.7472,-0.1925 0.7228,-0.199 0.6979,-0.2066 0.6738,-0.2132 0.6494,-0.2207 0.6245,-0.2277 0.5995,-0.2348 0.575,-0.2419 0.5501,-0.2494 0.5251,-0.2565 0.5003,-0.264 0.4748,-0.271 0.4508,-0.2791 0.4305,-0.2898 0.4104,-0.3002 0.3891,-0.3101 0.3676,-0.3196 0.3454,-0.3294 0.3228,-0.3383 0.3002,-0.3473 0.2776,-0.3557 0.2565,-0.3652 0.2353,-0.3746 0.2127,-0.384 0.191,-0.3929 0.168,-0.4023 0.1454,-0.4108 0.1219,-0.4198 0.1012,-0.4432 0.0682,-0.4212 0.0348,-0.3995 0.0019,-0.3779 -0.0315,-0.3557 -0.0645,-0.3337 -0.0969,-0.3115 -0.1304,-0.2894 -0.1628,-0.2668 -0.1953,-0.2452 -0.2282,-0.2225 z"
         inkscape:connector-curvature="0" />
      <defs
         id="defs119">
        <linearGradient
           id="grad21">
          <stop
             id="stop113"
             stop-opacity="1.0000"
             stop-color="#e73f13"
             offset="0%" />
          <stop
             id="stop115"
             stop-opacity="1.0000"
             stop-color="#ffffff"
             offset="100%" />
        </linearGradient>
        <linearGradient
           gradientUnits="userSpaceOnUse"
           gradientTransform="scale(0.67281181,1.4862997)"
           y2="52.034122"
           x2="68.785507"
           y1="47.735596"
           x1="68.785507"
           id="grad22"
           xlink:href="#grad21" />
      </defs>
      <path
         id="path121"
         style="fill:#e6e6e6"
         d="m 47.8062,70.9494 1.3656,0.9124 -0.095,0.3407 -0.0951,0.3407 -0.0941,0.3411 -0.0941,0.3417 -0.0937,0.3416 -0.0941,0.3421 -0.095,0.3412 -0.0951,0.3416 -0.096,0.3426 -0.096,0.343 -0.0964,0.3431 -0.096,0.3435 -0.0965,0.3435 -0.0965,0.3435 -0.0964,0.3435 -0.0965,0.3431 -1.3656,-0.9125 0.0965,-0.343 0.0964,-0.3435 0.0965,-0.3435 0.0965,-0.3435 0.096,-0.3436 0.0964,-0.343 0.096,-0.3431 0.096,-0.3425 0.0951,-0.3417 0.095,-0.3411 0.0941,-0.3421 0.0937,-0.3417 0.0941,-0.3416 0.0941,-0.3412 0.0951,-0.3406 z"
         inkscape:connector-curvature="0" />
      <defs
         id="defs129">
        <linearGradient
           id="grad23">
          <stop
             id="stop123"
             stop-opacity="1.0000"
             stop-color="#e73f13"
             offset="0%" />
          <stop
             id="stop125"
             stop-opacity="1.0000"
             stop-color="#ffffff"
             offset="100%" />
        </linearGradient>
        <linearGradient
           gradientUnits="userSpaceOnUse"
           gradientTransform="scale(2.1061852,0.47479206)"
           y2="166.88379"
           x2="16.704704"
           y1="160.96689"
           x1="16.704704"
           id="grad24"
           xlink:href="#grad23" />
      </defs>
      <path
         id="path131"
         style="fill:#cccccc"
         d="m 46.2797,76.4258 1.3656,0.9125 -0.7106,0.1214 -0.7082,0.1209 -0.7058,0.1205 -0.704,0.1205 -0.7016,0.1199 -0.6988,0.1196 -0.6969,0.119 -0.6951,0.1186 -0.6922,0.1186 -0.6903,0.1176 -0.6875,0.1177 -0.6856,0.1171 -0.6833,0.1172 -0.6814,0.1162 -0.6785,0.1163 -0.6767,0.1157 -1.3656,-0.9124 0.6767,-0.1158 0.6785,-0.1162 0.6814,-0.1162 0.6833,-0.1172 0.6856,-0.1172 0.6875,-0.1176 0.6903,-0.1176 0.6923,-0.1186 0.695,-0.1186 0.6969,-0.1191 0.6988,-0.1195 0.7016,-0.12 0.704,-0.1204 0.7058,-0.1205 0.7082,-0.1209 z"
         inkscape:connector-curvature="0" />
      <defs
         id="defs139">
        <linearGradient
           id="grad25">
          <stop
             id="stop133"
             stop-opacity="1.0000"
             stop-color="#e73f13"
             offset="0%" />
          <stop
             id="stop135"
             stop-opacity="1.0000"
             stop-color="#ffffff"
             offset="100%" />
        </linearGradient>
        <linearGradient
           gradientUnits="userSpaceOnUse"
           gradientTransform="scale(0.74914503,1.334855)"
           y2="50.252872"
           x2="65.649239"
           y1="47.301243"
           x1="65.649239"
           id="grad26"
           xlink:href="#grad25" />
      </defs>
      <path
         id="path141"
         style="fill:#cccccc"
         d="m 50.0264,63.1403 1.3656,0.9124 -0.1054,0.3779 -0.1059,0.3783 -0.1054,0.3783 -0.1059,0.3789 -0.1059,0.3783 -0.1059,0.3788 -0.1054,0.3783 -0.1058,0.3788 -1.3656,-0.9124 0.1058,-0.3788 0.1054,-0.3783 0.1059,-0.3788 0.1059,-0.3784 0.1059,-0.3788 0.1054,-0.3783 0.1059,-0.3784 z"
         inkscape:connector-curvature="0" />
      <defs
         id="defs149">
        <linearGradient
           id="grad27">
          <stop
             id="stop143"
             stop-opacity="1.0000"
             stop-color="#e73f13"
             offset="0%" />
          <stop
             id="stop145"
             stop-opacity="1.0000"
             stop-color="#ffffff"
             offset="100%" />
        </linearGradient>
        <linearGradient
           gradientUnits="userSpaceOnUse"
           gradientTransform="scale(1.9841938,0.50398303)"
           y2="127.09297"
           x2="25.212458"
           y1="124.09029"
           x1="25.212458"
           id="grad28"
           xlink:href="#grad27" />
      </defs>
      <path
         id="path151"
         style="fill:#cccccc"
         d="m 54.6187,62.7577 1.3656,0.9124 -0.1539,-0.0771 -0.1854,-0.0612 -0.2174,-0.0447 -0.2433,-0.0264 -0.2682,-0.0089 -0.2937,0.0085 -0.3181,0.0258 -0.3421,0.0433 -0.3666,0.0603 -0.3896,0.0767 -0.2277,0.0484 -0.2278,0.048 -0.2278,0.0485 -0.2272,0.0485 -0.2269,0.048 -0.2263,0.0484 -0.2254,0.048 -0.2249,0.0485 -1.3656,-0.9124 0.2249,-0.0485 0.2254,-0.048 0.2264,-0.0485 0.2268,-0.048 0.2273,-0.0484 0.2277,-0.0485 0.2278,-0.048 0.2277,-0.0485 0.3897,-0.0767 0.3665,-0.0602 0.3421,-0.0433 0.3181,-0.0259 0.2937,-0.0084 0.2682,0.0089 0.2433,0.0264 0.2174,0.0447 0.1854,0.0611 z"
         inkscape:connector-curvature="0" />
      <path
         id="path153"
         style="fill:#ffffff;fill-rule:evenodd"
         d="m 35.1832,78.3227 c 0.8654,-2.99 1.7256,-5.9659 2.5797,-8.9168 0.8479,-2.9312 1.6921,-5.8478 2.5401,-8.7441 4.3156,-0.9849 8.746,-1.9976 13.3214,-3.0418 4.9894,-1.1383 8.5982,-1.4512 10.7275,-0.91 1.0753,0.2729 1.816,0.7778 2.2065,1.5194 0.3911,0.7421 0.4315,1.7214 0.1172,2.9321 -0.2936,1.1308 -0.84,2.1694 -1.6084,3.1053 -0.7689,0.9374 -1.7882,1.7839 -3.0168,2.5138 -2.4658,1.4653 -6.0069,2.6182 -10.5704,3.4766 -1.2372,0.2324 -2.4559,0.4625 -3.6738,0.6922 -0.255,0.9072 -0.5011,1.8206 -0.7562,2.7307 -0.2555,0.9129 -0.5134,1.831 -0.7703,2.7457 -3.7956,0.6485 -7.4943,1.2805 -11.0965,1.8969 z M 50.0264,63.1403 c -0.2814,1.0079 -0.5638,2.0178 -0.8456,3.0276 0.6084,-0.1228 1.2169,-0.247 1.8154,-0.3694 1.1002,-0.2254 2.0084,-0.528 2.6921,-0.9195 0.673,-0.3849 1.064,-0.8291 1.1967,-1.3147 0.1336,-0.488 -0.0701,-0.8042 -0.6056,-0.9449 -0.5454,-0.1431 -1.3684,-0.0927 -2.439,0.1345 -0.6075,0.129 -1.2159,0.2574 -1.814,0.3864 z"
         inkscape:connector-curvature="0" />
      <defs
         id="defs161">
        <linearGradient
           id="grad29">
          <stop
             id="stop155"
             stop-opacity="1.0000"
             stop-color="#e73f13"
             offset="0%" />
          <stop
             id="stop157"
             stop-opacity="1.0000"
             stop-color="#ffffff"
             offset="100%" />
        </linearGradient>
        <linearGradient
           gradientUnits="userSpaceOnUse"
           gradientTransform="scale(1.1507791,0.86897653)"
           y2="88.234146"
           x2="17.907261"
           y1="72.616112"
           x1="17.907261"
           id="grad30"
           xlink:href="#grad29" />
      </defs>
      <path
         id="path163"
         style="fill:#e6e6e6"
         d="m 35.0289,63.1017 2.0032,0.7256 0.2757,0.1266 0.2485,0.1463 0.2221,0.1666 0.1958,0.1859 0.1679,0.2061 0.1417,0.2259 0.1139,0.2451 0.0865,0.2654 0.0593,0.2857 0.032,0.3058 0.0047,0.3252 -0.023,0.3454 -0.0504,0.3647 -0.0781,0.3845 -0.1059,0.4037 -0.1214,0.3826 -0.1402,0.3745 -0.1586,0.3661 -0.176,0.3577 -0.1934,0.3491 -0.2103,0.3412 -0.2273,0.3322 -0.2433,0.3238 -0.2602,0.3153 -0.2776,0.3068 -0.2956,0.2988 -0.3124,0.2899 -0.329,0.2809 -0.3458,0.272 -0.3624,0.2621 -0.3778,0.2527 -0.3981,0.2456 -0.417,0.2391 -0.4366,0.2319 -0.456,0.2259 -0.4758,0.2188 -0.4945,0.2123 -0.5139,0.2056 -0.5332,0.1991 -0.5524,0.1929 -0.5717,0.1859 -0.5911,0.1792 -0.6098,0.1732 -0.6297,0.1666 -0.6484,0.16 -0.6677,0.1539 -0.6866,0.1473 -0.3774,0.0781 -0.3769,0.0776 -0.3765,0.0777 -0.376,0.0776 -0.3745,0.0776 -0.3741,0.0772 -0.3723,0.0772 -0.3708,0.0772 -2.0032,-0.7257 0.3708,-0.0771 0.3722,-0.0772 0.3741,-0.0772 0.3746,-0.0776 0.376,-0.0777 0.3765,-0.0776 0.3769,-0.0776 0.3774,-0.0782 0.6865,-0.1473 0.6678,-0.1538 0.6484,-0.16 0.6296,-0.1666 0.6099,-0.1732 0.591,-0.1793 0.5718,-0.1858 0.5524,-0.193 0.5332,-0.199 0.5138,-0.2057 0.4946,-0.2122 0.4758,-0.2188 0.4559,-0.2259 0.4367,-0.232 0.417,-0.239 0.3981,-0.2456 0.3778,-0.2527 0.3624,-0.2621 0.3458,-0.272 0.329,-0.281 0.3124,-0.2898 0.2955,-0.2988 0.2777,-0.3069 0.2602,-0.3152 0.2433,-0.3238 0.2273,-0.3322 0.2103,-0.3412 0.1934,-0.3491 0.176,-0.3577 0.1586,-0.3661 0.1402,-0.3745 0.1214,-0.3826 0.1059,-0.4038 0.0781,-0.3844 0.0504,-0.3647 0.023,-0.3454 -0.0047,-0.3252 -0.032,-0.3058 -0.0593,-0.2857 -0.0866,-0.2654 -0.1138,-0.2451 -0.1417,-0.2259 -0.168,-0.2061 -0.1957,-0.1859 -0.2221,-0.1666 -0.2485,-0.1463 z"
         inkscape:connector-curvature="0" />
      <defs
         id="defs171">
        <linearGradient
           id="grad31">
          <stop
             id="stop165"
             stop-opacity="1.0000"
             stop-color="#e73f13"
             offset="0%" />
          <stop
             id="stop167"
             stop-opacity="1.0000"
             stop-color="#ffffff"
             offset="100%" />
        </linearGradient>
        <linearGradient
           gradientUnits="userSpaceOnUse"
           gradientTransform="scale(0.78618489,1.2719654)"
           y2="64.216522"
           x2="24.252184"
           y1="59.708935"
           x1="24.252184"
           id="grad32"
           xlink:href="#grad31" />
      </defs>
      <path
         id="path173"
         style="fill:#b3b3b3"
         d="m 20.6073,75.9477 2.0032,0.7257 -0.095,0.3115 -0.096,0.3124 -0.0965,0.312 -0.0965,0.313 -0.0969,0.3124 -0.0965,0.3125 -0.096,0.3124 -0.095,0.3125 -0.0951,0.3129 -0.095,0.3134 -0.0955,0.3139 -0.0965,0.3138 -0.0965,0.3139 -0.0969,0.3139 -0.0979,0.3139 -0.0988,0.3134 -2.0032,-0.7257 0.0988,-0.3134 0.0979,-0.3138 0.0969,-0.3139 0.0965,-0.3139 0.0964,-0.3138 0.0956,-0.3139 0.095,-0.3134 0.0951,-0.3129 0.095,-0.3125 0.096,-0.3124 0.0965,-0.3125 0.0969,-0.3125 0.0965,-0.3129 0.0965,-0.312 0.096,-0.3124 z"
         inkscape:connector-curvature="0" />
      <defs
         id="defs181">
        <linearGradient
           id="grad33">
          <stop
             id="stop175"
             stop-opacity="1.0000"
             stop-color="#e73f13"
             offset="0%" />
          <stop
             id="stop177"
             stop-opacity="1.0000"
             stop-color="#ffffff"
             offset="100%" />
        </linearGradient>
        <linearGradient
           gradientUnits="userSpaceOnUse"
           gradientTransform="scale(2.127463,0.47004342)"
           y2="177.44679"
           x2="4.6868029"
           y1="172.22983"
           x1="4.6868029"
           id="grad34"
           xlink:href="#grad33" />
      </defs>
      <path
         id="path183"
         style="fill:#cccccc"
         d="m 19.0667,80.9555 2.0032,0.7257 -0.5802,0.1101 -0.5793,0.1101 -0.5774,0.1096 -0.5764,0.1092 -0.5746,0.1087 -0.5727,0.1087 -0.5717,0.1087 -0.5699,0.1078 -0.568,0.1077 -0.5661,0.1073 -0.5646,0.1073 -0.5628,0.1068 -0.561,0.1064 -0.559,0.1063 -0.5572,0.1059 -0.5548,0.1059 -2.0032,-0.7256 0.5548,-0.1059 0.5572,-0.1059 0.559,-0.1063 0.5609,-0.1064 0.5628,-0.1068 0.5647,-0.1073 0.5661,-0.1073 0.568,-0.1078 0.5699,-0.1077 0.5717,-0.1087 0.5727,-0.1087 0.5746,-0.1087 0.5764,-0.1092 0.5774,-0.1096 0.5793,-0.1101 z"
         inkscape:connector-curvature="0" />
      <defs
         id="defs191">
        <linearGradient
           id="grad35">
          <stop
             id="stop185"
             stop-opacity="1.0000"
             stop-color="#e73f13"
             offset="0%" />
          <stop
             id="stop187"
             stop-opacity="1.0000"
             stop-color="#ffffff"
             offset="100%" />
        </linearGradient>
        <linearGradient
           gradientUnits="userSpaceOnUse"
           gradientTransform="scale(0.9034501,1.106868)"
           y2="65.316368"
           x2="24.332058"
           y1="62.156372"
           x1="24.332058"
           id="grad36"
           xlink:href="#grad35" />
      </defs>
      <path
         id="path193"
         style="fill:#cccccc"
         d="m 22.8345,68.7989 2.0032,0.7256 -0.1054,0.3463 -0.1063,0.3459 -0.1068,0.3468 -0.1073,0.3463 -0.1069,0.3468 -0.1068,0.3464 -0.1063,0.3468 -0.1059,0.3468 -2.0032,-0.7256 0.1059,-0.3468 0.1063,-0.3468 0.1068,-0.3464 0.1069,-0.3468 0.1072,-0.3463 0.1069,-0.3468 0.1063,-0.3459 z"
         inkscape:connector-curvature="0" />
      <defs
         id="defs201">
        <linearGradient
           id="grad37">
          <stop
             id="stop195"
             stop-opacity="1.0000"
             stop-color="#e73f13"
             offset="0%" />
          <stop
             id="stop197"
             stop-opacity="1.0000"
             stop-color="#ffffff"
             offset="100%" />
        </linearGradient>
        <linearGradient
           gradientUnits="userSpaceOnUse"
           gradientTransform="scale(2.0847849,0.47966578)"
           y2="144.94363"
           x2="10.952928"
           y1="142.32326"
           x1="10.952928"
           id="grad38"
           xlink:href="#grad37" />
      </defs>
      <path
         id="path203"
         style="fill:#cccccc"
         d="m 26.2941,68.3448 2.0033,0.7256 -0.1713,-0.0419 -0.1939,-0.0254 -0.2155,-0.0099 -0.2367,0.0061 -0.2584,0.0217 -0.2785,0.0376 -0.2993,0.0532 -0.3195,0.0687 -0.1878,0.0433 -0.1868,0.0438 -0.1864,0.0428 -0.1858,0.0433 -0.1854,0.0428 -0.185,0.0428 -0.1849,0.0428 -0.1845,0.0424 -2.0032,-0.7256 0.1845,-0.0424 0.1849,-0.0428 0.185,-0.0428 0.1854,-0.0429 0.1858,-0.0432 0.1864,-0.0429 0.1868,-0.0437 0.1877,-0.0433 0.3196,-0.0687 0.2992,-0.0532 0.2786,-0.0376 0.2584,-0.0217 0.2367,-0.0061 0.2155,0.0099 0.1939,0.0254 z"
         inkscape:connector-curvature="0" />
      <path
         id="path205"
         style="fill:#ffffff;fill-rule:evenodd"
         d="m 9.971,82.6821 c 0.8687,-2.7425 1.7322,-5.4713 2.59,-8.1828 0.8532,-2.6944 1.7021,-5.3772 2.5454,-8.0429 3.5462,-0.8786 7.1983,-1.7807 10.9468,-2.7058 4.085,-1.008 6.9969,-1.2696 8.674,-0.7553 0.84,0.2574 1.3995,0.7285 1.6672,1.4089 0.2673,0.6814 0.2447,1.5778 -0.0748,2.6804 -0.2993,1.031 -0.7999,1.9754 -1.4705,2.8272 -0.6696,0.8507 -1.5317,1.6182 -2.5608,2.2785 -2.0705,1.3279 -4.9688,2.3688 -8.6825,3.1372 -1.0061,0.208 -2.0122,0.4151 -2.9985,0.6202 -0.2522,0.8306 -0.5157,1.6663 -0.7684,2.4988 -0.2532,0.8338 -0.5078,1.6733 -0.7722,2.509 -3.0992,0.5887 -6.141,1.1638 -9.0957,1.7266 z M 22.8345,68.7989 c -0.2804,0.9228 -0.5708,1.8474 -0.8517,2.7721 0.4922,-0.1082 0.9849,-0.2193 1.4776,-0.328 0.9176,-0.2023 1.6625,-0.4753 2.2333,-0.831 0.559,-0.3487 0.9044,-0.7515 1.0423,-1.1986 0.1369,-0.4437 -0.0146,-0.7355 -0.4419,-0.8686 -0.4272,-0.1327 -1.095,-0.0941 -1.9731,0.1101 -0.5011,0.1162 -0.9943,0.2306 -1.4865,0.344 z"
         inkscape:connector-curvature="0" />
      <defs
         id="defs213">
        <linearGradient
           id="grad39">
          <stop
             id="stop207"
             stop-opacity="1.0000"
             stop-color="#b1b3b4"
             offset="0%" />
          <stop
             id="stop209"
             stop-opacity="1.0000"
             stop-color="#000000"
             offset="100%" />
        </linearGradient>
        <linearGradient
           gradientUnits="userSpaceOnUse"
           gradientTransform="scale(1.1128956,0.89855688)"
           y2="103.63518"
           x2="45.45853"
           y1="85.048706"
           x1="45.45853"
           id="grad40"
           xlink:href="#grad39" />
      </defs>
      <path
         id="path215"
         style="fill:url(#grad40)"
         d="m 55.4008,76.5454 2.486,-0.0974 0.7778,-0.0236 0.7642,-0.0033 0.7492,0.0174 0.7341,0.0377 0.7171,0.0569 0.6997,0.0767 0.681,0.0956 0.6611,0.1138 0.6409,0.1318 0.6193,0.1501 0.5967,0.1671 0.5731,0.184 0.5482,0.2009 0.5233,0.2169 0.4965,0.233 0.4687,0.2479 0.4404,0.2636 0.4108,0.2781 0.3802,0.2922 0.3487,0.3059 0.3162,0.3195 0.2829,0.3327 0.2484,0.3458 0.2127,0.3577 0.1765,0.3698 0.1388,0.3812 0.1007,0.3924 0.0607,0.4033 0.0207,0.4137 -0.0207,0.4188 -0.0607,0.4178 -0.1007,0.4174 -0.1388,0.4151 -0.1765,0.4127 -0.2127,0.4098 -0.2484,0.4061 -0.2829,0.4019 -0.3162,0.3971 -0.3487,0.3911 -0.3802,0.3854 -0.4108,0.3783 -0.4404,0.3708 -0.4687,0.3628 -0.4965,0.3539 -0.5233,0.3449 -0.5482,0.3351 -0.5731,0.3242 -0.5967,0.3129 -0.6193,0.3012 -0.6409,0.2885 -0.6611,0.2757 -0.681,0.2616 -0.6997,0.2476 -0.7171,0.2324 -0.7341,0.217 -0.7492,0.2004 -0.7642,0.1835 -0.7778,0.1661 -0.7901,0.1483 -0.8023,0.1294 -0.8127,0.1096 -0.8127,0.089 -0.8023,0.0668 -0.7901,0.0447 -2.486,0.0974 0.7901,-0.0447 0.8023,-0.0668 0.8127,-0.089 0.8126,-0.1096 0.8024,-0.1294 0.7901,-0.1482 0.7778,-0.1662 0.7642,-0.1835 0.7492,-0.2004 0.734,-0.217 0.7172,-0.2324 0.6997,-0.2476 0.6809,-0.2616 0.6612,-0.2757 0.6409,-0.2885 0.6193,-0.3012 0.5967,-0.3129 0.5731,-0.3242 0.5482,-0.3351 0.5233,-0.3449 0.4964,-0.3539 0.4687,-0.3628 0.4405,-0.3708 0.4108,-0.3783 0.3802,-0.3854 0.3487,-0.391 0.3162,-0.3972 0.2828,-0.4019 0.2485,-0.4061 0.2127,-0.4098 0.1765,-0.4127 0.1388,-0.4151 0.1007,-0.4174 0.0607,-0.4178 0.0207,-0.4188 L 68.7687,82.4905 68.708,82.0873 68.6073,81.6948 68.4685,81.3136 68.292,80.9438 68.0793,80.5861 67.8308,80.2403 67.548,79.9076 67.2318,79.5881 66.8831,79.2822 66.5029,78.99 66.0921,78.7119 65.6516,78.4483 65.1829,78.2004 64.6865,77.9674 64.1632,77.7505 63.615,77.5496 63.0419,77.3656 62.4452,77.1985 61.8259,77.0484 61.185,76.9166 60.5238,76.8028 59.8429,76.7072 59.1432,76.6305 58.426,76.5736 57.692,76.536 56.9428,76.5185 56.1786,76.5218 Z"
         inkscape:connector-curvature="0" />
      <path
         id="path217"
         style="fill:#ffffff;fill-rule:evenodd"
         d="M 52.9957,76.7461 A 8.0077,15.9516 80.661 0 1 68.7894,82.9042 8.0077,15.9516 80.661 1 1 52.9957,76.7461 Z"
         inkscape:connector-curvature="0" />
      <path
         id="path219"
         style="fill:#102a83;fill-rule:evenodd"
         d="M 52.7016,78.1464 A 7.0231,14.4957 81.2078 0 1 67.0671,83.5423 7.0231,14.4957 81.2078 1 1 52.7016,78.1464 Z"
         inkscape:connector-curvature="0" />
      <path
         id="path221"
         style="fill:#f07c00;fill-rule:evenodd"
         d="m 45.8129,92.269 5.9645,-7.2247 -5.9645,-5.1668 z"
         inkscape:connector-curvature="0" />
      <path
         id="path223"
         style="fill:#f07c00;fill-rule:evenodd"
         d="m 53.4159,91.0507 5.9645,-7.3471 -5.9645,-5.2543 z"
         inkscape:connector-curvature="0" />
    </g>
  </g>
</svg>
