<?xml version="1.0" encoding="UTF-8" standalone="no"?>
<!-- Created with Inkscape (http://www.inkscape.org/) -->

<svg
   xmlns:dc="http://purl.org/dc/elements/1.1/"
   xmlns:cc="http://creativecommons.org/ns#"
   xmlns:rdf="http://www.w3.org/1999/02/22-rdf-syntax-ns#"
   xmlns:svg="http://www.w3.org/2000/svg"
   xmlns="http://www.w3.org/2000/svg"
   xmlns:sodipodi="http://sodipodi.sourceforge.net/DTD/sodipodi-0.dtd"
   xmlns:inkscape="http://www.inkscape.org/namespaces/inkscape"
   width="1920px"
   height="1080px"
   viewBox="0 0 1920 1080"
   version="1.1"
   id="SVGRoot"
   inkscape:version="0.92.2 (5c3e80d, 2017-08-06)"
   sodipodi:docname="anuncie.svg">
  <sodipodi:namedview
     id="base"
     pagecolor="#ffffff"
     bordercolor="#666666"
     borderopacity="1.0"
     inkscape:pageopacity="0.0"
     inkscape:pageshadow="2"
     inkscape:zoom="1.3598642"
     inkscape:cx="560.29444"
     inkscape:cy="523.84406"
     inkscape:document-units="px"
     inkscape:current-layer="layer2"
     showgrid="false"
     inkscape:window-width="1366"
     inkscape:window-height="704"
     inkscape:window-x="0"
     inkscape:window-y="339"
     inkscape:window-maximized="1"
     showguides="true"
     inkscape:guide-bbox="true" />
  <defs
     id="defs3867" />
  <metadata
     id="metadata3870">
    <rdf:RDF>
      <cc:Work
         rdf:about="">
        <dc:format>image/svg+xml</dc:format>
        <dc:type
           rdf:resource="http://purl.org/dc/dcmitype/StillImage" />
        <dc:title />
      </cc:Work>
    </rdf:RDF>
  </metadata>
  <g
     id="layer1"
     inkscape:groupmode="layer"
     inkscape:label=" Background"
     sodipodi:insensitive="true">
    <rect
       style="fill:#3266be;fill-opacity:1;fill-rule:evenodd"
       id="rect3883"
       width="1920"
       height="1088.5714"
       x="3.7680905"
       y="-2.8571429" />
  </g>
  <g
     inkscape:groupmode="layer"
     id="layer2"
     inkscape:label="Layer 2">
    <text
       xml:space="preserve"
       style="font-style:normal;font-variant:normal;font-weight:bold;font-stretch:normal;font-size:235.42668152px;line-height:1.25;font-family:Comfortaa;-inkscape-font-specification:'Comfortaa, Bold';font-variant-ligatures:normal;font-variant-caps:normal;font-variant-numeric:normal;font-feature-settings:normal;text-align:start;letter-spacing:0px;word-spacing:0px;writing-mode:lr-tb;text-anchor:start;fill:#ffffff;fill-opacity:1;stroke:none;stroke-width:8.6862278"
       x="714.87354"
       y="308.65353"
       id="text4692"><tspan
         sodipodi:role="line"
         id="tspan4690"
         x="714.87354"
         y="308.65353"
         style="font-style:normal;font-variant:normal;font-weight:bold;font-stretch:normal;font-size:235.42668152px;font-family:Comfortaa;-inkscape-font-specification:'Comfortaa, Bold';font-variant-ligatures:normal;font-variant-caps:normal;font-variant-numeric:normal;font-feature-settings:normal;text-align:start;writing-mode:lr-tb;text-anchor:start;fill:#ffffff;stroke-width:8.6862278">ANUNCIE</tspan></text>
    <text
       xml:space="preserve"
       style="font-style:normal;font-variant:normal;font-weight:bold;font-stretch:normal;font-size:72.28133392px;line-height:1.25;font-family:Comfortaa;-inkscape-font-specification:'Comfortaa, Bold';font-variant-ligatures:normal;font-variant-caps:normal;font-variant-numeric:normal;font-feature-settings:normal;text-align:start;letter-spacing:0px;word-spacing:0px;writing-mode:lr-tb;text-anchor:start;fill:#ffffff;fill-opacity:1;stroke:none;stroke-width:0.94719207"
       x="838.60535"
       y="513.44794"
       id="text4699"><tspan
         sodipodi:role="line"
         id="tspan4697"
         x="838.60535"
         y="513.44794"
         style="font-style:normal;font-variant:normal;font-weight:bold;font-stretch:normal;font-size:72.28133392px;font-family:Comfortaa;-inkscape-font-specification:'Comfortaa, Bold';font-variant-ligatures:normal;font-variant-caps:normal;font-variant-numeric:normal;font-feature-settings:normal;text-align:start;writing-mode:lr-tb;text-anchor:start;fill:#ffffff;stroke-width:0.94719207">DIVULGUE SEU PRODUTO,</tspan><tspan
         sodipodi:role="line"
         x="838.60535"
         y="603.79962"
         id="tspan4701"
         style="font-style:normal;font-variant:normal;font-weight:bold;font-stretch:normal;font-size:72.28133392px;font-family:Comfortaa;-inkscape-font-specification:'Comfortaa, Bold';font-variant-ligatures:normal;font-variant-caps:normal;font-variant-numeric:normal;font-feature-settings:normal;text-align:start;writing-mode:lr-tb;text-anchor:start;fill:#ffffff;stroke-width:0.94719207">EVENTO, EMPRESA, </tspan><tspan
         sodipodi:role="line"
         x="838.60535"
         y="694.15125"
         id="tspan4703"
         style="font-style:normal;font-variant:normal;font-weight:bold;font-stretch:normal;font-size:72.28133392px;font-family:Comfortaa;-inkscape-font-specification:'Comfortaa, Bold';font-variant-ligatures:normal;font-variant-caps:normal;font-variant-numeric:normal;font-feature-settings:normal;text-align:start;writing-mode:lr-tb;text-anchor:start;fill:#ffffff;stroke-width:0.94719207">SERVIÇO, MARCA </tspan><tspan
         sodipodi:role="line"
         x="838.60535"
         y="784.50293"
         style="font-style:normal;font-variant:normal;font-weight:bold;font-stretch:normal;font-size:72.28133392px;font-family:Comfortaa;-inkscape-font-specification:'Comfortaa, Bold';font-variant-ligatures:normal;font-variant-caps:normal;font-variant-numeric:normal;font-feature-settings:normal;text-align:start;writing-mode:lr-tb;text-anchor:start;fill:#ffffff;stroke-width:0.94719207"
         id="tspan4728">OU ESCRITÓRIO</tspan></text>
    <g
       id="g4995"
       transform="matrix(5.6922184,0,0,5.6922184,29.983744,170.04994)">
      <path
         id="path4874"
         d="M 63.4,83.3 H 27.8 C 14.6,83.3 4,72.7 4,59.5 v 0 C 4,46.4 14.6,35.7 27.8,35.7 h 35.6 z"
         inkscape:connector-curvature="0"
         style="fill:#fff6e2" />
      <path
         id="path4876"
         d="M 87.2,83.3 V 18 c 0,-1.6 1.3,-3 3,-3 v 0 c 1.6,0 3,1.3 3,3 v 83 c 0,1.6 -1.3,3 -3,3 v 0 c -1.6,0 -3,-1.3 -3,-3"
         inkscape:connector-curvature="0"
         style="fill:#ffffff" />
      <g
         id="g4948">
        <g
           id="g4944">
          <path
             id="path4878"
             d="m 87.2,101.1 v 0 C 87.2,88 76.6,83.3 63.4,83.3 v 0 -47.5 0 c 13.1,0 23.8,-4.6 23.8,-17.8 v 0"
             inkscape:connector-curvature="0"
             style="fill:#f36258" />
          <g
             id="g4882">
            <path
               id="path4880"
               d="m 63.4,35.8 v 6 c 13.1,0 23.8,-4.6 23.8,-17.8 v 0 -6 c 0,13.1 -10.7,17.8 -23.8,17.8 z"
               inkscape:connector-curvature="0"
               style="fill:#ffffff" />
          </g>
          <g
             id="g4886">
            <path
               id="path4884"
               d="m 87.2,101.1 v -5 c -1.6,-1.5 1.9,1 0,0 3.3,4 0,-0.7 0,5 z"
               inkscape:connector-curvature="0"
               style="fill:#e5e6e6"
               sodipodi:nodetypes="cccc" />
          </g>
          <g
             id="g4890">
            <path
               id="path4888"
               d="M 9.9,65.5 C 9.9,52.4 20.5,41.7 33.7,41.7 H 63.4 V 35.8 H 27.8 C 14.6,35.8 4,46.4 4,59.5 v 0 C 4,67.6 8,74.8 14.2,79 11.5,75.2 9.9,70.5 9.9,65.5 Z"
               inkscape:connector-curvature="0"
               style="fill:#ffffff" />
          </g>
          <g
             id="g4930">
            <path
               id="path4892"
               d="m 19.6,81.9 c -0.7,-0.3 -1.4,-0.6 -2.1,-0.9 0.7,0.3 1.4,0.6 2.1,0.9 z"
               inkscape:connector-curvature="0"
               style="fill:#4a374f" />
            <path
               id="path4894"
               d="m 8.5,73.5 c 0.3,0.4 0.6,0.8 0.9,1.2 C 9.1,74.3 8.8,73.9 8.5,73.5 Z"
               inkscape:connector-curvature="0"
               style="fill:#4a374f" />
            <path
               id="path4896"
               d="m 8.1,46.3 c 0.3,-0.5 0.7,-1 1.1,-1.4 -0.5,0.4 -0.8,0.9 -1.1,1.4 z"
               inkscape:connector-curvature="0"
               style="fill:#4a374f" />
            <path
               id="path4898"
               d="M 7.7,72.2 C 7.4,71.8 7.2,71.3 6.9,70.9 c 0.2,0.4 0.5,0.9 0.8,1.3 z"
               inkscape:connector-curvature="0"
               style="fill:#4a374f" />
            <path
               id="path4900"
               d="m 7.1,47.9 c 0.3,-0.5 0.6,-1.1 1,-1.6 -0.4,0.5 -0.7,1 -1,1.6 z"
               inkscape:connector-curvature="0"
               style="fill:#4a374f" />
            <path
               id="path4902"
               d="m 13.8,78.8 c 0.4,0.3 0.8,0.6 1.3,0.9 -0.4,-0.3 -0.9,-0.6 -1.3,-0.9 z"
               inkscape:connector-curvature="0"
               style="fill:#4a374f" />
            <path
               id="path4904"
               d="m 15.8,39 c -0.3,0.2 -0.7,0.4 -1,0.6 0.3,-0.2 0.7,-0.4 1,-0.6 z"
               inkscape:connector-curvature="0"
               style="fill:#4a374f" />
            <path
               id="path4906"
               d="m 27.8,83.3 c 2.9,0 5.3,2.4 5.3,5.3 v 22.9 c 0,3.9 3,7.3 6.9,7.4 4,0.1 7.3,-3.1 7.3,-7.1 V 88.6 c 0,-2.9 2.4,-5.3 5.3,-5.3"
               inkscape:connector-curvature="0"
               style="fill:#908f99" />
            <path
               id="path4908"
               d="m 14.2,40 c -0.4,0.3 -0.7,0.5 -1.1,0.8 0.4,-0.3 0.7,-0.5 1.1,-0.8 z"
               inkscape:connector-curvature="0"
               style="fill:#4a374f" />
            <path
               id="path4910"
               d="M 9.1,44.8 C 9.4,44.4 9.8,43.9 10.2,43.5 9.8,44 9.5,44.4 9.1,44.8 Z"
               inkscape:connector-curvature="0"
               style="fill:#4a374f" />
            <path
               id="path4912"
               d="M 6.3,69.8 C 6,69.1 5.7,68.4 5.4,67.7 5.7,68.4 6,69.2 6.3,69.8 Z"
               inkscape:connector-curvature="0"
               style="fill:#4a374f" />
            <path
               id="path4914"
               d="m 13.1,40.8 c -0.8,0.6 -1.5,1.2 -2.2,1.9 0.7,-0.6 1.5,-1.3 2.2,-1.9 z"
               inkscape:connector-curvature="0"
               style="fill:#4a374f" />
            <path
               id="path4916"
               d="m 27.8,35.8 c -4.4,0 -8.4,1.2 -12,3.2 3.5,-2 7.6,-3.2 12,-3.2 h 35.6 v 0 z"
               inkscape:connector-curvature="0"
               style="fill:#4a374f" />
            <path
               id="path4918"
               d="m 7.1,47.9 c -0.3,0.5 -0.5,0.9 -0.7,1.4 0.2,-0.5 0.4,-1 0.7,-1.4 z"
               inkscape:connector-curvature="0"
               style="fill:#4a374f" />
            <path
               id="path4920"
               d="m 13.8,78.8 c -0.4,-0.3 -0.8,-0.6 -1.2,-0.9 0.4,0.3 0.8,0.6 1.2,0.9 z"
               inkscape:connector-curvature="0"
               style="fill:#4a374f" />
            <path
               id="path4922"
               d="m 15.1,79.6 c 0.4,0.3 0.9,0.5 1.3,0.8 -0.4,-0.2 -0.9,-0.5 -1.3,-0.8 z"
               inkscape:connector-curvature="0"
               style="fill:#4a374f" />
            <path
               id="path4924"
               d="m 14.8,39.6 c -0.2,0.1 -0.4,0.3 -0.6,0.4 0.2,-0.1 0.4,-0.2 0.6,-0.4 z"
               inkscape:connector-curvature="0"
               style="fill:#4a374f" />
            <path
               id="path4926"
               d="M 7.7,72.2 C 8,72.6 8.3,73.1 8.6,73.5 8.2,73.1 7.9,72.6 7.7,72.2 Z"
               inkscape:connector-curvature="0"
               style="fill:#4a374f" />
            <path
               id="path4928"
               d="M 5.4,67.7 C 5,66.6 4.7,65.5 4.4,64.3 c 0.3,1.2 0.6,2.3 1,3.4 z"
               inkscape:connector-curvature="0"
               style="fill:#4a374f" />
          </g>
          <g
             id="g4934">
            <path
               id="path4932"
               d="m 124,61 h -10.7 c -0.8,0 -1.5,-0.7 -1.5,-1.5 0,-0.8 0.7,-1.5 1.5,-1.5 H 124 c 0.8,0 1.5,0.7 1.5,1.5 0,0.8 -0.7,1.5 -1.5,1.5 z"
               inkscape:connector-curvature="0"
               style="fill:#4a374f" />
          </g>
          <g
             id="g4938">
            <path
               id="path4936"
               d="m 113.3,49.2 c -0.4,0 -0.9,-0.2 -1.2,-0.5 -0.5,-0.6 -0.4,-1.6 0.2,-2.1 l 7.1,-5.9 c 0.6,-0.5 1.6,-0.4 2.1,0.2 0.5,0.6 0.4,1.6 -0.2,2.1 l -7.1,5.9 c -0.2,0.1 -0.6,0.3 -0.9,0.3 z"
               inkscape:connector-curvature="0"
               style="fill:#4a374f" />
          </g>
          <g
             id="g4942">
            <path
               id="path4940"
               d="m 120.4,78.9 c -0.3,0 -0.7,-0.1 -1,-0.3 l -7.1,-5.9 c -0.6,-0.5 -0.7,-1.5 -0.2,-2.1 0.5,-0.6 1.5,-0.7 2.1,-0.2 l 7.1,5.9 c 0.6,0.5 0.7,1.5 0.2,2.1 -0.2,0.3 -0.6,0.5 -1.1,0.5 z"
               inkscape:connector-curvature="0"
               style="fill:#4a374f" />
          </g>
        </g>
        <path
           id="path4946"
           d="M 106.5,59.5 C 106.5,52.6 101.3,47 94.6,46.2 V 18 c 0,-2.5 -2,-4.5 -4.5,-4.5 -2.4,0 -4.3,1.8 -4.4,4.2 V 18 c 0,13.4 -12.1,16.3 -22.3,16.3 v 0 H 27.8 c -13.9,0 -25.3,11.3 -25.3,25.3 0,14 11.3,25.3 25.3,25.3 v 0 c 2.1,0 3.8,1.7 3.8,3.8 v 22.9 c 0,4.8 3.8,8.8 8.4,8.9 h 0.3 v 0 c 2.3,0 4.5,-0.9 6.1,-2.5 1.6,-1.6 2.5,-3.8 2.5,-6.1 V 96.6 C 55,95.9 59.9,91 60.6,84.8 h 2.8 c 10.2,0 22.3,2.8 22.3,16.3 v 0.3 c 0.2,2.3 2.1,4.2 4.4,4.2 2.5,0 4.5,-2 4.5,-4.5 V 72.8 c 6.7,-0.7 11.9,-6.4 11.9,-13.3 z M 45.8,88.6 v 23.2 c 0,1.5 -0.6,2.9 -1.6,4 -1.1,1.1 -2.5,1.6 -4,1.6 H 40 c -3,-0.1 -5.5,-2.7 -5.5,-5.9 V 88.6 c 0,-1.4 -0.4,-2.7 -1.2,-3.8 H 47 c -0.8,1.1 -1.2,2.4 -1.2,3.8 z m 3,5 v -5 c 0,-2.1 1.7,-3.8 3.8,-3.8 h 5 c -0.7,4.5 -4.3,8.1 -8.8,8.8 z M 61.9,81.8 h -9.3 v 0 H 27.8 v 0 C 16,81.8 6.3,72.6 5.6,61 H 14 c 0.8,0 1.5,-0.7 1.5,-1.5 C 15.5,58.7 14.8,58 14,58 H 5.6 C 5.8,55.5 6.3,53.2 7.2,51 H 17 c 0.8,0 1.5,-0.7 1.5,-1.5 C 18.5,48.7 17.8,48 17,48 H 8.7 c 3.9,-6.4 11,-10.8 19.1,-10.8 h 34.1 z m 29.7,19.3 c 0,0.8 -0.7,1.5 -1.5,1.5 -0.8,0 -1.5,-0.7 -1.5,-1.5 0,-12 -8.4,-18.8 -23.8,-19.2 V 37.3 C 74.9,37 82,34 85.7,28.6 v 54.7 c 0,0.8 0.7,1.5 1.5,1.5 0.8,0 1.5,-0.7 1.5,-1.5 V 18 c 0,-0.8 0.7,-1.5 1.5,-1.5 0.8,0 1.5,0.7 1.5,1.5 v 29.6 23.8 29.7 z m 3,-31.3 V 49.3 c -3.397234,7.805352 -2.210187,5.487565 -2.210187,10.687565 0,5.2 -0.153542,3.557341 2.210187,9.812435 z"
           inkscape:connector-curvature="0"
           style="fill:#4a374f"
           sodipodi:nodetypes="scsscsccssccsscccssccsscsscssscscssccscssccccccccsssccssscscccsscccssssssccccccsc" />
      </g>
    </g>
  </g>
</svg>
